SplineFontDB: 3.0
FontName: ChauPhilomeneOne-Italic
FullName: Chau Philomene One
FamilyName: Chau Philomene One
Weight: Book
Copyright: Copyright (c) 2010-2012, TipoType (produccion.taller@gmail.com www.tipotype.com), with Reserved Font Name "Chau Philomene"
Version: 1.001
ItalicAngle: 0
UnderlinePosition: -50
UnderlineWidth: 50
Ascent: 800
Descent: 200
sfntRevision: 0x00010042
LayerCount: 2
Layer: 0 1 "Back"  1
Layer: 1 1 "Fore"  0
XUID: [1021 723 548469661 4508031]
FSType: 0
OS2Version: 2
OS2_WeightWidthSlopeOnly: 0
OS2_UseTypoMetrics: 1
CreationTime: 1332840230
ModificationTime: 1332866513
PfmFamily: 17
TTFWeight: 400
TTFWidth: 5
LineGap: 0
VLineGap: 0
Panose: 2 0 8 6 4 0 0 2 0 3
OS2TypoAscent: 233
OS2TypoAOffset: 1
OS2TypoDescent: -134
OS2TypoDOffset: 1
OS2TypoLinegap: 0
OS2WinAscent: 0
OS2WinAOffset: 1
OS2WinDescent: 0
OS2WinDOffset: 1
HheadAscent: 0
HheadAOffset: 1
HheadDescent: 0
HheadDOffset: 1
OS2SubXSize: 700
OS2SubYSize: 650
OS2SubXOff: 0
OS2SubYOff: 140
OS2SupXSize: 700
OS2SupYSize: 650
OS2SupXOff: 0
OS2SupYOff: 477
OS2StrikeYSize: 50
OS2StrikeYPos: 250
OS2Vendor: 'PYRS'
OS2CodePages: 00000001.00000000
OS2UnicodeRanges: 800000af.4000004a.00000000.00000000
Lookup: 4 0 1 "'liga' Standard Ligatures in Latin lookup 0"  {"'liga' Standard Ligatures in Latin lookup 0 subtable"  } ['liga' ('latn' <'dflt' > ) ]
Lookup: 1 0 0 "'smcp' Lowercase to Small Capitals in Latin lookup 1"  {"'smcp' Lowercase to Small Capitals in Latin lookup 1 subtable"  } ['smcp' ('latn' <'dflt' > ) ]
Lookup: 1 0 0 "'onum' Oldstyle Figures in Latin lookup 2"  {"'onum' Oldstyle Figures in Latin lookup 2 subtable" ("oldstyle" ) } ['onum' ('latn' <'dflt' > ) ]
Lookup: 258 0 0 "'kern' Horizontal Kerning in Latin lookup 0"  {"'kern' Horizontal Kerning in Latin lookup 0 subtable"  } ['kern' ('latn' <'dflt' > ) ]
DEI: 91125
TtTable: prep
PUSHW_1
 511
SCANCTRL
PUSHB_1
 4
SCANTYPE
EndTTInstrs
ShortTable: maxp 16
  1
  0
  329
  84
  7
  0
  0
  2
  0
  1
  1
  0
  64
  0
  0
  0
EndShort

StartChar: exclam
Encoding: 33 33 4
Width: 247
GlyphClass: 2
Flags: W
LayerCount: 2
Fore
SplineSet
327 723 m 1,0,-1
 188 198 l 1,1,-1
 91 209 l 1,2,-1
 77 225 l 1,3,-1
 136 532 l 1,4,-1
 199 752 l 1,5,-1
 313 739 l 1,6,-1
 327 723 l 1,0,-1
111 128 m 0,7,8
 174 128 174 128 174 72 c 0,9,10
 174 65 174 65 173 56 c 0,11,12
 164 -16 164 -16 91 -16 c 0,13,14
 28 -16 28 -16 28 41 c 0,15,16
 28 48 28 48 29 56 c 0,17,18
 39 128 39 128 111 128 c 0,7,8
EndSplineSet
EndChar

StartChar: quotedbl
Encoding: 34 34 5
Width: 323
GlyphClass: 2
Flags: W
LayerCount: 2
Fore
SplineSet
173 523 m 1,0,-1
 147 523 l 1,1,-1
 125 576 l 1,2,-1
 139 710 l 1,3,-1
 163 752 l 1,4,-1
 221 752 l 1,5,-1
 233 710 l 1,6,-1
 209 576 l 1,7,-1
 173 523 l 1,0,-1
322 523 m 1,8,-1
 296 523 l 1,9,-1
 274 576 l 1,10,-1
 288 710 l 1,11,-1
 312 752 l 1,12,-1
 370 752 l 1,13,-1
 382 710 l 1,14,-1
 358 576 l 1,15,-1
 322 523 l 1,8,-1
EndSplineSet
EndChar

StartChar: numbersign
Encoding: 35 35 6
Width: 723
GlyphClass: 2
Flags: W
LayerCount: 2
Fore
SplineSet
282 -130 m 1,0,-1
 381 128 l 1,1,-1
 267 128 l 1,2,-1
 166 -146 l 1,3,-1
 41 -146 l 1,4,-1
 27 -130 l 1,5,-1
 127 128 l 1,6,-1
 59 128 l 1,7,-1
 46 144 l 1,8,-1
 61 252 l 1,9,-1
 176 252 l 1,10,-1
 222 372 l 1,11,-1
 149 372 l 1,12,-1
 135 388 l 1,13,-1
 150 496 l 1,14,-1
 270 496 l 1,15,-1
 357 720 l 1,16,-1
 468 720 l 1,17,-1
 481 704 l 1,18,-1
 403 496 l 1,19,-1
 524 496 l 1,20,-1
 611 720 l 1,21,-1
 720 720 l 1,22,-1
 733 704 l 1,23,-1
 657 496 l 1,24,-1
 756 496 l 1,25,-1
 770 480 l 1,26,-1
 755 372 l 1,27,-1
 612 372 l 1,28,-1
 567 252 l 1,29,-1
 667 252 l 1,30,-1
 681 236 l 1,31,-1
 665 128 l 1,32,-1
 521 128 l 1,33,-1
 420 -146 l 1,34,-1
 296 -146 l 1,35,-1
 282 -130 l 1,0,-1
358 372 m 1,36,-1
 313 252 l 1,37,-1
 430 252 l 1,38,-1
 476 372 l 1,39,-1
 358 372 l 1,36,-1
EndSplineSet
EndChar

StartChar: dollar
Encoding: 36 36 7
Width: 393
GlyphClass: 2
Flags: W
LayerCount: 2
Fore
SplineSet
383 510 m 1,0,-1
 377 512 l 1,1,-1
 342 531 l 1,2,3
 300 548 300 548 271 548 c 1,4,5
 226 546 226 546 219 505 c 0,6,7
 217 489 217 489 233.5 479 c 128,-1,8
 250 469 250 469 260 463.5 c 128,-1,9
 270 458 270 458 290 448 c 2,10,-1
 322 432 l 1,11,12
 365 409 365 409 391.5 376 c 128,-1,13
 418 343 418 343 418 311 c 0,14,15
 418 306 418 306 417 300 c 0,16,17
 408 238 408 238 375.5 192.5 c 128,-1,18
 343 147 343 147 294 128 c 1,19,-1
 277 -1 l 1,20,-1
 153 -1 l 1,21,-1
 140 15 l 1,22,-1
 155 122 l 1,23,24
 83 136 83 136 48 193 c 0,25,26
 45 198 45 198 45 200 c 0,27,28
 45 210 45 210 73.5 239 c 128,-1,29
 102 268 102 268 115 268 c 0,30,31
 118 268 118 268 122 264 c 0,32,33
 168 222 168 222 219 222 c 0,34,35
 248 222 248 222 265 239.5 c 128,-1,36
 282 257 282 257 282 275 c 128,-1,37
 282 293 282 293 269 305 c 1,38,39
 249 321 249 321 200.5 346 c 128,-1,40
 152 371 152 371 124.5 405 c 128,-1,41
 97 439 97 439 97 475 c 0,42,43
 97 483 97 483 98 492 c 0,44,45
 107 558 107 558 139.5 593.5 c 128,-1,46
 172 629 172 629 233 639 c 1,47,-1
 253 768 l 1,48,-1
 364 768 l 1,49,-1
 378 752 l 1,50,-1
 362 634 l 1,51,52
 399 623 399 623 412 610 c 1,53,-1
 413 610 l 1,54,55
 421 605 421 605 421 594 c 128,-1,56
 421 583 421 583 415 568 c 1,57,58
 398 510 398 510 383 510 c 1,0,-1
EndSplineSet
EndChar

StartChar: percent
Encoding: 37 37 8
Width: 698
GlyphClass: 2
Flags: W
LayerCount: 2
Fore
SplineSet
181 16 m 1,0,-1
 508 720 l 1,1,-1
 610 720 l 1,2,-1
 623 704 l 1,3,-1
 304 0 l 1,4,-1
 195 0 l 1,5,-1
 181 16 l 1,0,-1
144.5 656.5 m 128,-1,7
 178 690 178 690 240.5 690 c 128,-1,8
 303 690 303 690 327 656 c 0,9,10
 343 634 343 634 343 600 c 128,-1,11
 343 566 343 566 339 538 c 0,12,13
 327 453 327 453 294 419.5 c 128,-1,14
 261 386 261 386 198 386 c 128,-1,15
 135 386 135 386 111 420 c 0,16,17
 95 442 95 442 95 476 c 128,-1,18
 95 510 95 510 99 538 c 0,19,6
 111 623 111 623 144.5 656.5 c 128,-1,7
180 513 m 0,20,21
 180 469 180 469 209 469 c 0,22,23
 224 469 224 469 238 492 c 0,24,25
 260 527 260 527 260 579 c 0,26,27
 260 590 260 590 258 596 c 0,28,29
 253 607 253 607 233 607 c 128,-1,30
 213 607 213 607 200 587 c 128,-1,31
 187 567 187 567 183.5 545.5 c 128,-1,32
 180 524 180 524 180 513 c 0,20,21
500.5 286.5 m 128,-1,34
 534 320 534 320 596.5 320 c 128,-1,35
 659 320 659 320 683 286 c 0,36,37
 699 264 699 264 699 230 c 128,-1,38
 699 196 699 196 695 168 c 0,39,40
 683 83 683 83 650 49.5 c 128,-1,41
 617 16 617 16 554 16 c 128,-1,42
 491 16 491 16 467 50 c 0,43,44
 451 72 451 72 451 106 c 128,-1,45
 451 140 451 140 455 168 c 0,46,33
 467 253 467 253 500.5 286.5 c 128,-1,34
536 143 m 0,47,48
 536 99 536 99 565 99 c 0,49,50
 580 99 580 99 594 122 c 0,51,52
 616 157 616 157 616 209 c 0,53,54
 616 220 616 220 614 226 c 0,55,56
 609 237 609 237 589 237 c 128,-1,57
 569 237 569 237 556 217 c 128,-1,58
 543 197 543 197 539.5 175.5 c 128,-1,59
 536 154 536 154 536 143 c 0,47,48
EndSplineSet
EndChar

StartChar: ampersand
Encoding: 38 38 9
Width: 777
GlyphClass: 2
Flags: W
LayerCount: 2
Fore
SplineSet
782 512 m 2,0,1
 826 512 826 512 826 486 c 0,2,3
 826 455 826 455 811 433 c 128,-1,4
 796 411 796 411 768 411 c 2,5,-1
 640 411 l 1,6,-1
 552 -223 l 1,7,-1
 552 -224 l 1,8,9
 551 -230 551 -230 550 -232 c 0,10,11
 545 -240 545 -240 511 -240 c 128,-1,12
 477 -240 477 -240 442 -235 c 128,-1,13
 407 -230 407 -230 408 -224 c 2,14,-1
 498 411 l 1,15,-1
 277 411 l 2,16,17
 245 411 245 411 228.5 387.5 c 128,-1,18
 212 364 212 364 202 307 c 1,19,-1
 347 307 l 2,20,21
 365 307 365 307 367 296 c 0,22,23
 368 289 368 289 367 278 c 0,24,25
 355 206 355 206 335 206 c 2,26,-1
 186 206 l 1,27,28
 183 178 183 178 183 150.5 c 128,-1,29
 183 123 183 123 190 107 c 0,30,31
 202 82 202 82 234 82 c 128,-1,32
 266 82 266 82 310 88.5 c 128,-1,33
 354 95 354 95 356 94 c 0,34,35
 367 90 367 90 362 59 c 128,-1,36
 357 28 357 28 352.5 14.5 c 128,-1,37
 348 1 348 1 338 -2 c 0,38,39
 288 -16 288 -16 229 -16 c 0,40,41
 108 -16 108 -16 72 40 c 0,42,43
 48 76 48 76 48 134.5 c 128,-1,44
 48 193 48 193 58 261.5 c 128,-1,45
 68 330 68 330 84.5 380 c 128,-1,46
 101 430 101 430 130.5 460 c 128,-1,47
 160 490 160 490 199 501 c 128,-1,48
 238 512 238 512 301 512 c 2,49,-1
 782 512 l 2,0,1
EndSplineSet
EndChar

StartChar: quotesingle
Encoding: 39 39 10
Width: 162
GlyphClass: 2
Flags: W
LayerCount: 2
Fore
SplineSet
167 523 m 1,0,-1
 141 523 l 1,1,-1
 119 576 l 1,2,-1
 133 710 l 1,3,-1
 157 752 l 1,4,-1
 215 752 l 1,5,-1
 227 710 l 1,6,-1
 203 576 l 1,7,-1
 167 523 l 1,0,-1
EndSplineSet
EndChar

StartChar: parenleft
Encoding: 40 40 11
Width: 343
GlyphClass: 2
Flags: W
LayerCount: 2
Fore
SplineSet
279 -176 m 2,0,1
 59 -176 59 -176 59 154 c 0,2,3
 59 242 59 242 75 355 c 0,4,5
 110 602 110 602 185 719 c 128,-1,6
 260 836 260 836 405 836 c 1,7,-1
 388 701 l 1,8,9
 316 701 316 701 282 594 c 0,10,11
 240 464 240 464 212 193 c 0,12,13
 207 143 207 143 207 117.5 c 128,-1,14
 207 92 207 92 208.5 65.5 c 128,-1,15
 210 39 210 39 217 23 c 128,-1,16
 224 7 224 7 234 -8 c 0,17,18
 252 -37 252 -37 299 -37 c 1,19,-1
 280 -176 l 1,20,-1
 279 -176 l 2,0,1
EndSplineSet
EndChar

StartChar: parenright
Encoding: 41 41 12
Width: 342
GlyphClass: 2
Flags: W
LayerCount: 2
Fore
SplineSet
228 545.5 m 128,-1,1
 228 570 228 570 226.5 596.5 c 128,-1,2
 225 623 225 623 219.5 640.5 c 128,-1,3
 214 658 214 658 206 672 c 0,4,5
 189 701 189 701 150 701 c 1,6,-1
 171 836 l 1,7,8
 316 836 316 836 358 719 c 0,9,10
 381 655 381 655 381 561 c 128,-1,11
 381 467 381 467 365 355 c 0,12,13
 290 -176 290 -176 13 -176 c 2,14,-1
 12 -176 l 1,15,-1
 31 -37 l 1,16,17
 91 -37 91 -37 122 12 c 0,18,19
 139 39 139 39 151 67.5 c 128,-1,20
 163 96 163 96 174 148 c 0,21,22
 205 294 205 294 224 486 c 0,23,0
 228 521 228 521 228 545.5 c 128,-1,1
EndSplineSet
EndChar

StartChar: asterisk
Encoding: 42 42 13
Width: 458
GlyphClass: 2
Flags: W
LayerCount: 2
Fore
SplineSet
176 514 m 1,0,-1
 235 477 l 1,1,-1
 247 568 l 1,2,-1
 354 568 l 1,3,-1
 369 551 l 1,4,-1
 358 476 l 1,5,-1
 442 521 l 1,6,-1
 484 430 l 1,7,-1
 475 407 l 1,8,-1
 405 370 l 1,9,-1
 478 324 l 1,10,-1
 407 225 l 1,11,-1
 392 223 l 1,12,-1
 328 262 l 1,13,-1
 316 171 l 1,14,-1
 208 171 l 1,15,-1
 194 187 l 1,16,-1
 204 263 l 1,17,-1
 119 217 l 1,18,-1
 77 314 l 1,19,-1
 81 329 l 1,20,-1
 157 369 l 1,21,-1
 83 416 l 1,22,-1
 152 508 l 1,23,-1
 176 514 l 1,0,-1
EndSplineSet
EndChar

StartChar: plus
Encoding: 43 43 14
Width: 427
GlyphClass: 2
Flags: W
LayerCount: 2
Fore
SplineSet
352 551 m 1,0,-1
 335 432 l 1,1,-1
 456 432 l 1,2,-1
 470 416 l 1,3,-1
 455 308 l 1,4,-1
 318 308 l 1,5,-1
 299 171 l 1,6,-1
 191 171 l 1,7,-1
 177 187 l 1,8,-1
 194 308 l 1,9,-1
 74 308 l 1,10,-1
 60 324 l 1,11,-1
 75 432 l 1,12,-1
 211 432 l 1,13,-1
 230 567 l 1,14,-1
 337 568 l 1,15,-1
 352 551 l 1,0,-1
EndSplineSet
EndChar

StartChar: comma
Encoding: 44 44 15
Width: 197
GlyphClass: 2
Flags: W
LayerCount: 2
Fore
SplineSet
57 3 m 1,0,1
 46 15 46 15 46 31.5 c 128,-1,2
 46 48 46 48 47 56 c 0,3,4
 57 128 57 128 129 128 c 0,5,6
 192 128 192 128 192 72 c 0,7,8
 192 65 192 65 191 56 c 0,9,10
 187 18 187 18 165 0 c 1,11,-1
 47 -128 l 1,12,-1
 23 -111 l 1,13,-1
 33 -42 l 1,14,-1
 57 3 l 1,0,1
EndSplineSet
EndChar

StartChar: hyphen
Encoding: 45 45 16
Width: 383
GlyphClass: 2
Flags: W
LayerCount: 2
Fore
SplineSet
380 308 m 1,0,-1
 104 308 l 1,1,-1
 90 324 l 1,2,-1
 105 432 l 1,3,-1
 381 432 l 1,4,-1
 395 416 l 1,5,-1
 380 308 l 1,0,-1
EndSplineSet
EndChar

StartChar: period
Encoding: 46 46 17
Width: 214
GlyphClass: 2
Flags: W
LayerCount: 2
Fore
SplineSet
123 128 m 0,0,1
 186 128 186 128 186 72 c 0,2,3
 186 65 186 65 185 56 c 0,4,5
 176 -16 176 -16 103 -16 c 0,6,7
 40 -16 40 -16 40 41 c 0,8,9
 40 48 40 48 41 56 c 0,10,11
 51 128 51 128 123 128 c 0,0,1
EndSplineSet
EndChar

StartChar: slash
Encoding: 47 47 18
Width: 394
GlyphClass: 2
Flags: W
LayerCount: 2
Fore
SplineSet
-10 -130 m 1,0,-1
 382 876 l 1,1,-1
 492 876 l 1,2,-1
 505 860 l 1,3,-1
 127 -146 l 1,4,-1
 3 -146 l 1,5,-1
 -10 -130 l 1,0,-1
EndSplineSet
EndChar

StartChar: zero
Encoding: 48 48 19
Width: 520
GlyphClass: 2
Flags: W
LayerCount: 2
Fore
SplineSet
364 752 m 0,0,1
 418 752 418 752 452 742 c 0,2,3
 527 722 527 722 543 641 c 1,4,5
 549 605 549 605 549 574.5 c 128,-1,6
 549 544 549 544 548 505.5 c 128,-1,7
 547 467 547 467 534 371 c 0,8,9
 503 152 503 152 443.5 68 c 128,-1,10
 384 -16 384 -16 256.5 -16 c 128,-1,11
 129 -16 129 -16 93 68 c 0,12,13
 74 113 74 113 74 191.5 c 128,-1,14
 74 270 74 270 92 400 c 128,-1,15
 110 530 110 530 142.5 611 c 128,-1,16
 175 692 175 692 225 722 c 128,-1,17
 275 752 275 752 364 752 c 0,0,1
388 607 m 0,18,19
 356 607 356 607 337.5 605 c 128,-1,20
 319 603 319 603 302 592.5 c 128,-1,21
 285 582 285 582 276.5 570 c 128,-1,22
 268 558 268 558 259 526 c 0,23,24
 249 491 249 491 233 383 c 0,25,26
 214 253 214 253 214 209.5 c 128,-1,27
 214 166 214 166 218 152 c 128,-1,28
 222 138 222 138 235 138 c 0,29,30
 268 138 268 138 285.5 139.5 c 128,-1,31
 303 141 303 141 321 150.5 c 128,-1,32
 339 160 339 160 347 172 c 128,-1,33
 355 184 355 184 365 214 c 1,34,35
 376 251 376 251 392 359 c 1,36,37
 411 497 411 497 411 552 c 128,-1,38
 411 607 411 607 388 607 c 0,18,19
EndSplineSet
Substitution2: "'onum' Oldstyle Figures in Latin lookup 2 subtable" zero_onum
EndChar

StartChar: one
Encoding: 49 49 20
Width: 422
GlyphClass: 2
Flags: W
LayerCount: 2
Fore
SplineSet
148 571 m 1,0,-1
 129 690 l 1,1,-1
 373 752 l 1,2,-1
 387 736 l 1,3,-1
 360 432 l 1,4,-1
 318 124 l 1,5,-1
 399 124 l 1,6,-1
 413 108 l 1,7,-1
 398 0 l 1,8,-1
 59 0 l 1,9,-1
 45 16 l 1,10,-1
 60 124 l 1,11,-1
 174 124 l 1,12,-1
 239 589 l 1,13,-1
 148 571 l 1,0,-1
EndSplineSet
Substitution2: "'onum' Oldstyle Figures in Latin lookup 2 subtable" one_onum
EndChar

StartChar: two
Encoding: 50 50 21
Width: 475
GlyphClass: 2
Flags: W
LayerCount: 2
Fore
SplineSet
216 616 m 1,0,-1
 167 616 l 1,1,-1
 153 717 l 1,2,3
 212 752 212 752 313 752 c 128,-1,4
 414 752 414 752 454.5 732.5 c 128,-1,5
 495 713 495 713 501 669 c 0,6,7
 503 654 503 654 503 627.5 c 128,-1,8
 503 601 503 601 499 576 c 128,-1,9
 495 551 495 551 493 536 c 128,-1,10
 491 521 491 521 490 516.5 c 128,-1,11
 489 512 489 512 485 495.5 c 128,-1,12
 481 479 481 479 475.5 468.5 c 128,-1,13
 470 458 470 458 460 436.5 c 128,-1,14
 450 415 450 415 436.5 396 c 128,-1,15
 423 377 423 377 403 348 c 128,-1,16
 383 319 383 319 358 288 c 0,17,18
 294 206 294 206 227 131 c 1,19,-1
 437 131 l 1,20,-1
 451 115 l 1,21,-1
 435 0 l 1,22,-1
 39 0 l 1,23,-1
 56 124 l 1,24,25
 246 351 246 351 294 420 c 128,-1,26
 342 489 342 489 351 554 c 1,27,28
 359 586 359 586 359 597.5 c 128,-1,29
 359 609 359 609 358 614 c 0,30,31
 354 629 354 629 306 629 c 128,-1,32
 258 629 258 629 243 624 c 128,-1,33
 228 619 228 619 216 616 c 1,0,-1
EndSplineSet
Substitution2: "'onum' Oldstyle Figures in Latin lookup 2 subtable" two_onum
EndChar

StartChar: three
Encoding: 51 51 22
Width: 484
GlyphClass: 2
Flags: W
LayerCount: 2
Fore
SplineSet
511 602 m 0,0,1
 511 471 511 471 443 395 c 1,2,3
 484 357 484 357 484 275 c 0,4,5
 484 246 484 246 478 202.5 c 128,-1,6
 472 159 472 159 455.5 120.5 c 128,-1,7
 439 82 439 82 408 50 c 0,8,9
 344 -16 344 -16 191 -16 c 0,10,11
 145 -16 145 -16 54 -6 c 1,12,-1
 71 118 l 1,13,14
 166 112 166 112 222.5 112 c 128,-1,15
 279 112 279 112 298 130.5 c 128,-1,16
 317 149 317 149 325 213 c 1,17,18
 334 253 334 253 334 271 c 128,-1,19
 334 289 334 289 330 296 c 0,20,21
 321 315 321 315 251 315 c 2,22,-1
 179 315 l 1,23,-1
 197 443 l 1,24,25
 263 443 263 443 288.5 448.5 c 128,-1,26
 314 454 314 454 323 465 c 0,27,28
 355 504 355 504 355 578 c 0,29,30
 355 629 355 629 325 629 c 0,31,32
 248 629 248 629 202 616 c 1,33,-1
 153 616 l 1,34,-1
 139 717 l 1,35,36
 198 752 198 752 320.5 752 c 128,-1,37
 443 752 443 752 482 704 c 1,38,39
 511 670 511 670 511 602 c 0,0,1
EndSplineSet
Substitution2: "'onum' Oldstyle Figures in Latin lookup 2 subtable" three_onum
EndChar

StartChar: four
Encoding: 52 52 23
Width: 489
GlyphClass: 2
Flags: W
LayerCount: 2
Fore
SplineSet
249 736 m 1,0,-1
 222 432 l 1,1,-1
 319 432 l 1,2,-1
 365 752 l 1,3,-1
 476 752 l 1,4,-1
 490 736 l 1,5,-1
 463 432 l 1,6,-1
 505 432 l 1,7,-1
 519 416 l 1,8,-1
 504 308 l 1,9,-1
 446 308 l 1,10,-1
 403 0 l 1,11,-1
 275 0 l 1,12,-1
 261 16 l 1,13,-1
 302 308 l 1,14,-1
 79 308 l 1,15,-1
 65 324 l 1,16,-1
 126 752 l 1,17,-1
 235 752 l 1,18,-1
 249 736 l 1,0,-1
EndSplineSet
Substitution2: "'onum' Oldstyle Figures in Latin lookup 2 subtable" four_onum
EndChar

StartChar: five
Encoding: 53 53 24
Width: 442
GlyphClass: 2
Flags: W
LayerCount: 2
Fore
SplineSet
446 300 m 0,0,1
 446 267 446 267 440 226 c 0,2,3
 407 -16 407 -16 134 -16 c 0,4,5
 115 -16 115 -16 92.5 -12.5 c 128,-1,6
 70 -9 70 -9 45 -6 c 1,7,-1
 62 118 l 1,8,9
 157 112 157 112 159 112 c 0,10,11
 231 112 231 112 254 135.5 c 128,-1,12
 277 159 277 159 286 227 c 1,13,14
 292 256 292 256 292 270 c 0,15,16
 292 313 292 313 270 321.5 c 128,-1,17
 248 330 248 330 196 330 c 2,18,-1
 106 330 l 1,19,-1
 92 346 l 1,20,-1
 149 752 l 1,21,-1
 474 752 l 1,22,-1
 488 736 l 1,23,-1
 473 628 l 1,24,-1
 254 628 l 1,25,-1
 246 454 l 1,26,27
 256 453 256 453 279 451.5 c 128,-1,28
 302 450 302 450 313 449 c 128,-1,29
 324 448 324 448 341.5 445.5 c 128,-1,30
 359 443 359 443 369 440 c 0,31,32
 395 434 395 434 406 423 c 0,33,34
 446 386 446 386 446 300 c 0,0,1
EndSplineSet
Substitution2: "'onum' Oldstyle Figures in Latin lookup 2 subtable" five_onum
EndChar

StartChar: six
Encoding: 54 54 25
Width: 455
GlyphClass: 2
Flags: W
LayerCount: 2
Fore
SplineSet
477 360 m 0,0,1
 477 316 477 316 468 250 c 0,2,3
 447 100 447 100 395.5 42 c 128,-1,4
 344 -16 344 -16 230 -16 c 128,-1,5
 116 -16 116 -16 82 42 c 1,6,7
 60 77 60 77 60 135 c 128,-1,8
 60 193 60 193 69.5 261 c 128,-1,9
 79 329 79 329 112.5 430 c 128,-1,10
 146 531 146 531 173 593.5 c 128,-1,11
 200 656 200 656 251 768 c 1,12,-1
 368 738 l 1,13,-1
 382 722 l 1,14,-1
 355 675 l 1,15,16
 303 593 303 593 279 504 c 1,17,-1
 305 514 l 1,18,19
 395 514 395 514 436 484 c 256,20,21
 477 454 477 454 477 360 c 0,0,1
237 390 m 128,-1,23
 219 362 219 362 206.5 270 c 128,-1,24
 194 178 194 178 194 130 c 128,-1,25
 194 82 194 82 212 82 c 0,26,27
 245 82 245 82 260.5 86 c 128,-1,28
 276 90 276 90 289.5 109 c 128,-1,29
 303 128 303 128 309 157.5 c 128,-1,30
 315 187 315 187 324.5 253.5 c 128,-1,31
 334 320 334 320 334 369 c 128,-1,32
 334 418 334 418 315 418 c 0,33,22
 255 418 255 418 237 390 c 128,-1,23
EndSplineSet
Substitution2: "'onum' Oldstyle Figures in Latin lookup 2 subtable" six_onum
EndChar

StartChar: seven
Encoding: 55 55 26
Width: 447
GlyphClass: 2
Flags: W
LayerCount: 2
Fore
SplineSet
38 16 m 1,0,-1
 386 628 l 1,1,-1
 165 628 l 1,2,-1
 151 644 l 1,3,-1
 166 752 l 1,4,-1
 523 752 l 1,5,-1
 536 736 l 1,6,-1
 521 629 l 1,7,-1
 425 432 l 1,8,-1
 179 0 l 1,9,-1
 52 0 l 1,10,-1
 38 16 l 1,0,-1
EndSplineSet
Substitution2: "'onum' Oldstyle Figures in Latin lookup 2 subtable" seven_onum
EndChar

StartChar: eight
Encoding: 56 56 27
Width: 487
GlyphClass: 2
Flags: W
LayerCount: 2
Fore
SplineSet
515 614 m 0,0,1
 515 489 515 489 418 400 c 1,2,3
 456 368 456 368 472 324.5 c 128,-1,4
 488 281 488 281 488 257.5 c 128,-1,5
 488 234 488 234 486 222 c 0,6,7
 470 113 470 113 409 48.5 c 128,-1,8
 348 -16 348 -16 240 -16 c 0,9,10
 58 -16 58 -16 58 161 c 0,11,12
 58 189 58 189 63.5 229 c 128,-1,13
 69 269 69 269 101 317.5 c 128,-1,14
 133 366 133 366 180 400 c 1,15,16
 154 433 154 433 142 470 c 128,-1,17
 130 507 130 507 130 528 c 128,-1,18
 130 549 130 549 132 562 c 0,19,20
 145 652 145 652 200 711 c 128,-1,21
 255 770 255 770 347 770 c 0,22,23
 515 770 515 770 515 614 c 0,0,1
308 463 m 1,24,25
 383 518 383 518 383 603 c 0,26,27
 383 629 383 629 372 650 c 128,-1,28
 361 671 361 671 337.5 671 c 128,-1,29
 314 671 314 671 294 646 c 0,30,31
 267 611 267 611 267 556 c 128,-1,32
 267 501 267 501 308 463 c 1,24,25
289 329 m 1,33,34
 207 267 207 267 200 219 c 0,35,36
 197 194 197 194 197 172.5 c 128,-1,37
 197 151 197 151 206 129 c 0,38,39
 220 96 220 96 256.5 96 c 128,-1,40
 293 96 293 96 316 129 c 128,-1,41
 339 162 339 162 346 210 c 0,42,43
 347 219 347 219 347 234 c 0,44,45
 347 272 347 272 289 329 c 1,33,34
EndSplineSet
Substitution2: "'onum' Oldstyle Figures in Latin lookup 2 subtable" eight_onum
EndChar

StartChar: nine
Encoding: 57 57 28
Width: 454
GlyphClass: 2
Flags: W
LayerCount: 2
Fore
SplineSet
84 388 m 0,0,1
 84 432 84 432 93 498 c 0,2,3
 115 649 115 649 167 709.5 c 128,-1,4
 219 770 219 770 332 770 c 128,-1,5
 445 770 445 770 480 710 c 1,6,7
 501 672 501 672 501 614 c 128,-1,8
 501 556 501 556 491.5 486 c 128,-1,9
 482 416 482 416 454 336.5 c 128,-1,10
 426 257 426 257 402 212 c 128,-1,11
 378 167 378 167 336 96.5 c 128,-1,12
 294 26 294 26 280 0 c 1,13,-1
 261 -16 l 1,14,-1
 174 16 l 1,15,-1
 160 32 l 1,16,17
 164 39 164 39 188 75.5 c 128,-1,18
 212 112 212 112 228 136 c 0,19,20
 272 207 272 207 282 244 c 1,21,-1
 256 234 l 1,22,23
 166 234 166 234 124 264 c 1,24,25
 84 294 84 294 84 388 c 0,0,1
324 372.5 m 128,-1,27
 341 398 341 398 353 481.5 c 128,-1,28
 365 565 365 565 365 610 c 128,-1,29
 365 655 365 655 347 655 c 0,30,31
 290 655 290 655 272 629 c 128,-1,32
 254 603 254 603 242.5 520 c 128,-1,33
 231 437 231 437 231 392 c 128,-1,34
 231 347 231 347 249 347 c 0,35,26
 307 347 307 347 324 372.5 c 128,-1,27
EndSplineSet
Substitution2: "'onum' Oldstyle Figures in Latin lookup 2 subtable" nine_onum
EndChar

StartChar: colon
Encoding: 58 58 29
Width: 221
GlyphClass: 2
Flags: W
LayerCount: 2
Fore
SplineSet
126 128 m 0,0,1
 189 128 189 128 189 72 c 0,2,3
 189 65 189 65 188 56 c 0,4,5
 179 -16 179 -16 106 -16 c 0,6,7
 43 -16 43 -16 43 41 c 0,8,9
 43 48 43 48 44 56 c 0,10,11
 54 128 54 128 126 128 c 0,0,1
180 512 m 0,12,13
 243 512 243 512 243 456 c 0,14,15
 243 449 243 449 242 440 c 0,16,17
 232 368 232 368 160 368 c 0,18,19
 97 368 97 368 97 424 c 0,20,21
 97 431 97 431 98 440 c 0,22,23
 108 512 108 512 180 512 c 0,12,13
EndSplineSet
EndChar

StartChar: semicolon
Encoding: 59 59 30
Width: 206
GlyphClass: 2
Flags: W
LayerCount: 2
Fore
SplineSet
187 512 m 0,0,1
 250 512 250 512 250 456 c 0,2,3
 250 449 250 449 249 440 c 0,4,5
 239 368 239 368 167 368 c 0,6,7
 104 368 104 368 104 424 c 0,8,9
 104 431 104 431 105 440 c 0,10,11
 115 512 115 512 187 512 c 0,0,1
59 3 m 1,12,13
 48 15 48 15 48 31.5 c 128,-1,14
 48 48 48 48 49 56 c 0,15,16
 59 128 59 128 131 128 c 0,17,18
 194 128 194 128 194 72 c 0,19,20
 194 65 194 65 193 56 c 0,21,22
 189 18 189 18 167 0 c 1,23,-1
 49 -128 l 1,24,-1
 25 -111 l 1,25,-1
 35 -42 l 1,26,-1
 59 3 l 1,12,13
EndSplineSet
EndChar

StartChar: less
Encoding: 60 60 31
Width: 396
GlyphClass: 2
Flags: W
LayerCount: 2
Fore
SplineSet
376 79 m 1,0,-1
 306 40 l 1,1,-1
 254 53 l 1,2,-1
 75 331 l 1,3,-1
 62 380 l 1,4,-1
 89 429 l 1,5,-1
 332 723 l 1,6,-1
 388 736 l 1,7,-1
 446 697 l 1,8,-1
 209 380 l 1,9,-1
 376 79 l 1,0,-1
EndSplineSet
EndChar

StartChar: equal
Encoding: 61 61 32
Width: 438
GlyphClass: 2
Flags: W
LayerCount: 2
Fore
SplineSet
436 432 m 1,0,-1
 105 432 l 1,1,-1
 123 556 l 1,2,-1
 455 556 l 1,3,-1
 468 540 l 1,4,-1
 456 449 l 1,5,-1
 436 432 l 1,0,-1
402 186 m 1,6,-1
 71 186 l 1,7,-1
 88 310 l 1,8,-1
 420 310 l 1,9,-1
 434 294 l 1,10,-1
 421 203 l 1,11,-1
 402 186 l 1,6,-1
EndSplineSet
EndChar

StartChar: greater
Encoding: 62 62 33
Width: 396
GlyphClass: 2
Flags: W
LayerCount: 2
Fore
SplineSet
100 40 m 1,0,-1
 42 79 l 1,1,-1
 293 380 l 1,2,-1
 144 697 l 1,3,-1
 214 736 l 1,4,-1
 266 723 l 1,5,-1
 427 429 l 1,6,-1
 440 380 l 1,7,-1
 413 331 l 1,8,-1
 156 53 l 1,9,-1
 100 40 l 1,0,-1
EndSplineSet
EndChar

StartChar: question
Encoding: 63 63 34
Width: 438
GlyphClass: 2
Flags: W
LayerCount: 2
Fore
SplineSet
321.5 467 m 128,-1,1
 345 497 345 497 349.5 529 c 128,-1,2
 354 561 354 561 354 579 c 128,-1,3
 354 597 354 597 350 608 c 0,4,5
 341 629 341 629 299 629 c 0,6,7
 232 629 232 629 186 616 c 1,8,-1
 137 616 l 1,9,-1
 123 717 l 1,10,11
 182 752 182 752 304 752 c 128,-1,12
 426 752 426 752 468 702 c 0,13,14
 499 665 499 665 499 595 c 0,15,16
 499 527 499 527 487 500 c 0,17,18
 461 443 461 443 303 291 c 1,19,-1
 291 202 l 1,20,-1
 171 202 l 1,21,-1
 157 218 l 1,22,-1
 168 297 l 2,23,24
 172 323 172 323 221 368 c 0,25,0
 298 437 298 437 321.5 467 c 128,-1,1
213 128 m 0,26,27
 276 128 276 128 276 72 c 0,28,29
 276 65 276 65 275 56 c 0,30,31
 266 -16 266 -16 193 -16 c 0,32,33
 130 -16 130 -16 130 41 c 0,34,35
 130 48 130 48 131 56 c 0,36,37
 141 128 141 128 213 128 c 0,26,27
EndSplineSet
EndChar

StartChar: at
Encoding: 64 64 35
Width: 599
GlyphClass: 2
Flags: W
LayerCount: 2
Fore
SplineSet
457 505 m 0,0,1
 457 609 457 609 389 609 c 0,2,3
 352 609 352 609 321 584 c 0,4,5
 303 570 303 570 284 521 c 0,6,7
 271 490 271 490 267 456 c 1,8,9
 255 376 255 376 249 328 c 0,10,11
 236 226 236 226 236 198.5 c 128,-1,12
 236 171 236 171 236.5 152 c 128,-1,13
 237 133 237 133 246 118 c 0,14,15
 261 90 261 90 310 90 c 128,-1,16
 359 90 359 90 468 121.5 c 128,-1,17
 577 153 577 153 580 153 c 1,18,-1
 562 27 l 1,19,20
 554 26 554 26 504 10 c 0,21,22
 365 -37 365 -37 293 -37 c 0,23,24
 144 -37 144 -37 100 47 c 0,25,26
 73 97 73 97 73 178.5 c 128,-1,27
 73 260 73 260 86 350 c 0,28,29
 108 511 108 511 143 591.5 c 128,-1,30
 178 672 178 672 238 703.5 c 128,-1,31
 298 735 298 735 408.5 734.5 c 128,-1,32
 519 734 519 734 568 692 c 128,-1,33
 617 650 617 650 622 558 c 0,34,35
 623 541 623 541 623 522 c 0,36,37
 623 439 623 439 605 318 c 1,38,-1
 597 258 l 1,39,-1
 430 258 l 2,40,41
 388 258 388 258 368 283.5 c 128,-1,42
 348 309 348 309 348 344 c 0,43,44
 348 413 348 413 382 446.5 c 128,-1,45
 416 480 416 480 456 482 c 1,46,47
 457 494 457 494 457 505 c 0,0,1
EndSplineSet
EndChar

StartChar: A
Encoding: 65 65 36
Width: 539
GlyphClass: 2
Flags: W
LayerCount: 2
Fore
SplineSet
406 769 m 0,0,1
 475 769 475 769 476 738 c 1,2,-1
 501 431 l 1,3,-1
 513 22 l 2,4,5
 513 -2 513 -2 506 -9 c 128,-1,6
 499 -16 499 -16 470 -16 c 0,7,8
 381 -16 381 -16 381 22 c 1,9,-1
 375 228 l 1,10,-1
 235 228 l 1,11,-1
 174 21 l 2,12,13
 169 3 169 3 166 -2 c 0,14,15
 160 -16 160 -16 127.5 -16 c 128,-1,16
 95 -16 95 -16 81 -16 c 0,17,18
 38 -14 38 -14 31 0 c 0,19,20
 29 4 29 4 29 9.5 c 128,-1,21
 29 15 29 15 31 22 c 0,22,23
 157 434 157 434 204.5 585 c 128,-1,24
 252 736 252 736 255 746 c 0,25,26
 262 769 262 769 406 769 c 0,0,1
357 638 m 1,27,-1
 271 349 l 1,28,-1
 370 349 l 1,29,-1
 357 638 l 1,27,-1
EndSplineSet
EndChar

StartChar: B
Encoding: 66 66 37
Width: 560
GlyphClass: 2
Flags: W
LayerCount: 2
Fore
SplineSet
341 768 m 0,0,1
 494 768 494 768 546 718 c 0,2,3
 586 679 586 679 586 604 c 0,4,5
 586 581 586 581 582 554 c 0,6,7
 567 449 567 449 517 395 c 1,8,9
 559 356 559 356 559 276 c 0,10,11
 559 250 559 250 555 220 c 0,12,13
 523 -16 523 -16 251 -16 c 0,14,15
 220 -16 220 -16 45 0 c 1,16,-1
 150 752 l 1,17,18
 256 768 256 768 341 768 c 0,0,1
405 221 m 0,19,20
 409 249 409 249 409 272 c 128,-1,21
 409 295 409 295 401 303 c 0,22,23
 388 317 388 317 325.5 317 c 128,-1,24
 263 317 263 317 246 315 c 128,-1,25
 229 313 229 313 228 303 c 2,26,-1
 203 124 l 2,27,28
 202 114 202 114 215 111.5 c 128,-1,29
 228 109 228 109 289 109 c 128,-1,30
 350 109 350 109 372.5 131 c 128,-1,31
 395 153 395 153 405 221 c 0,19,20
248 450 m 0,32,33
 248 441 248 441 265 441 c 0,34,35
 352 441 352 441 386.5 462 c 128,-1,36
 421 483 421 483 432 555 c 0,37,38
 434 567 434 567 434 585.5 c 128,-1,39
 434 604 434 604 422 626.5 c 128,-1,40
 410 649 410 649 390 649 c 0,41,42
 304 649 304 649 284 638 c 0,43,44
 278 634 278 634 273 626 c 1,45,-1
 250 457 l 1,46,47
 248 453 248 453 248 450 c 0,32,33
EndSplineSet
EndChar

StartChar: C
Encoding: 67 67 38
Width: 498
GlyphClass: 2
Flags: W
LayerCount: 2
Fore
SplineSet
293 -16 m 0,0,1
 144 -16 144 -16 100 68 c 0,2,3
 74 117 74 117 74 198.5 c 128,-1,4
 74 280 74 280 87 371 c 0,5,6
 109 531 109 531 145.5 615.5 c 128,-1,7
 182 700 182 700 241 734 c 128,-1,8
 300 768 300 768 408.5 768 c 128,-1,9
 517 768 517 768 563 734 c 0,10,11
 570 728 570 728 570 719 c 128,-1,12
 570 710 570 710 556 681 c 128,-1,13
 542 652 542 652 532.5 640.5 c 128,-1,14
 523 629 523 629 513.5 629 c 128,-1,15
 504 629 504 629 499 630 c 0,16,17
 426 645 426 645 371.5 645 c 128,-1,18
 317 645 317 645 292 585 c 128,-1,19
 267 525 267 525 248 388.5 c 128,-1,20
 229 252 229 252 229 200.5 c 128,-1,21
 229 149 229 149 245 128.5 c 128,-1,22
 261 108 261 108 302.5 108 c 128,-1,23
 344 108 344 108 447 118 c 0,24,25
 463 119 463 119 469 111.5 c 128,-1,26
 475 104 475 104 473 89 c 0,27,28
 466 39 466 39 458 20 c 128,-1,29
 450 1 450 1 427 -3 c 0,30,31
 336 -16 336 -16 293 -16 c 0,0,1
EndSplineSet
EndChar

StartChar: D
Encoding: 68 68 39
Width: 571
GlyphClass: 2
Flags: W
LayerCount: 2
Fore
SplineSet
150 751 m 1,0,1
 304 768 304 768 370.5 768 c 128,-1,2
 437 768 437 768 479 758 c 0,3,4
 570 736 570 736 592 654 c 0,5,6
 603 611 603 611 603 550 c 0,7,8
 603 484 603 484 588 383 c 0,9,10
 557 161 557 161 486.5 72.5 c 128,-1,11
 416 -16 416 -16 261 -16 c 0,12,13
 224 -16 224 -16 45 0 c 1,14,-1
 150 751 l 1,0,1
408 649 m 0,15,16
 321 649 321 649 298.5 645.5 c 128,-1,17
 276 642 276 642 273 626 c 2,18,-1
 203 124 l 2,19,20
 202 114 202 114 215 111.5 c 128,-1,21
 228 109 228 109 266.5 109 c 128,-1,22
 305 109 305 109 321 111 c 128,-1,23
 337 113 337 113 353 123 c 128,-1,24
 369 133 369 133 377 147 c 128,-1,25
 385 161 385 161 394 194 c 0,26,27
 405 232 405 232 423.5 358.5 c 128,-1,28
 442 485 442 485 442 551 c 0,29,30
 442 649 442 649 408 649 c 0,15,16
EndSplineSet
EndChar

StartChar: E
Encoding: 69 69 40
Width: 483
GlyphClass: 2
Flags: W
LayerCount: 2
Fore
SplineSet
505 752 m 1,0,1
 544 750 544 750 544 725 c 0,2,3
 544 713 544 713 537 688 c 0,4,5
 522 632 522 632 485 632 c 2,6,-1
 262 632 l 1,7,-1
 248 455 l 1,8,-1
 441 455 l 2,9,10
 477 455 477 455 477 428 c 0,11,12
 477 424 477 424 473.5 397.5 c 128,-1,13
 470 371 470 371 461 352.5 c 128,-1,14
 452 334 452 334 427 334 c 2,15,-1
 231 334 l 1,16,-1
 202 121 l 1,17,-1
 433 121 l 1,18,19
 456 120 456 120 464 111.5 c 128,-1,20
 472 103 472 103 470 86 c 0,21,22
 463 37 463 37 451.5 18.5 c 128,-1,23
 440 0 440 0 413 0 c 2,24,-1
 61 0 l 1,25,-1
 47 16 l 1,26,-1
 150 752 l 1,27,-1
 505 752 l 1,0,1
EndSplineSet
EndChar

StartChar: F
Encoding: 70 70 41
Width: 439
GlyphClass: 2
Flags: W
LayerCount: 2
Fore
SplineSet
497 752 m 1,0,1
 547 750 547 750 547 731 c 0,2,3
 547 724 547 724 546 721 c 0,4,5
 537 669 537 669 524 650.5 c 128,-1,6
 511 632 511 632 475 632 c 2,7,-1
 263 632 l 1,8,-1
 248 455 l 1,9,-1
 457 455 l 2,10,11
 498 455 498 455 494 423 c 0,12,13
 487 371 487 371 475 352.5 c 128,-1,14
 463 334 463 334 434 334 c 2,15,-1
 233 334 l 1,16,-1
 187 0 l 2,17,18
 186 -6 186 -6 184 -8 c 0,19,20
 178 -16 178 -16 151 -16 c 128,-1,21
 124 -16 124 -16 101 -14 c 0,22,23
 45 -9 45 -9 47 0 c 2,24,-1
 152 752 l 1,25,-1
 497 752 l 1,0,1
EndSplineSet
EndChar

StartChar: G
Encoding: 71 71 42
Width: 547
GlyphClass: 2
Flags: W
LayerCount: 2
Fore
SplineSet
295 -16 m 0,0,1
 146 -16 146 -16 102 68 c 0,2,3
 75 118 75 118 75 199.5 c 128,-1,4
 75 281 75 281 88 371 c 0,5,6
 110 531 110 531 146.5 615.5 c 128,-1,7
 183 700 183 700 242.5 734 c 128,-1,8
 302 768 302 768 402 768 c 128,-1,9
 502 768 502 768 553 741 c 1,10,11
 571 730 571 730 571 718.5 c 128,-1,12
 571 707 571 707 567 699 c 0,13,14
 543 649 543 649 533 639 c 128,-1,15
 523 629 523 629 512.5 629 c 128,-1,16
 502 629 502 629 458 637 c 128,-1,17
 414 645 414 645 370 645 c 0,18,19
 315 645 315 645 292.5 588.5 c 128,-1,20
 270 532 270 532 254 416 c 0,21,22
 231 254 231 254 231 192 c 0,23,24
 231 188 231 188 231.5 169.5 c 128,-1,25
 232 151 232 151 241 136 c 0,26,27
 258 108 258 108 304 108 c 1,28,-1
 386 113 l 1,29,-1
 417 331 l 1,30,31
 421 351 421 351 434.5 357.5 c 128,-1,32
 448 364 448 364 480 364.5 c 128,-1,33
 512 365 512 365 526.5 356.5 c 128,-1,34
 541 348 541 348 540 322 c 2,35,-1
 529 126 l 1,36,-1
 512 0 l 1,37,38
 382 -16 382 -16 295 -16 c 0,0,1
EndSplineSet
EndChar

StartChar: H
Encoding: 72 72 43
Width: 533
GlyphClass: 2
Flags: W
LayerCount: 2
Fore
SplineSet
510 768 m 0,0,1
 578 768 578 768 578 737 c 0,2,3
 578 734 578 734 578 731 c 2,4,-1
 555 431 l 1,5,-1
 497 21 l 2,6,7
 494 -3 494 -3 487 -9.5 c 128,-1,8
 480 -16 480 -16 454.5 -16 c 128,-1,9
 429 -16 429 -16 408 -13.5 c 128,-1,10
 387 -11 387 -11 370.5 -2 c 128,-1,11
 354 7 354 7 356 20 c 2,12,-1
 397 310 l 1,13,-1
 233 310 l 1,14,-1
 193 21 l 2,15,16
 190 -3 190 -3 183 -9.5 c 128,-1,17
 176 -16 176 -16 148 -16 c 0,18,19
 48 -16 48 -16 54 22 c 2,20,-1
 154 733 l 2,21,22
 157 755 157 755 167 761.5 c 128,-1,23
 177 768 177 768 207 768 c 0,24,25
 280 768 280 768 276 733 c 2,26,-1
 250 430 l 1,27,-1
 414 430 l 1,28,-1
 457 734 l 2,29,30
 460 755 460 755 470 761.5 c 128,-1,31
 480 768 480 768 510 768 c 0,0,1
EndSplineSet
EndChar

StartChar: I
Encoding: 73 73 44
Width: 325
GlyphClass: 2
Flags: W
LayerCount: 2
Fore
SplineSet
126 668 m 0,0,1
 126 752 126 752 169 752 c 2,2,-1
 346 752 l 2,3,4
 386 752 386 752 386 726 c 0,5,6
 386 724 386 724 386 721 c 0,7,8
 373 632 373 632 338 632 c 2,9,-1
 313 632 l 1,10,-1
 295 432 l 1,11,-1
 253 121 l 1,12,-1
 283 121 l 1,13,14
 314 120 314 120 314 96 c 0,15,16
 314 78 314 78 306 54 c 0,17,18
 288 0 288 0 252 0 c 2,19,-1
 63 0 l 1,20,21
 45 1 45 1 41 10.5 c 128,-1,22
 37 20 37 20 37 31.5 c 128,-1,23
 37 43 37 43 40 66 c 0,24,25
 45 121 45 121 76 121 c 2,26,-1
 112 121 l 1,27,-1
 183 632 l 1,28,-1
 153 632 l 1,29,30
 134 633 134 633 130 642.5 c 128,-1,31
 126 652 126 652 126 668 c 0,0,1
EndSplineSet
EndChar

StartChar: J
Encoding: 74 74 45
Width: 289
GlyphClass: 2
Flags: W
LayerCount: 2
Fore
SplineSet
-24 -191 m 0,0,1
 -24 -113 -24 -113 17 -113 c 0,2,3
 61 -113 61 -113 84 -53.5 c 128,-1,4
 107 6 107 6 129 163 c 2,5,-1
 210 732 l 2,6,7
 213 754 213 754 224.5 761 c 128,-1,8
 236 768 236 768 266 768 c 0,9,10
 338 768 338 768 334 731 c 2,11,-1
 308 432 l 1,12,-1
 271 165 l 1,13,14
 246 -5 246 -5 220 -72.5 c 128,-1,15
 194 -140 194 -140 166 -167 c 0,16,17
 107 -224 107 -224 1 -224 c 1,18,19
 -24 -223 -24 -223 -24 -191 c 0,0,1
EndSplineSet
EndChar

StartChar: K
Encoding: 75 75 46
Width: 583
GlyphClass: 2
Flags: W
LayerCount: 2
Fore
SplineSet
466 732 m 1,0,1
 486 768 486 768 551.5 768 c 128,-1,2
 617 768 617 768 617 746 c 0,3,4
 617 740 617 740 612 732 c 2,5,-1
 417 417 l 1,6,-1
 552 21 l 2,7,8
 560 -2 560 -2 553.5 -9 c 128,-1,9
 547 -16 547 -16 511.5 -16 c 128,-1,10
 476 -16 476 -16 437 -7.5 c 128,-1,11
 398 1 398 1 391 21 c 2,12,-1
 268 386 l 1,13,-1
 272 416 l 1,14,-1
 466 732 l 1,0,1
206 768 m 0,15,16
 278 768 278 768 274 730 c 2,17,-1
 247 432 l 1,18,-1
 191 22 l 2,19,20
 187 -3 187 -3 180 -9.5 c 128,-1,21
 173 -16 173 -16 147.5 -16 c 128,-1,22
 122 -16 122 -16 101 -13.5 c 128,-1,23
 80 -11 80 -11 63.5 -2 c 128,-1,24
 47 7 47 7 49 20 c 2,25,-1
 149 731 l 2,26,27
 152 753 152 753 164 760.5 c 128,-1,28
 176 768 176 768 206 768 c 0,15,16
EndSplineSet
EndChar

StartChar: L
Encoding: 76 76 47
Width: 435
GlyphClass: 2
Flags: W
LayerCount: 2
Fore
SplineSet
396 121 m 2,0,1
 440 121 440 121 440 93 c 256,2,3
 440 65 440 65 430.5 39.5 c 128,-1,4
 421 14 421 14 410 7 c 128,-1,5
 399 0 399 0 383 0 c 2,6,-1
 61 0 l 1,7,-1
 47 16 l 1,8,-1
 147 731 l 2,9,10
 150 753 150 753 161.5 760.5 c 128,-1,11
 173 768 173 768 203 768 c 0,12,13
 275 768 275 768 271 732 c 2,14,-1
 244 432 l 1,15,-1
 202 121 l 1,16,-1
 396 121 l 2,0,1
EndSplineSet
EndChar

StartChar: M
Encoding: 77 77 48
Width: 597
GlyphClass: 2
Flags: W
LayerCount: 2
Fore
SplineSet
147 -16 m 0,0,1
 47 -16 47 -16 52 21 c 2,2,-1
 152 730 l 2,3,4
 157 768 157 768 226 768 c 128,-1,5
 295 768 295 768 304 731 c 2,6,-1
 369 473 l 1,7,-1
 511 732 l 2,8,9
 522 754 522 754 534.5 761 c 128,-1,10
 547 768 547 768 576 768 c 0,11,12
 648 768 648 768 644 729 c 2,13,-1
 618 431 l 1,14,-1
 561 28 l 2,15,16
 557 -1 557 -1 550.5 -8.5 c 128,-1,17
 544 -16 544 -16 518 -16 c 128,-1,18
 492 -16 492 -16 476.5 -15 c 128,-1,19
 461 -14 461 -14 446 -10 c 0,20,21
 417 -4 417 -4 419 21 c 1,22,-1
 483 475 l 1,23,-1
 401 354 l 1,24,-1
 300 354 l 1,25,-1
 256 473 l 1,26,-1
 193 22 l 2,27,28
 189 -3 189 -3 182 -9.5 c 128,-1,29
 175 -16 175 -16 147 -16 c 0,0,1
EndSplineSet
EndChar

StartChar: N
Encoding: 78 78 49
Width: 543
GlyphClass: 2
Flags: W
LayerCount: 2
Fore
SplineSet
230 768 m 0,0,1
 245 768 245 768 253.5 767 c 128,-1,2
 262 766 262 766 274 757.5 c 128,-1,3
 286 749 286 749 294 733 c 1,4,-1
 413 313 l 1,5,-1
 466 732 l 2,6,7
 471 768 471 768 543 768 c 0,8,9
 573 768 573 768 582 761.5 c 128,-1,10
 591 755 591 755 591 745.5 c 128,-1,11
 591 736 591 736 591 732 c 2,12,-1
 565 431 l 1,13,-1
 507 21 l 2,14,15
 504 -3 504 -3 497 -9.5 c 128,-1,16
 490 -16 490 -16 462 -16 c 0,17,18
 397 -16 397 -16 389 21 c 1,19,-1
 251 436 l 1,20,-1
 194 22 l 2,21,22
 190 -3 190 -3 183 -9.5 c 128,-1,23
 176 -16 176 -16 148 -16 c 0,24,25
 48 -16 48 -16 54 24 c 2,26,-1
 153 731 l 2,27,28
 158 768 158 768 230 768 c 0,0,1
EndSplineSet
EndChar

StartChar: O
Encoding: 79 79 50
Width: 597
GlyphClass: 2
Flags: W
LayerCount: 2
Fore
SplineSet
243.5 734 m 128,-1,1
 303 768 303 768 393.5 768 c 128,-1,2
 484 768 484 768 529 750.5 c 128,-1,3
 574 733 574 733 600.5 688.5 c 128,-1,4
 627 644 627 644 627 568.5 c 128,-1,5
 627 493 627 493 612 371 c 1,6,7
 581 152 581 152 513 68 c 128,-1,8
 445 -16 445 -16 296 -16 c 128,-1,9
 147 -16 147 -16 102 68 c 0,10,11
 76 118 76 118 76 199.5 c 128,-1,12
 76 281 76 281 89 371 c 0,13,14
 111 531 111 531 147.5 615.5 c 128,-1,0
 184 700 184 700 243.5 734 c 128,-1,1
448 662 m 0,15,16
 408 662 408 662 383 658.5 c 128,-1,17
 358 655 358 655 337 641.5 c 128,-1,18
 316 628 316 628 304.5 611.5 c 128,-1,19
 293 595 293 595 282 558 c 0,20,21
 267 508 267 508 250 383 c 1,22,23
 228 232 228 232 228 180.5 c 128,-1,24
 228 129 228 129 234.5 112.5 c 128,-1,25
 241 96 241 96 258 96 c 0,26,27
 299 96 299 96 321.5 97.5 c 128,-1,28
 344 99 344 99 366.5 110.5 c 128,-1,29
 389 122 389 122 399 136 c 128,-1,30
 409 150 409 150 420 186 c 0,31,32
 445 263 445 263 469 474 c 0,33,34
 477 541 477 541 477 601.5 c 128,-1,35
 477 662 477 662 448 662 c 0,15,16
EndSplineSet
EndChar

StartChar: P
Encoding: 80 80 51
Width: 477
GlyphClass: 2
Flags: W
LayerCount: 2
Fore
SplineSet
336 768 m 0,0,1
 472 768 472 768 518 711 c 0,2,3
 551 670 551 670 551 594 c 0,4,5
 551 513 551 513 524 444 c 0,6,7
 495 367 495 367 446 335 c 0,8,9
 395 301 395 301 349 294 c 0,10,11
 290 284 290 284 215 284 c 1,12,-1
 179 23 l 2,13,14
 175 -3 175 -3 168 -9.5 c 128,-1,15
 161 -16 161 -16 133 -16 c 0,16,17
 48 -16 48 -16 54 22 c 2,18,-1
 156 752 l 1,19,20
 259 768 259 768 336 768 c 0,0,1
237 427 m 2,21,22
 237 421 237 421 245 421 c 2,23,-1
 252 421 l 2,24,25
 296 421 296 421 316 423 c 128,-1,26
 336 425 336 425 357 435.5 c 128,-1,27
 378 446 378 446 387 469 c 0,28,29
 405 514 405 514 405 554.5 c 128,-1,30
 405 595 405 595 396 622 c 128,-1,31
 387 649 387 649 369 649 c 0,32,33
 298 649 298 649 282 646 c 128,-1,34
 266 643 266 643 263 626 c 2,35,-1
 237 436 l 1,36,-1
 237 427 l 2,21,22
EndSplineSet
EndChar

StartChar: Q
Encoding: 81 81 52
Width: 589
GlyphClass: 2
Flags: W
LayerCount: 2
Fore
SplineSet
238.5 734 m 128,-1,1
 298 768 298 768 388.5 768 c 128,-1,2
 479 768 479 768 524 750.5 c 128,-1,3
 569 733 569 733 595.5 688.5 c 128,-1,4
 622 644 622 644 622 568.5 c 128,-1,5
 622 493 622 493 607 371 c 1,6,7
 576 152 576 152 508 68 c 128,-1,8
 440 -16 440 -16 291 -16 c 128,-1,9
 142 -16 142 -16 98 68 c 0,10,11
 71 118 71 118 71 199.5 c 128,-1,12
 71 281 71 281 84 371 c 0,13,14
 106 531 106 531 142.5 615.5 c 128,-1,0
 179 700 179 700 238.5 734 c 128,-1,1
443 662 m 0,15,16
 403 662 403 662 378 658.5 c 128,-1,17
 353 655 353 655 332 641.5 c 128,-1,18
 311 628 311 628 299.5 611.5 c 128,-1,19
 288 595 288 595 277 558 c 0,20,21
 262 508 262 508 245 383 c 1,22,23
 223 232 223 232 223 180.5 c 128,-1,24
 223 129 223 129 229.5 112.5 c 128,-1,25
 236 96 236 96 253 96 c 0,26,27
 294 96 294 96 316.5 97.5 c 128,-1,28
 339 99 339 99 361.5 110.5 c 128,-1,29
 384 122 384 122 394 136 c 128,-1,30
 404 150 404 150 416 186 c 0,31,32
 440 263 440 263 464 474 c 0,33,34
 472 541 472 541 472 601.5 c 128,-1,35
 472 662 472 662 443 662 c 0,15,16
473.5 -176 m 128,-1,37
 457 -187 457 -187 412 -187 c 128,-1,38
 367 -187 367 -187 263 -176 c 128,-1,39
 159 -165 159 -165 103 -165 c 1,40,-1
 94 -116 l 1,41,42
 103 -56 103 -56 173 -56 c 0,43,44
 223 -56 223 -56 323 -66 c 128,-1,45
 423 -76 423 -76 478 -76 c 1,46,-1
 495 -133 l 1,47,36
 490 -165 490 -165 473.5 -176 c 128,-1,37
EndSplineSet
EndChar

StartChar: R
Encoding: 82 82 53
Width: 532
GlyphClass: 2
Flags: W
LayerCount: 2
Fore
SplineSet
328 768 m 0,0,1
 467 768 467 768 513 716 c 0,2,3
 547 678 547 678 547 604 c 0,4,5
 547 576 547 576 542 544 c 0,6,7
 519 377 519 377 416 320 c 1,8,-1
 502 35 l 2,9,10
 508 14 508 14 508 5 c 128,-1,11
 508 -4 508 -4 506 -7 c 0,12,13
 500 -16 500 -16 470 -16 c 0,14,15
 373 -16 373 -16 362 22 c 2,16,-1
 285 286 l 1,17,18
 259 284 259 284 209 284 c 1,19,-1
 173 26 l 2,20,21
 169 -2 169 -2 162.5 -9 c 128,-1,22
 156 -16 156 -16 127 -16 c 0,23,24
 47 -16 47 -16 47 19 c 0,25,26
 47 21 47 21 47 24 c 2,27,-1
 149 752 l 1,28,29
 253 768 253 768 328 768 c 0,0,1
231 427 m 2,30,31
 231 421 231 421 238 421 c 2,32,-1
 245 421 l 2,33,34
 325 421 325 421 356 443.5 c 128,-1,35
 387 466 387 466 398 545 c 0,36,37
 401 563 401 563 401 583.5 c 128,-1,38
 401 604 401 604 393 621 c 1,39,40
 382 649 382 649 363 649 c 0,41,42
 291 649 291 649 275.5 646 c 128,-1,43
 260 643 260 643 257 626 c 2,44,-1
 231 436 l 1,45,-1
 231 427 l 2,30,31
EndSplineSet
EndChar

StartChar: S
Encoding: 83 83 54
Width: 522
GlyphClass: 2
Flags: W
LayerCount: 2
Fore
SplineSet
57 73 m 1,0,1
 42 96 42 96 42 110 c 128,-1,2
 42 124 42 124 69.5 148.5 c 128,-1,3
 97 173 97 173 104.5 175 c 128,-1,4
 112 177 112 177 119 177 c 128,-1,5
 126 177 126 177 141 168 c 1,6,7
 208 110 208 110 263.5 110 c 128,-1,8
 319 110 319 110 340 136.5 c 128,-1,9
 361 163 361 163 367 210 c 0,10,11
 368 216 368 216 368 221 c 0,12,13
 368 250 368 250 343.5 274 c 128,-1,14
 319 298 319 298 256 335 c 128,-1,15
 193 372 193 372 153.5 426 c 128,-1,16
 114 480 114 480 114 531 c 0,17,18
 114 542 114 542 116 553 c 0,19,20
 132 665 132 665 197.5 716.5 c 128,-1,21
 263 768 263 768 376 768 c 0,22,23
 445 768 445 768 507 735 c 0,24,25
 520 729 520 729 525 725 c 0,26,27
 537 717 537 717 537 707 c 128,-1,28
 537 697 537 697 531 688 c 1,29,30
 504 634 504 634 497 629 c 128,-1,31
 490 624 490 624 480 624 c 128,-1,32
 470 624 470 624 426.5 640.5 c 128,-1,33
 383 657 383 657 352 657 c 128,-1,34
 321 657 321 657 297 635 c 128,-1,35
 273 613 273 613 267 572 c 0,36,37
 266 566 266 566 266 560 c 0,38,39
 266 528 266 528 295.5 498 c 128,-1,40
 325 468 325 468 394 433 c 1,41,42
 468 392 468 392 497 353 c 128,-1,43
 526 314 526 314 526 263 c 0,44,45
 526 247 526 247 524 230 c 0,46,47
 489 -16 489 -16 281 -16 c 0,48,49
 126 -16 126 -16 57 73 c 1,0,1
EndSplineSet
EndChar

StartChar: T
Encoding: 84 84 55
Width: 470
GlyphClass: 2
Flags: W
LayerCount: 2
Fore
SplineSet
509 752 m 2,0,1
 563 752 563 752 563 725 c 0,2,3
 563 632 563 632 502 632 c 2,4,-1
 390 633 l 1,5,-1
 371 430 l 1,6,-1
 315 23 l 2,7,8
 311 -3 311 -3 304 -9.5 c 128,-1,9
 297 -16 297 -16 269 -16 c 0,10,11
 168 -16 168 -16 173 21 c 2,12,-1
 259 632 l 1,13,-1
 134 632 l 1,14,15
 110 633 110 633 105.5 642.5 c 128,-1,16
 101 652 101 652 101 668 c 0,17,18
 101 752 101 752 145 752 c 2,19,-1
 509 752 l 2,0,1
EndSplineSet
EndChar

StartChar: U
Encoding: 85 85 56
Width: 550
GlyphClass: 2
Flags: W
LayerCount: 2
Fore
SplineSet
246 109 m 0,0,1
 281 109 281 109 300.5 110.5 c 128,-1,2
 320 112 320 112 339 122.5 c 128,-1,3
 358 133 358 133 367 147 c 128,-1,4
 376 161 376 161 386.5 194.5 c 128,-1,5
 397 228 397 228 403 265 c 128,-1,6
 409 302 409 302 419 370 c 2,7,-1
 468 722 l 2,8,9
 472 750 472 750 485 759 c 128,-1,10
 498 768 498 768 536 768 c 128,-1,11
 574 768 574 768 585 757.5 c 128,-1,12
 596 747 596 747 596 728 c 128,-1,13
 596 709 596 709 595 698 c 2,14,-1
 569 429 l 1,15,16
 546 252 546 252 511 157 c 128,-1,17
 476 62 476 62 421.5 23 c 128,-1,18
 367 -16 367 -16 274 -16 c 0,19,20
 140 -16 140 -16 101 68 c 0,21,22
 79 115 79 115 79 194 c 128,-1,23
 79 273 79 273 93 370 c 2,24,-1
 139 700 l 2,25,26
 145 743 145 743 159 755.5 c 128,-1,27
 173 768 173 768 212 768 c 128,-1,28
 251 768 251 768 261 756.5 c 128,-1,29
 271 745 271 745 271 725 c 128,-1,30
 271 705 271 705 270 690 c 2,31,-1
 248 431 l 1,32,33
 222 248 222 248 222 178.5 c 128,-1,34
 222 109 222 109 246 109 c 0,0,1
EndSplineSet
EndChar

StartChar: V
Encoding: 86 86 57
Width: 576
GlyphClass: 2
Flags: W
LayerCount: 2
Fore
SplineSet
596 768 m 0,0,1
 660 768 660 768 660 742 c 0,2,3
 660 736 660 736 657 729 c 2,4,-1
 389 21 l 2,5,6
 380 -2 380 -2 371.5 -9 c 128,-1,7
 363 -16 363 -16 323 -16 c 0,8,9
 229 -16 229 -16 226 22 c 1,10,-1
 131 731 l 2,11,12
 127 768 127 768 203 768 c 0,13,14
 236 768 236 768 253.5 759.5 c 128,-1,15
 271 751 271 751 274 727 c 2,16,-1
 335 194 l 1,17,-1
 530 732 l 2,18,19
 537 753 537 753 551 760.5 c 128,-1,20
 565 768 565 768 596 768 c 0,0,1
EndSplineSet
EndChar

StartChar: W
Encoding: 87 87 58
Width: 948
GlyphClass: 2
Flags: W
LayerCount: 2
Fore
SplineSet
140 734 m 2,0,1
 136 768 136 768 207 768 c 128,-1,2
 278 768 278 768 282 731 c 2,3,-1
 342 194 l 1,4,-1
 499 632 l 2,5,6
 506 652 506 652 520 659 c 128,-1,7
 534 666 534 666 565 666 c 0,8,9
 645 666 645 666 650 623 c 2,10,-1
 698 194 l 1,11,-1
 892 731 l 2,12,13
 900 753 900 753 914 760.5 c 128,-1,14
 928 768 928 768 966 768 c 128,-1,15
 1004 768 1004 768 1014 763.5 c 128,-1,16
 1024 759 1024 759 1024 750 c 128,-1,17
 1024 741 1024 741 1021 731 c 2,18,-1
 754 20 l 2,19,20
 746 -1 746 -1 735.5 -8.5 c 128,-1,21
 725 -16 725 -16 694.5 -16 c 128,-1,22
 664 -16 664 -16 629.5 -7.5 c 128,-1,23
 595 1 595 1 592 20 c 2,24,-1
 536 375 l 1,25,-1
 397 22 l 2,26,27
 388 0 388 0 377 -8 c 128,-1,28
 366 -16 366 -16 336 -16 c 128,-1,29
 306 -16 306 -16 271.5 -7.5 c 128,-1,30
 237 1 237 1 235 20 c 2,31,-1
 140 734 l 2,0,1
EndSplineSet
EndChar

StartChar: X
Encoding: 88 88 59
Width: 598
GlyphClass: 2
Flags: W
LayerCount: 2
Fore
SplineSet
480 731 m 1,0,1
 497 768 497 768 563 768 c 128,-1,2
 629 768 629 768 629 745 c 0,3,4
 629 737 629 737 623 727 c 2,5,-1
 430 414 l 1,6,-1
 564 21 l 2,7,8
 572 -2 572 -2 565.5 -9 c 128,-1,9
 559 -16 559 -16 523.5 -16 c 128,-1,10
 488 -16 488 -16 449 -7.5 c 128,-1,11
 410 1 410 1 405 22 c 2,12,-1
 338 282 l 1,13,-1
 198 22 l 2,14,15
 185 -1 185 -1 174.5 -8.5 c 128,-1,16
 164 -16 164 -16 144 -16 c 0,17,18
 56 -16 56 -16 39 6 c 0,19,20
 36 9 36 9 36 13 c 128,-1,21
 36 17 36 17 39 21 c 2,22,-1
 284 415 l 1,23,-1
 179 731 l 2,24,25
 178 735 178 735 178 739 c 0,26,27
 178 768 178 768 246.5 768 c 128,-1,28
 315 768 315 768 322 731 c 1,29,-1
 372 522 l 1,30,-1
 480 731 l 1,0,1
EndSplineSet
EndChar

StartChar: Y
Encoding: 89 89 60
Width: 575
GlyphClass: 2
Flags: W
LayerCount: 2
Fore
SplineSet
316 -16 m 0,0,1
 245 -16 245 -16 245 17 c 0,2,3
 245 19 245 19 245 22 c 2,4,-1
 291 349 l 1,5,-1
 126 732 l 2,6,7
 124 738 124 738 124 743 c 0,8,9
 124 768 124 768 191.5 768 c 128,-1,10
 259 768 259 768 269 731 c 1,11,-1
 373 492 l 1,12,-1
 526 734 l 1,13,14
 536 754 536 754 551 761 c 128,-1,15
 566 768 566 768 596 768 c 0,16,17
 661 768 661 768 661 745 c 0,18,19
 661 739 661 739 656 731 c 2,20,-1
 408 349 l 1,21,-1
 361 21 l 2,22,23
 358 -3 358 -3 351 -9.5 c 128,-1,24
 344 -16 344 -16 316 -16 c 0,0,1
EndSplineSet
EndChar

StartChar: Z
Encoding: 90 90 61
Width: 530
GlyphClass: 2
Flags: W
LayerCount: 2
Fore
SplineSet
125 668 m 0,0,1
 125 752 125 752 172 752 c 2,2,-1
 574 752 l 1,3,-1
 588 736 l 1,4,-1
 576 648 l 1,5,-1
 225 121 l 1,6,-1
 462 121 l 1,7,8
 494 120 494 120 504.5 112.5 c 128,-1,9
 515 105 515 105 512 84.5 c 128,-1,10
 509 64 509 64 503.5 47 c 128,-1,11
 498 30 498 30 484 15 c 128,-1,12
 470 0 470 0 450 0 c 2,13,-1
 60 0 l 1,14,-1
 46 16 l 1,15,-1
 61 122 l 1,16,-1
 416 632 l 1,17,-1
 160 632 l 1,18,19
 134 633 134 633 129.5 642.5 c 128,-1,20
 125 652 125 652 125 668 c 0,0,1
EndSplineSet
EndChar

StartChar: bracketleft
Encoding: 91 91 62
Width: 369
GlyphClass: 2
Flags: W
LayerCount: 2
Fore
SplineSet
299 -140 m 1,0,-1
 39 -140 l 1,1,-1
 25 -124 l 1,2,-1
 175 889 l 1,3,-1
 194 905 l 1,4,-1
 454 905 l 1,5,-1
 467 889 l 1,6,-1
 455 797 l 1,7,-1
 436 781 l 1,8,-1
 271 781 l 1,9,-1
 240 431 l 1,10,-1
 179 -16 l 1,11,-1
 316 -16 l 1,12,-1
 330 -32 l 1,13,-1
 317 -124 l 1,14,-1
 299 -140 l 1,0,-1
EndSplineSet
EndChar

StartChar: backslash
Encoding: 92 92 63
Width: 372
GlyphClass: 2
Flags: W
LayerCount: 2
Fore
SplineSet
240 876 m 1,0,-1
 347 -114 l 1,1,-1
 343 -146 l 1,2,-1
 207 -146 l 1,3,-1
 120 769 l 1,4,-1
 135 876 l 1,5,-1
 240 876 l 1,0,-1
EndSplineSet
EndChar

StartChar: bracketright
Encoding: 93 93 64
Width: 368
GlyphClass: 2
Flags: W
LayerCount: 2
Fore
SplineSet
291 -140 m 1,0,-1
 31 -140 l 1,1,-1
 17 -124 l 1,2,-1
 30 -32 l 1,3,-1
 48 -16 l 1,4,-1
 184 -16 l 1,5,-1
 301 781 l 1,6,-1
 152 781 l 1,7,-1
 139 797 l 1,8,-1
 151 889 l 1,9,-1
 170 905 l 1,10,-1
 414 905 l 1,11,-1
 427 889 l 1,12,-1
 383 431 l 1,13,-1
 309 -124 l 1,14,-1
 291 -140 l 1,0,-1
EndSplineSet
EndChar

StartChar: asciicircum
Encoding: 94 94 65
Width: 377
GlyphClass: 2
Flags: W
LayerCount: 2
Fore
SplineSet
431 556 m 1,0,-1
 387 524 l 1,1,-1
 278 637 l 1,2,-1
 137 524 l 1,3,-1
 103 556 l 1,4,-1
 123 610 l 1,5,-1
 242 732 l 1,6,-1
 294 752 l 1,7,-1
 340 732 l 1,8,-1
 425 610 l 1,9,-1
 431 556 l 1,0,-1
EndSplineSet
EndChar

StartChar: underscore
Encoding: 95 95 66
Width: 487
GlyphClass: 2
Flags: W
LayerCount: 2
Fore
SplineSet
426 0 m 1,0,-1
 45 0 l 1,1,-1
 62 124 l 1,2,-1
 443 124 l 1,3,-1
 457 108 l 1,4,-1
 444 16 l 1,5,-1
 426 0 l 1,0,-1
EndSplineSet
EndChar

StartChar: grave
Encoding: 96 96 67
Width: 240
GlyphClass: 2
Flags: W
LayerCount: 2
Fore
SplineSet
290 557 m 1,0,-1
 241 536 l 1,1,-1
 105 708 l 1,2,-1
 221 768 l 1,3,-1
 259 736 l 1,4,-1
 299 612 l 1,5,-1
 290 557 l 1,0,-1
EndSplineSet
EndChar

StartChar: a
Encoding: 97 97 68
Width: 435
GlyphClass: 2
Flags: W
LayerCount: 2
Fore
SplineSet
144 -16 m 0,0,1
 70 -16 70 -16 44 44 c 0,2,3
 30 78 30 78 30 133.5 c 128,-1,4
 30 189 30 189 39 256 c 0,5,6
 61 406 61 406 112 459 c 128,-1,7
 163 512 163 512 283 512 c 2,8,-1
 331 512 l 1,9,-1
 347 504 l 1,10,11
 349 520 349 520 384 520 c 128,-1,12
 419 520 419 520 441.5 515.5 c 128,-1,13
 464 511 464 511 464 504 c 2,14,-1
 394 0 l 2,15,16
 393 -6 393 -6 391 -8 c 0,17,18
 385 -16 385 -16 362 -16 c 128,-1,19
 339 -16 339 -16 328 -15 c 128,-1,20
 317 -14 317 -14 308 -12.5 c 128,-1,21
 299 -11 299 -11 292 -10 c 0,22,23
 277 -6 277 -6 279 0 c 1,24,-1
 264 31 l 1,25,26
 233 12 233 12 219 4 c 0,27,28
 183 -16 183 -16 144 -16 c 0,0,1
215.5 385.5 m 128,-1,30
 198 355 198 355 185 263 c 128,-1,31
 172 171 172 171 169.5 143.5 c 128,-1,32
 167 116 167 116 167 98 c 128,-1,33
 167 80 167 80 175 80 c 0,34,35
 211 80 211 80 276 116 c 1,36,-1
 318 416 l 1,37,-1
 270 416 l 2,38,29
 233 416 233 416 215.5 385.5 c 128,-1,30
EndSplineSet
Substitution2: "'smcp' Lowercase to Small Capitals in Latin lookup 1 subtable" A_smcp
EndChar

StartChar: b
Encoding: 98 98 69
Width: 451
GlyphClass: 2
Flags: W
LayerCount: 2
Fore
SplineSet
298 512 m 2,0,1
 419 512 419 512 456 458 c 0,2,3
 478 425 478 425 478 368.5 c 128,-1,4
 478 312 478 312 470 256 c 0,5,6
 449 105 449 105 406 44.5 c 128,-1,7
 363 -16 363 -16 289 -16 c 0,8,9
 239 -16 239 -16 170 -4 c 2,10,-1
 147 0 l 1,11,12
 117 -16 117 -16 42 -16 c 1,13,-1
 150 752 l 2,14,15
 152 768 152 768 187 768 c 128,-1,16
 222 768 222 768 244.5 763.5 c 128,-1,17
 267 759 267 759 267 752 c 2,18,-1
 250 512 l 1,19,-1
 298 512 l 2,0,1
286 80 m 2,20,21
 302 80 302 80 326 256 c 0,22,23
 335 318 335 318 335 347 c 128,-1,24
 335 376 335 376 331 387 c 0,25,26
 322 416 322 416 285 416 c 2,27,-1
 237 416 l 1,28,-1
 190 80 l 1,29,-1
 286 80 l 2,20,21
EndSplineSet
Substitution2: "'smcp' Lowercase to Small Capitals in Latin lookup 1 subtable" B_smcp
EndChar

StartChar: c
Encoding: 99 99 70
Width: 411
GlyphClass: 2
Flags: W
LayerCount: 2
Fore
SplineSet
438 478 m 1,0,1
 443 475 443 475 443 463 c 128,-1,2
 443 451 443 451 431 424 c 128,-1,3
 419 397 419 397 411 389.5 c 128,-1,4
 403 382 403 382 396 384 c 1,5,-1
 395 384 l 1,6,-1
 362 398 l 1,7,8
 336 411 336 411 294 411 c 128,-1,9
 252 411 252 411 236 377 c 128,-1,10
 220 343 220 343 209.5 266 c 128,-1,11
 199 189 199 189 199 158.5 c 128,-1,12
 199 128 199 128 202 115 c 0,13,14
 212 82 212 82 253 82 c 0,15,16
 312 82 312 82 346 89 c 128,-1,17
 380 96 380 96 383 96.5 c 128,-1,18
 386 97 386 97 389 94 c 0,19,20
 397 85 397 85 391 56 c 1,21,22
 386 4 386 4 368 0 c 0,23,24
 304 -16 304 -16 243 -16 c 0,25,26
 122 -16 122 -16 86 42 c 0,27,28
 63 78 63 78 63 136 c 128,-1,29
 63 194 63 194 72.5 263.5 c 128,-1,30
 82 333 82 333 98.5 382.5 c 128,-1,31
 115 432 115 432 145 461.5 c 128,-1,32
 175 491 175 491 214 501.5 c 128,-1,33
 253 512 253 512 322.5 512 c 128,-1,34
 392 512 392 512 437 478 c 1,35,-1
 438 478 l 1,0,1
EndSplineSet
Substitution2: "'smcp' Lowercase to Small Capitals in Latin lookup 1 subtable" C_smcp
EndChar

StartChar: d
Encoding: 100 100 71
Width: 451
GlyphClass: 2
Flags: W
LayerCount: 2
Fore
SplineSet
156 -16 m 0,0,1
 82 -16 82 -16 56 44 c 0,2,3
 42 78 42 78 42 133.5 c 128,-1,4
 42 189 42 189 51 256 c 0,5,6
 73 406 73 406 124 459 c 128,-1,7
 175 512 175 512 295 512 c 2,8,-1
 343 512 l 1,9,-1
 377 752 l 2,10,11
 379 768 379 768 414 768 c 128,-1,12
 449 768 449 768 471.5 763.5 c 128,-1,13
 494 759 494 759 494 752 c 2,14,-1
 466 433 l 1,15,-1
 406 0 l 2,16,17
 405 -6 405 -6 403 -8 c 0,18,19
 397 -16 397 -16 374 -16 c 128,-1,20
 351 -16 351 -16 340 -15 c 128,-1,21
 329 -14 329 -14 320 -12.5 c 128,-1,22
 311 -11 311 -11 304 -10 c 0,23,24
 289 -6 289 -6 291 0 c 1,25,-1
 276 31 l 1,26,27
 245 12 245 12 231 4 c 0,28,29
 195 -16 195 -16 156 -16 c 0,0,1
227.5 385.5 m 128,-1,31
 210 355 210 355 197 263 c 128,-1,32
 184 171 184 171 181.5 143.5 c 128,-1,33
 179 116 179 116 179 98 c 128,-1,34
 179 80 179 80 187 80 c 0,35,36
 223 80 223 80 288 116 c 1,37,-1
 330 416 l 1,38,-1
 282 416 l 2,39,30
 245 416 245 416 227.5 385.5 c 128,-1,31
EndSplineSet
Substitution2: "'smcp' Lowercase to Small Capitals in Latin lookup 1 subtable" D_smcp
EndChar

StartChar: e
Encoding: 101 101 72
Width: 454
GlyphClass: 2
Flags: W
LayerCount: 2
Fore
SplineSet
223 -16 m 0,0,1
 116 -16 116 -16 83 42 c 0,2,3
 63 77 63 77 63 134.5 c 128,-1,4
 63 192 63 192 71 250 c 0,5,6
 93 408 93 408 140 460 c 128,-1,7
 187 512 187 512 287 512 c 128,-1,8
 387 512 387 512 422.5 479 c 128,-1,9
 458 446 458 446 458 351 c 0,10,11
 458 288 458 288 433 258 c 0,12,13
 403 223 403 223 211 223 c 1,14,15
 203 155 203 155 203 132.5 c 128,-1,16
 203 110 203 110 204 104 c 0,17,18
 209 82 209 82 237 82 c 0,19,20
 366 82 366 82 418 95 c 0,21,22
 419 95 419 95 422.5 96 c 128,-1,23
 426 97 426 97 429 94 c 0,24,25
 437 85 437 85 431 56 c 1,26,27
 426 4 426 4 408 0 c 1,28,29
 364 -16 364 -16 223 -16 c 0,0,1
327 356 m 0,30,31
 327 419 327 419 316 419 c 0,32,33
 282 419 282 419 258.5 409 c 128,-1,34
 235 399 235 399 233 381 c 2,35,-1
 222 303 l 1,36,37
 291 303 291 303 309 312.5 c 128,-1,38
 327 322 327 322 327 356 c 0,30,31
EndSplineSet
Substitution2: "'smcp' Lowercase to Small Capitals in Latin lookup 1 subtable" E_smcp
EndChar

StartChar: f
Encoding: 102 102 73
Width: 369
GlyphClass: 2
Flags: W
LayerCount: 2
Fore
SplineSet
77 416 m 2,0,1
 64 416 64 416 64 424 c 2,2,-1
 64 434 l 1,3,4
 70 476 70 476 86 480 c 2,5,-1
 168 496 l 1,6,7
 191 658 191 658 241 713 c 128,-1,8
 291 768 291 768 413 768 c 0,9,10
 488 768 488 768 533 734 c 1,11,-1
 534 734 l 1,12,13
 540 730 540 730 540 719.5 c 128,-1,14
 540 709 540 709 531 685.5 c 128,-1,15
 522 662 522 662 512 648.5 c 128,-1,16
 502 635 502 635 495 638 c 0,17,18
 493 638 493 638 493 639 c 2,19,-1
 458 654 l 1,20,21
 432 667 432 667 390.5 667 c 128,-1,22
 349 667 349 667 332 629.5 c 128,-1,23
 315 592 315 592 301 496 c 1,24,-1
 397 496 l 2,25,26
 409 496 409 496 409 473 c 0,27,28
 409 466 409 466 408 456 c 0,29,30
 402 416 402 416 386 416 c 2,31,-1
 298 416 l 1,32,-1
 208 -224 l 2,33,34
 207 -230 207 -230 206 -232 c 0,35,36
 201 -240 201 -240 167 -240 c 128,-1,37
 133 -240 133 -240 99.5 -235 c 128,-1,38
 66 -230 66 -230 67 -224 c 2,39,-1
 157 416 l 1,40,-1
 77 416 l 2,0,1
EndSplineSet
Substitution2: "'smcp' Lowercase to Small Capitals in Latin lookup 1 subtable" F_smcp
EndChar

StartChar: g
Encoding: 103 103 74
Width: 486
GlyphClass: 2
Flags: W
LayerCount: 2
Fore
SplineSet
53 -125 m 1,0,1
 143 -135 143 -135 196 -135 c 128,-1,2
 249 -135 249 -135 262.5 -127 c 128,-1,3
 276 -119 276 -119 282 -81 c 1,4,-1
 292 16 l 1,5,6
 241 -15 241 -15 164 -15 c 128,-1,7
 87 -15 87 -15 60 38 c 0,8,9
 43 71 43 71 43 117.5 c 128,-1,10
 43 164 43 164 49 209 c 0,11,12
 67 335 67 335 95 399 c 128,-1,13
 123 463 123 463 169.5 487.5 c 128,-1,14
 216 512 216 512 299 512 c 2,15,-1
 361 512 l 2,16,17
 411 512 411 512 463 498 c 1,18,-1
 479 493 l 1,19,-1
 400 -81 l 1,20,21
 391 -165 391 -165 341.5 -202.5 c 128,-1,22
 292 -240 292 -240 174 -240 c 0,23,24
 118 -240 118 -240 38 -224 c 0,25,26
 30 -222 30 -222 28.5 -217 c 128,-1,27
 27 -212 27 -212 27 -204 c 128,-1,28
 27 -196 27 -196 29 -178 c 0,29,30
 37 -125 37 -125 51 -125 c 2,31,32
 51 -125 51 -125 52 -125 c 2,33,-1
 53 -125 l 1,0,1
187.5 169 m 128,-1,35
 185 151 185 151 184 134.5 c 128,-1,36
 183 118 183 118 183 99.5 c 128,-1,37
 183 81 183 81 191 81 c 0,38,39
 241 81 241 81 306 117 c 1,40,-1
 348 417 l 1,41,-1
 286 417 l 2,42,43
 260 417 260 417 246 404 c 0,44,45
 217 377 217 377 193 209 c 0,46,34
 190 187 190 187 187.5 169 c 128,-1,35
EndSplineSet
Substitution2: "'smcp' Lowercase to Small Capitals in Latin lookup 1 subtable" G_smcp
EndChar

StartChar: h
Encoding: 104 104 75
Width: 464
GlyphClass: 2
Flags: W
LayerCount: 2
Fore
SplineSet
375 512 m 0,0,1
 449 512 449 512 478 466 c 1,2,3
 495 437 495 437 495 392 c 128,-1,4
 495 347 495 347 489 304 c 2,5,-1
 447 0 l 2,6,7
 446 -6 446 -6 444 -8 c 0,8,9
 438 -16 438 -16 410.5 -16 c 128,-1,10
 383 -16 383 -16 360 -14 c 0,11,12
 302 -9 302 -9 304 0 c 2,13,-1
 345 304 l 1,14,15
 354 360 354 360 354 388 c 128,-1,16
 354 416 354 416 345 416 c 0,17,18
 309 416 309 416 244 380 c 1,19,-1
 191 0 l 2,20,21
 190 -6 190 -6 188 -8 c 0,22,23
 182 -16 182 -16 154.5 -16 c 128,-1,24
 127 -16 127 -16 104 -14 c 0,25,26
 45 -9 45 -9 47 0 c 2,27,-1
 152 752 l 2,28,29
 154 768 154 768 189.5 768 c 128,-1,30
 225 768 225 768 250.5 763.5 c 128,-1,31
 276 759 276 759 276 752 c 2,32,-1
 254 463 l 1,33,34
 336 512 336 512 375 512 c 0,0,1
EndSplineSet
Substitution2: "'smcp' Lowercase to Small Capitals in Latin lookup 1 subtable" H_smcp
EndChar

StartChar: i
Encoding: 105 105 76
Width: 227
GlyphClass: 2
Flags: W
LayerCount: 2
Fore
SplineSet
118 496 m 2,0,1
 120 512 120 512 156 512 c 128,-1,2
 192 512 192 512 223.5 507 c 128,-1,3
 255 502 255 502 254 496 c 2,4,-1
 185 0 l 2,5,6
 184 -6 184 -6 182 -8 c 0,7,8
 176 -16 176 -16 149 -16 c 128,-1,9
 122 -16 122 -16 100 -14 c 0,10,11
 47 -9 47 -9 49 0 c 2,12,-1
 118 496 l 2,0,1
218 768 m 0,13,14
 281 768 281 768 281 712 c 0,15,16
 281 705 281 705 280 696 c 0,17,18
 270 624 270 624 198 624 c 0,19,20
 135 624 135 624 135 680 c 0,21,22
 135 687 135 687 136 696 c 0,23,24
 146 768 146 768 218 768 c 0,13,14
EndSplineSet
Substitution2: "'smcp' Lowercase to Small Capitals in Latin lookup 1 subtable" I_smcp
EndChar

StartChar: j
Encoding: 106 106 77
Width: 216
GlyphClass: 2
Flags: W
LayerCount: 2
Fore
SplineSet
110 496 m 2,0,1
 112 512 112 512 148 512 c 128,-1,2
 184 512 184 512 214.5 507 c 128,-1,3
 245 502 245 502 244 496 c 2,4,-1
 143 -224 l 2,5,6
 142 -230 142 -230 140 -232 c 0,7,8
 136 -240 136 -240 103.5 -240 c 128,-1,9
 71 -240 71 -240 48 -235.5 c 128,-1,10
 25 -231 25 -231 25 -224 c 2,11,-1
 41 0 l 1,12,-1
 110 496 l 2,0,1
213 768 m 0,13,14
 276 768 276 768 276 712 c 0,15,16
 276 705 276 705 275 696 c 0,17,18
 265 624 265 624 193 624 c 0,19,20
 130 624 130 624 130 680 c 0,21,22
 130 687 130 687 131 696 c 0,23,24
 141 768 141 768 213 768 c 0,13,14
EndSplineSet
Substitution2: "'smcp' Lowercase to Small Capitals in Latin lookup 1 subtable" J_smcp
EndChar

StartChar: k
Encoding: 107 107 78
Width: 486
GlyphClass: 2
Flags: W
LayerCount: 2
Fore
SplineSet
429 -18 m 2,0,-1
 385 -19 l 2,1,2
 341 -19 341 -19 336 0 c 2,3,-1
 249 302 l 1,4,5
 293 305 293 305 318 321 c 0,6,7
 351 342 351 342 351 395 c 0,8,9
 351 418 351 418 344.5 427 c 128,-1,10
 338 436 338 436 332 436 c 0,11,12
 265 436 265 436 243 434 c 1,13,-1
 243 431 l 1,14,-1
 183 0 l 2,15,16
 182 -6 182 -6 180 -8 c 0,17,18
 174 -16 174 -16 147 -16 c 128,-1,19
 120 -16 120 -16 98 -14 c 0,20,21
 45 -9 45 -9 47 0 c 2,22,-1
 152 752 l 2,23,24
 154 768 154 768 189 768 c 128,-1,25
 224 768 224 768 246.5 763.5 c 128,-1,26
 269 759 269 759 269 752 c 2,27,-1
 251 528 l 1,28,29
 280 531 280 531 311 531 c 0,30,31
 408 531 408 531 440 495 c 0,32,33
 464 469 464 469 464 417 c 0,34,35
 464 398 464 398 461 375 c 0,36,37
 445 260 445 260 390 224 c 1,38,39
 429 101 429 101 439.5 70.5 c 128,-1,40
 450 40 450 40 455 25 c 2,41,-1
 462 6 l 2,42,43
 463 1 463 1 463 -1 c 0,44,45
 460 -18 460 -18 429 -18 c 2,0,-1
EndSplineSet
Substitution2: "'smcp' Lowercase to Small Capitals in Latin lookup 1 subtable" K_smcp
EndChar

StartChar: l
Encoding: 108 108 79
Width: 222
GlyphClass: 2
Flags: W
LayerCount: 2
Fore
SplineSet
167.5 -13.5 m 128,-1,1
 158 -16 158 -16 138.5 -16 c 128,-1,2
 119 -16 119 -16 98 -14 c 0,3,4
 45 -9 45 -9 47 0 c 2,5,-1
 152 752 l 2,6,7
 154 768 154 768 189 768 c 128,-1,8
 224 768 224 768 246.5 763.5 c 128,-1,9
 269 759 269 759 269 752 c 2,10,-1
 242 431 l 1,11,-1
 182 0 l 2,12,13
 181 -6 181 -6 179 -8.5 c 128,-1,0
 177 -11 177 -11 167.5 -13.5 c 128,-1,1
EndSplineSet
Substitution2: "'smcp' Lowercase to Small Capitals in Latin lookup 1 subtable" L_smcp
EndChar

StartChar: m
Encoding: 109 109 80
Width: 745
GlyphClass: 2
Flags: W
LayerCount: 2
Fore
SplineSet
610 388 m 128,-1,1
 610 416 610 416 601 416 c 0,2,3
 567 416 567 416 494 377 c 1,4,5
 494 338 494 338 489 304 c 2,6,-1
 447 0 l 2,7,8
 446 -6 446 -6 444 -8 c 0,9,10
 438 -16 438 -16 410.5 -16 c 128,-1,11
 383 -16 383 -16 360 -14 c 0,12,13
 301 -9 301 -9 303 0 c 2,14,-1
 350 341 l 2,15,16
 354 371 354 371 354 393.5 c 128,-1,17
 354 416 354 416 345 416 c 0,18,19
 309 416 309 416 244 380 c 1,20,-1
 191 0 l 2,21,22
 190 -6 190 -6 188 -8 c 0,23,24
 182 -16 182 -16 154.5 -16 c 128,-1,25
 127 -16 127 -16 104 -14 c 0,26,27
 45 -9 45 -9 47 0 c 2,28,-1
 116 496 l 2,29,30
 118 512 118 512 169.5 512 c 128,-1,31
 221 512 221 512 228 496 c 0,32,33
 228 494 228 494 229 494 c 2,34,-1
 243 456 l 1,35,36
 334 512 334 512 375 512 c 0,37,38
 463 512 463 512 485 448 c 1,39,40
 587 512 587 512 631 512 c 0,41,42
 705 512 705 512 734 466 c 1,43,44
 751 437 751 437 751 392 c 128,-1,45
 751 347 751 347 745 304 c 2,46,-1
 703 0 l 2,47,48
 702 -6 702 -6 700 -8 c 0,49,50
 694 -16 694 -16 666.5 -16 c 128,-1,51
 639 -16 639 -16 616 -14 c 0,52,53
 557 -9 557 -9 559 0 c 2,54,-1
 601 304 l 1,55,0
 610 360 610 360 610 388 c 128,-1,1
EndSplineSet
Substitution2: "'smcp' Lowercase to Small Capitals in Latin lookup 1 subtable" M_smcp
EndChar

StartChar: n
Encoding: 110 110 81
Width: 488
GlyphClass: 2
Flags: W
LayerCount: 2
Fore
SplineSet
375 512 m 0,0,1
 449 512 449 512 478 466 c 1,2,3
 495 437 495 437 495 392 c 128,-1,4
 495 347 495 347 489 304 c 2,5,-1
 447 0 l 2,6,7
 446 -6 446 -6 444 -8 c 0,8,9
 438 -16 438 -16 410.5 -16 c 128,-1,10
 383 -16 383 -16 360 -14 c 0,11,12
 302 -9 302 -9 304 0 c 2,13,-1
 345 304 l 1,14,15
 354 360 354 360 354 388 c 128,-1,16
 354 416 354 416 345 416 c 0,17,18
 309 416 309 416 244 380 c 1,19,-1
 191 0 l 2,20,21
 190 -6 190 -6 188 -8 c 0,22,23
 182 -16 182 -16 154.5 -16 c 128,-1,24
 127 -16 127 -16 104 -14 c 0,25,26
 45 -9 45 -9 47 0 c 2,27,-1
 116 496 l 2,28,29
 118 512 118 512 169.5 512 c 128,-1,30
 221 512 221 512 228 496 c 0,31,32
 228 494 228 494 229 494 c 2,33,-1
 243 456 l 1,34,35
 334 512 334 512 375 512 c 0,0,1
EndSplineSet
Substitution2: "'smcp' Lowercase to Small Capitals in Latin lookup 1 subtable" N_smcp
EndChar

StartChar: o
Encoding: 111 111 82
Width: 474
GlyphClass: 2
Flags: W
LayerCount: 2
Fore
SplineSet
308 512 m 0,0,1
 356 512 356 512 386.5 505.5 c 128,-1,2
 417 499 417 499 440 482 c 128,-1,3
 463 465 463 465 471 436 c 0,4,5
 481 397 481 397 481 350.5 c 128,-1,6
 481 304 481 304 472 250 c 1,7,8
 451 100 451 100 399.5 42 c 128,-1,9
 348 -16 348 -16 234 -16 c 128,-1,10
 120 -16 120 -16 86 42 c 1,11,12
 64 77 64 77 64 135 c 128,-1,13
 64 193 64 193 72 250 c 0,14,15
 94 409 94 409 142.5 460.5 c 128,-1,16
 191 512 191 512 308 512 c 0,0,1
241 388.5 m 128,-1,18
 223 361 223 361 210.5 269.5 c 128,-1,19
 198 178 198 178 198 130 c 128,-1,20
 198 82 198 82 216 82 c 0,21,22
 249 82 249 82 264.5 86 c 128,-1,23
 280 90 280 90 293.5 109 c 128,-1,24
 307 128 307 128 313 157.5 c 128,-1,25
 319 187 319 187 328.5 253 c 128,-1,26
 338 319 338 319 338 367.5 c 128,-1,27
 338 416 338 416 319 416 c 0,28,17
 259 416 259 416 241 388.5 c 128,-1,18
EndSplineSet
Substitution2: "'smcp' Lowercase to Small Capitals in Latin lookup 1 subtable" O_smcp
EndChar

StartChar: p
Encoding: 112 112 83
Width: 453
GlyphClass: 2
Flags: W
LayerCount: 2
Fore
SplineSet
364 512 m 0,0,1
 438 512 438 512 464 452 c 0,2,3
 478 418 478 418 478 362.5 c 128,-1,4
 478 307 478 307 469 240 c 0,5,6
 448 91 448 91 397 37.5 c 128,-1,7
 346 -16 346 -16 225 -16 c 2,8,-1
 177 -16 l 1,9,-1
 148 -224 l 2,10,11
 147 -230 147 -230 145 -232 c 0,12,13
 141 -240 141 -240 107.5 -240 c 128,-1,14
 74 -240 74 -240 43.5 -235 c 128,-1,15
 13 -230 13 -230 14 -224 c 2,16,-1
 115 496 l 2,17,18
 117 512 117 512 163.5 512 c 128,-1,19
 210 512 210 512 217 496 c 2,20,-1
 232 456 l 1,21,22
 323 512 323 512 364 512 c 0,0,1
293.5 110.5 m 128,-1,24
 311 141 311 141 326 247.5 c 128,-1,25
 341 354 341 354 341 384 c 128,-1,26
 341 414 341 414 334 416 c 1,27,28
 298 416 298 416 233 380 c 1,29,-1
 191 80 l 1,30,-1
 239 80 l 2,31,23
 276 80 276 80 293.5 110.5 c 128,-1,24
EndSplineSet
Substitution2: "'smcp' Lowercase to Small Capitals in Latin lookup 1 subtable" P_smcp
EndChar

StartChar: q
Encoding: 113 113 84
Width: 453
GlyphClass: 2
Flags: W
LayerCount: 2
Fore
SplineSet
288 16 m 1,0,1
 237 -15 237 -15 160 -15 c 128,-1,2
 83 -15 83 -15 55 38 c 1,3,4
 39 71 39 71 39 117.5 c 128,-1,5
 39 164 39 164 45 209 c 0,6,7
 63 335 63 335 91 399 c 128,-1,8
 119 463 119 463 165.5 487.5 c 128,-1,9
 212 512 212 512 295 512 c 2,10,-1
 357 512 l 2,11,12
 407 512 407 512 459 498 c 1,13,-1
 475 493 l 1,14,-1
 374 -224 l 2,15,16
 373 -230 373 -230 371 -232 c 0,17,18
 367 -240 367 -240 334 -240 c 128,-1,19
 301 -240 301 -240 278 -235.5 c 128,-1,20
 255 -231 255 -231 256 -224 c 2,21,-1
 288 16 l 1,0,1
183.5 169 m 128,-1,23
 181 151 181 151 180 134.5 c 128,-1,24
 179 118 179 118 179 99.5 c 128,-1,25
 179 81 179 81 187 81 c 0,26,27
 237 81 237 81 302 117 c 1,28,-1
 344 417 l 1,29,-1
 282 417 l 2,30,31
 256 417 256 417 241 404 c 1,32,33
 213 377 213 377 189 209 c 0,34,22
 186 187 186 187 183.5 169 c 128,-1,23
EndSplineSet
Substitution2: "'smcp' Lowercase to Small Capitals in Latin lookup 1 subtable" Q_smcp
EndChar

StartChar: r
Encoding: 114 114 85
Width: 368
GlyphClass: 2
Flags: W
LayerCount: 2
Fore
SplineSet
228 456 m 1,0,1
 316 512 316 512 343 512 c 128,-1,2
 370 512 370 512 390 502 c 128,-1,3
 410 492 410 492 418 482 c 1,4,-1
 427 473 l 1,5,6
 404 409 404 409 393 393 c 128,-1,7
 382 377 382 377 368.5 377 c 128,-1,8
 355 377 355 377 336 388 c 128,-1,9
 317 399 317 399 300 399 c 128,-1,10
 283 399 283 399 227 368 c 1,11,-1
 176 0 l 2,12,13
 175 -6 175 -6 173 -8 c 0,14,15
 167 -16 167 -16 140 -16 c 128,-1,16
 113 -16 113 -16 93 -14 c 0,17,18
 45 -9 45 -9 47 0 c 2,19,-1
 116 496 l 2,20,21
 118 512 118 512 163 512 c 128,-1,22
 208 512 208 512 213 496 c 1,23,-1
 213 494 l 1,24,-1
 228 456 l 1,0,1
EndSplineSet
Substitution2: "'smcp' Lowercase to Small Capitals in Latin lookup 1 subtable" R_smcp
EndChar

StartChar: s
Encoding: 115 115 86
Width: 415
GlyphClass: 2
Flags: W
LayerCount: 2
Fore
SplineSet
410 181 m 0,0,1
 410 175 410 175 409 168 c 0,2,3
 398 85 398 85 346.5 34.5 c 128,-1,4
 295 -16 295 -16 219.5 -16 c 128,-1,5
 144 -16 144 -16 104 4 c 128,-1,6
 64 24 64 24 40 61 c 1,7,8
 37 63 37 63 37 66 c 0,9,10
 37 77 37 77 65.5 106.5 c 128,-1,11
 94 136 94 136 107 136 c 0,12,13
 110 136 110 136 114 132 c 0,14,15
 161 90 161 90 211 90 c 0,16,17
 239 90 239 90 257 107.5 c 128,-1,18
 275 125 275 125 275 143 c 128,-1,19
 275 161 275 161 262 173 c 1,20,21
 242 189 242 189 192 214 c 1,22,23
 89 269 89 269 89 345 c 0,24,25
 89 352 89 352 90 360 c 0,26,27
 101 440 101 440 147.5 476 c 128,-1,28
 194 512 194 512 279 512 c 128,-1,29
 364 512 364 512 405 478 c 1,30,-1
 406 478 l 1,31,32
 413 473 413 473 413 462 c 128,-1,33
 413 451 413 451 408 436 c 0,34,35
 389 378 389 378 375 378 c 0,36,37
 373 378 373 378 370 380 c 2,38,-1
 335 399 l 1,39,40
 293 416 293 416 263 416 c 1,41,42
 218 414 218 414 212 373 c 0,43,44
 210 357 210 357 226 347 c 128,-1,45
 242 337 242 337 252.5 331.5 c 128,-1,46
 263 326 263 326 283 316 c 0,47,48
 353 283 353 283 381.5 247.5 c 128,-1,49
 410 212 410 212 410 181 c 0,0,1
EndSplineSet
Substitution2: "'smcp' Lowercase to Small Capitals in Latin lookup 1 subtable" S_smcp
EndChar

StartChar: t
Encoding: 116 116 87
Width: 337
GlyphClass: 2
Flags: W
LayerCount: 2
Fore
SplineSet
71 416 m 2,0,1
 58 416 58 416 58 424 c 2,2,-1
 58 434 l 1,3,4
 64 476 64 476 80 480 c 2,5,-1
 162 496 l 1,6,-1
 234 609 l 1,7,8
 247 624 247 624 282 624 c 0,9,10
 294 624 294 624 295.5 581 c 128,-1,11
 297 538 297 538 298 496 c 1,12,-1
 394 496 l 2,13,14
 406 496 406 496 406 473 c 0,15,16
 406 466 406 466 405 456 c 0,17,18
 399 416 399 416 383 416 c 2,19,-1
 286 416 l 1,20,-1
 241 98 l 1,21,-1
 241 -16 l 2,22,23
 241 -21 241 -21 239 -24 c 0,24,25
 234 -32 234 -32 188.5 -32 c 128,-1,26
 143 -32 143 -32 138 -16 c 1,27,-1
 138 -14 l 1,28,-1
 104 81 l 1,29,-1
 151 416 l 1,30,-1
 71 416 l 2,0,1
EndSplineSet
Substitution2: "'smcp' Lowercase to Small Capitals in Latin lookup 1 subtable" T_smcp
EndChar

StartChar: u
Encoding: 117 117 88
Width: 487
GlyphClass: 2
Flags: W
LayerCount: 2
Fore
SplineSet
182 -16 m 0,0,1
 108 -16 108 -16 80 30 c 0,2,3
 62 59 62 59 62 104.5 c 128,-1,4
 62 150 62 150 68 192 c 2,5,-1
 111 496 l 2,6,7
 113 512 113 512 149.5 512 c 128,-1,8
 186 512 186 512 220.5 507 c 128,-1,9
 255 502 255 502 254 496 c 2,10,-1
 212 192 l 2,11,12
 205 138 205 138 205 109 c 128,-1,13
 205 80 205 80 213 80 c 0,14,15
 249 80 249 80 314 116 c 1,16,-1
 367 496 l 2,17,18
 369 512 369 512 405.5 512 c 128,-1,19
 442 512 442 512 477 507 c 128,-1,20
 512 502 512 502 511 496 c 2,21,-1
 442 0 l 2,22,23
 441 -6 441 -6 439 -8 c 0,24,25
 433 -16 433 -16 385 -16 c 128,-1,26
 337 -16 337 -16 330 0 c 1,27,-1
 329 1 l 1,28,-1
 313 31 l 1,29,30
 237 -16 237 -16 182 -16 c 0,0,1
EndSplineSet
Substitution2: "'smcp' Lowercase to Small Capitals in Latin lookup 1 subtable" U_smcp
EndChar

StartChar: v
Encoding: 118 118 89
Width: 470
GlyphClass: 2
Flags: W
LayerCount: 2
Fore
SplineSet
396 496 m 2,0,1
 401 512 401 512 435 512 c 128,-1,2
 469 512 469 512 495 507 c 128,-1,3
 521 502 521 502 519 496 c 2,4,-1
 324 0 l 2,5,6
 317 -16 317 -16 282 -16 c 128,-1,7
 247 -16 247 -16 210 -11 c 128,-1,8
 173 -6 173 -6 172 0 c 2,9,-1
 93 494 l 1,10,-1
 93 496 l 1,11,12
 91 503 91 503 102 507.5 c 128,-1,13
 113 512 113 512 140 512 c 128,-1,14
 167 512 167 512 197.5 507 c 128,-1,15
 228 502 228 502 229 496 c 2,16,-1
 266 122 l 1,17,-1
 396 496 l 2,0,1
EndSplineSet
Substitution2: "'smcp' Lowercase to Small Capitals in Latin lookup 1 subtable" V_smcp
EndChar

StartChar: w
Encoding: 119 119 90
Width: 734
GlyphClass: 2
Flags: W
LayerCount: 2
Fore
SplineSet
395 431 m 128,-1,1
 403 432 403 432 418.5 432 c 128,-1,2
 434 432 434 432 464.5 427.5 c 128,-1,3
 495 423 495 423 496 416 c 2,4,-1
 527 143 l 1,5,-1
 654 496 l 2,6,7
 659 512 659 512 693 512 c 128,-1,8
 727 512 727 512 753 507 c 128,-1,9
 779 502 779 502 777 496 c 2,10,-1
 582 0 l 2,11,12
 575 -16 575 -16 540 -16 c 128,-1,13
 505 -16 505 -16 468 -11 c 128,-1,14
 431 -6 431 -6 430 0 c 2,15,-1
 401 180 l 1,16,-1
 331 0 l 2,17,18
 324 -16 324 -16 289 -16 c 128,-1,19
 254 -16 254 -16 217 -11 c 128,-1,20
 180 -6 180 -6 179 0 c 2,21,-1
 100 494 l 1,22,-1
 100 496 l 1,23,24
 98 503 98 503 109 507.5 c 128,-1,25
 120 512 120 512 147 512 c 128,-1,26
 174 512 174 512 204.5 507 c 128,-1,27
 235 502 235 502 236 496 c 2,28,-1
 276 145 l 1,29,-1
 373 416 l 2,30,31
 375 423 375 423 376.5 424.5 c 128,-1,32
 378 426 378 426 382.5 428 c 128,-1,0
 387 430 387 430 395 431 c 128,-1,1
EndSplineSet
Substitution2: "'smcp' Lowercase to Small Capitals in Latin lookup 1 subtable" W_smcp
EndChar

StartChar: x
Encoding: 120 120 91
Width: 517
GlyphClass: 2
Flags: W
LayerCount: 2
Fore
SplineSet
426 512 m 0,0,1
 494 512 494 512 512 500 c 1,2,-1
 514 496 l 1,3,-1
 372 261 l 1,4,-1
 487 0 l 2,5,6
 491 -10 491 -10 470 -14 c 0,7,8
 459 -16 459 -16 435 -16 c 128,-1,9
 411 -16 411 -16 376 -11 c 128,-1,10
 341 -6 341 -6 339 0 c 0,11,12
 338 0 338 0 338 1 c 2,13,-1
 278 144 l 1,14,-1
 178 1 l 1,15,-1
 178 0 l 1,16,17
 173 -7 173 -7 171 -9 c 0,18,19
 164 -16 164 -16 112.5 -16 c 128,-1,20
 61 -16 61 -16 32 -5 c 0,21,22
 26 -2 26 -2 28 0 c 2,23,-1
 217 261 l 1,24,-1
 117 496 l 2,25,26
 113 506 113 506 134 510 c 0,27,28
 144 512 144 512 167 512 c 128,-1,29
 190 512 190 512 219.5 507 c 128,-1,30
 249 502 249 502 252 496 c 1,31,-1
 252 495 l 1,32,-1
 304 362 l 1,33,-1
 383 494 l 1,34,35
 392 512 392 512 426 512 c 0,0,1
EndSplineSet
Substitution2: "'smcp' Lowercase to Small Capitals in Latin lookup 1 subtable" X_smcp
EndChar

StartChar: y
Encoding: 121 121 92
Width: 460
GlyphClass: 2
Flags: W
LayerCount: 2
Fore
SplineSet
96 496 m 1,0,1
 91 512 91 512 143 512 c 0,2,3
 170 512 170 512 200.5 507 c 128,-1,4
 231 502 231 502 232 496 c 2,5,-1
 273 154 l 1,6,-1
 399 496 l 2,7,8
 404 512 404 512 438 512 c 128,-1,9
 472 512 472 512 497 507 c 128,-1,10
 522 502 522 502 522 497 c 1,11,-1
 221 -224 l 1,12,13
 216 -240 216 -240 179 -240 c 0,14,15
 114 -240 114 -240 106 -227 c 0,16,17
 104 -223 104 -223 108 -219 c 1,18,-1
 190 0 l 1,19,-1
 96 494 l 1,20,-1
 96 496 l 1,0,1
EndSplineSet
Substitution2: "'smcp' Lowercase to Small Capitals in Latin lookup 1 subtable" Y_smcp
EndChar

StartChar: z
Encoding: 122 122 93
Width: 420
GlyphClass: 2
Flags: W
LayerCount: 2
Fore
SplineSet
104 390 m 2,0,1
 93 390 93 390 93 406.5 c 128,-1,2
 93 423 93 423 97 443 c 0,3,4
 105 496 105 496 119 496 c 2,5,-1
 415 496 l 1,6,-1
 429 480 l 1,7,-1
 416 390 l 1,8,-1
 203 112 l 1,9,-1
 393 112 l 2,10,11
 405 112 405 112 405 89 c 0,12,13
 405 82 405 82 404 72 c 0,14,15
 393 2 393 2 378 0 c 1,16,-1
 58 0 l 1,17,-1
 44 16 l 1,18,-1
 55 96 l 1,19,-1
 290 390 l 1,20,-1
 104 390 l 2,0,1
EndSplineSet
Substitution2: "'smcp' Lowercase to Small Capitals in Latin lookup 1 subtable" Z_smcp
EndChar

StartChar: braceleft
Encoding: 123 123 94
Width: 426
GlyphClass: 2
Flags: W
LayerCount: 2
Fore
SplineSet
324 781 m 1,0,-1
 304 509 l 1,1,-1
 189 384 l 1,2,-1
 270 259 l 1,3,-1
 232 -22 l 1,4,-1
 368 -22 l 1,5,-1
 382 -38 l 1,6,-1
 367 -146 l 1,7,-1
 91 -146 l 1,8,-1
 77 -130 l 1,9,-1
 136 269 l 1,10,-1
 72 384 l 1,11,-1
 171 501 l 1,12,-1
 231 905 l 1,13,-1
 507 905 l 1,14,-1
 520 889 l 1,15,-1
 505 781 l 1,16,-1
 324 781 l 1,0,-1
EndSplineSet
EndChar

StartChar: bar
Encoding: 124 124 95
Width: 224
GlyphClass: 2
Flags: W
LayerCount: 2
Fore
SplineSet
23 -130 m 1,0,-1
 177 905 l 1,1,-1
 277 905 l 1,2,-1
 290 889 l 1,3,-1
 242 432 l 1,4,-1
 161 -146 l 1,5,-1
 37 -146 l 1,6,-1
 23 -130 l 1,0,-1
EndSplineSet
EndChar

StartChar: braceright
Encoding: 125 125 96
Width: 425
GlyphClass: 2
Flags: W
LayerCount: 2
Fore
SplineSet
264 509 m 1,0,-1
 304 781 l 1,1,-1
 155 781 l 1,2,-1
 142 797 l 1,3,-1
 157 905 l 1,4,-1
 417 905 l 1,5,-1
 430 889 l 1,6,-1
 395 501 l 1,7,-1
 460 384 l 1,8,-1
 364 269 l 1,9,-1
 309 -146 l 1,10,-1
 34 -146 l 1,11,-1
 19 -129 l 1,12,-1
 34 -22 l 1,13,-1
 186 -22 l 1,14,-1
 228 259 l 1,15,-1
 343 384 l 1,16,-1
 264 509 l 1,0,-1
EndSplineSet
EndChar

StartChar: asciitilde
Encoding: 126 126 97
Width: 504
GlyphClass: 2
Flags: W
LayerCount: 2
Fore
SplineSet
498 318 m 1,0,1
 491 318 491 318 451 318 c 128,-1,2
 411 318 411 318 307 308 c 128,-1,3
 203 298 203 298 153 298 c 128,-1,4
 103 298 103 298 93 306 c 128,-1,5
 83 314 83 314 83 327 c 128,-1,6
 83 340 83 340 84 350 c 1,7,-1
 116 401 l 1,8,9
 191 401 191 401 288.5 410 c 128,-1,10
 386 419 386 419 439 419 c 128,-1,11
 492 419 492 419 507 409.5 c 128,-1,12
 522 400 522 400 522 378 c 0,13,14
 522 371 522 371 521 363 c 1,15,-1
 498 318 l 1,0,1
EndSplineSet
EndChar

StartChar: exclamdown
Encoding: 161 161 98
Width: 247
GlyphClass: 2
Flags: W
LayerCount: 2
Fore
SplineSet
-11 -221 m 1,0,-1
 123 287 l 1,1,-1
 222 276 l 1,2,-1
 234 258 l 1,3,-1
 175 -47 l 1,4,-1
 112 -267 l 1,5,-1
 12 -256 l 1,6,-1
 -11 -221 l 1,0,-1
224 512 m 0,7,8
 287 512 287 512 287 456 c 0,9,10
 287 449 287 449 286 440 c 0,11,12
 276 368 276 368 204 368 c 0,13,14
 141 368 141 368 141 424 c 0,15,16
 141 431 141 431 142 440 c 0,17,18
 152 512 152 512 224 512 c 0,7,8
EndSplineSet
EndChar

StartChar: cent
Encoding: 162 162 99
Width: 379
GlyphClass: 2
Flags: W
LayerCount: 2
Fore
SplineSet
456 609 m 1,0,1
 462 606 462 606 462 594 c 128,-1,2
 462 582 462 582 449 555 c 0,3,4
 428 509 428 509 415 515 c 1,5,-1
 414 515 l 1,6,-1
 381 529 l 1,7,8
 354 542 354 542 312.5 542 c 128,-1,9
 271 542 271 542 254.5 508.5 c 128,-1,10
 238 475 238 475 227.5 397.5 c 128,-1,11
 217 320 217 320 217 289.5 c 128,-1,12
 217 259 217 259 220 246 c 0,13,14
 230 213 230 213 271 213 c 0,15,16
 330 213 330 213 364 220 c 128,-1,17
 398 227 398 227 401 227.5 c 128,-1,18
 404 228 404 228 407 224 c 0,19,20
 414 216 414 216 408.5 175.5 c 128,-1,21
 403 135 403 135 386 131 c 0,22,23
 344 119 344 119 301 116 c 1,24,-1
 285 -1 l 1,25,-1
 162 -1 l 1,26,-1
 150 30 l 1,27,-1
 163 128 l 1,28,29
 105 148 105 148 88 208 c 0,30,31
 80 238 80 238 80 281 c 128,-1,32
 80 324 80 324 89 381 c 0,33,34
 107 507 107 507 140 562.5 c 128,-1,35
 173 618 173 618 241 634 c 1,36,-1
 261 768 l 1,37,-1
 369 768 l 1,38,-1
 386 752 l 1,39,-1
 370 640 l 1,40,41
 408 635 408 635 426.5 625 c 128,-1,42
 445 615 445 615 455 609 c 1,43,-1
 456 609 l 1,0,1
EndSplineSet
EndChar

StartChar: sterling
Encoding: 163 163 100
Width: 495
GlyphClass: 2
Flags: W
LayerCount: 2
Fore
SplineSet
106 0 m 1,0,-1
 92 16 l 1,1,-1
 132 304 l 1,2,-1
 82 304 l 1,3,-1
 68 320 l 1,4,-1
 84 428 l 1,5,-1
 145 428 l 1,6,7
 177 655 177 655 242.5 743.5 c 128,-1,8
 308 832 308 832 448 836 c 1,9,-1
 462 820 l 1,10,-1
 447 717 l 1,11,12
 382 716 382 716 352.5 647.5 c 128,-1,13
 323 579 323 579 302 428 c 1,14,-1
 360 428 l 1,15,-1
 373 412 l 1,16,-1
 358 304 l 1,17,-1
 271 304 l 1,18,-1
 247 121 l 1,19,-1
 474 121 l 1,20,-1
 487 105 l 1,21,-1
 473 0 l 1,22,-1
 106 0 l 1,0,-1
EndSplineSet
EndChar

StartChar: currency
Encoding: 164 164 101
Width: 425
GlyphClass: 2
Flags: W
LayerCount: 2
Fore
SplineSet
419 419 m 0,0,1
 419 371 419 371 403 333 c 1,2,-1
 431 301 l 1,3,-1
 428 278 l 1,4,-1
 340 202 l 1,5,-1
 305 244 l 1,6,7
 275 236 275 236 247 236 c 128,-1,8
 219 236 219 236 195 242 c 1,9,-1
 160 212 l 1,10,-1
 137 212 l 1,11,-1
 72 289 l 1,12,-1
 115 327 l 1,13,14
 114 336 114 336 114 346 c 0,15,16
 114 392 114 392 130 437 c 1,17,-1
 102 469 l 1,18,-1
 106 492 l 1,19,-1
 193 568 l 1,20,-1
 228 526 l 1,21,22
 258 534 258 534 286 534 c 128,-1,23
 314 534 314 534 339 528 c 1,24,-1
 373 558 l 1,25,-1
 396 558 l 1,26,-1
 461 481 l 1,27,-1
 418 443 l 1,28,29
 419 431 419 431 419 419 c 0,0,1
322 394 m 0,30,31
 322 439 322 439 270.5 439 c 128,-1,32
 219 439 219 439 212 385 c 0,33,34
 211 379 211 379 211 373 c 0,35,36
 211 331 211 331 262.5 331 c 128,-1,37
 314 331 314 331 322 385 c 0,38,39
 322 390 322 390 322 394 c 0,30,31
EndSplineSet
EndChar

StartChar: yen
Encoding: 165 165 102
Width: 584
GlyphClass: 2
Flags: W
LayerCount: 2
Fore
SplineSet
126 743 m 0,0,1
 126 768 126 768 193.5 768 c 128,-1,2
 261 768 261 768 271 731 c 1,3,-1
 362 522 l 1,4,-1
 394 522 l 1,5,-1
 528 734 l 1,6,7
 538 754 538 754 553 761 c 128,-1,8
 568 768 568 768 598 768 c 0,9,10
 663 768 663 768 663 745 c 0,11,12
 663 739 663 739 658 731 c 2,13,-1
 522 522 l 1,14,-1
 586 522 l 1,15,-1
 600 506 l 1,16,-1
 584 398 l 1,17,-1
 172 398 l 1,18,-1
 159 414 l 1,19,-1
 174 522 l 1,20,-1
 218 522 l 1,21,-1
 128 732 l 2,22,23
 126 738 126 738 126 743 c 0,0,1
318 -16 m 0,24,25
 247 -16 247 -16 247 17 c 0,26,27
 247 19 247 19 247 22 c 2,28,-1
 271 196 l 1,29,-1
 144 196 l 1,30,-1
 130 212 l 1,31,-1
 145 320 l 1,32,-1
 557 320 l 1,33,-1
 571 304 l 1,34,-1
 556 196 l 1,35,-1
 388 196 l 1,36,-1
 363 21 l 2,37,38
 360 -3 360 -3 353 -9.5 c 128,-1,39
 346 -16 346 -16 318 -16 c 0,24,25
EndSplineSet
EndChar

StartChar: brokenbar
Encoding: 166 166 103
Width: 219
GlyphClass: 2
Flags: W
LayerCount: 2
Fore
SplineSet
26 -130 m 1,0,-1
 86 295 l 1,1,-1
 210 295 l 1,2,-1
 224 279 l 1,3,-1
 164 -146 l 1,4,-1
 40 -146 l 1,5,-1
 26 -130 l 1,0,-1
296 905 m 1,6,-1
 309 889 l 1,7,-1
 252 482 l 1,8,-1
 128 482 l 1,9,-1
 114 498 l 1,10,-1
 172 905 l 1,11,-1
 296 905 l 1,6,-1
EndSplineSet
EndChar

StartChar: section
Encoding: 167 167 104
Width: 446
GlyphClass: 2
Flags: W
LayerCount: 2
Fore
SplineSet
211 368 m 0,0,1
 211 351 211 351 228.5 337 c 128,-1,2
 246 323 246 323 271.5 323 c 128,-1,3
 297 323 297 323 313.5 332 c 128,-1,4
 330 341 330 341 334 350.5 c 128,-1,5
 338 360 338 360 340 376.5 c 128,-1,6
 342 393 342 393 326 402 c 0,7,8
 302 416 302 416 259.5 415 c 128,-1,9
 217 414 217 414 211 373 c 0,10,11
 211 370 211 370 211 368 c 0,0,1
436 614 m 1,12,-1
 431 616 l 1,13,-1
 396 635 l 1,14,15
 354 652 354 652 324 652 c 1,16,17
 279 650 279 650 273 609 c 0,18,19
 271 593 271 593 287 583 c 128,-1,20
 303 573 303 573 313.5 567.5 c 128,-1,21
 324 562 324 562 344 552 c 0,22,23
 414 519 414 519 442.5 483.5 c 128,-1,24
 471 448 471 448 471 417 c 0,25,26
 471 411 471 411 470 404 c 0,27,28
 456 299 456 299 380 248 c 1,29,30
 410 213 410 213 410 179 c 0,31,32
 410 174 410 174 409 168 c 0,33,34
 398 85 398 85 346.5 34.5 c 128,-1,35
 295 -16 295 -16 219.5 -16 c 128,-1,36
 144 -16 144 -16 104 4 c 128,-1,37
 64 24 64 24 40 61 c 1,38,39
 37 63 37 63 37 66 c 0,40,41
 37 77 37 77 65.5 106.5 c 128,-1,42
 94 136 94 136 107 136 c 0,43,44
 110 136 110 136 114 132 c 0,45,46
 161 90 161 90 211 90 c 0,47,48
 239 90 239 90 257 107.5 c 128,-1,49
 275 125 275 125 275 143 c 128,-1,50
 275 161 275 161 262 173 c 1,51,52
 242 189 242 189 192 214 c 1,53,54
 89 269 89 269 89 345 c 0,55,56
 89 352 89 352 90 360 c 0,57,58
 105 467 105 467 187 498 c 1,59,60
 150 537 150 537 150 581 c 0,61,62
 150 589 150 589 151 596 c 0,63,64
 162 676 162 676 209 712 c 128,-1,65
 256 748 256 748 346 748 c 0,66,67
 380 748 380 748 410 740 c 0,68,69
 451 729 451 729 466 714 c 1,70,-1
 467 714 l 1,71,72
 474 709 474 709 474 698 c 128,-1,73
 474 687 474 687 469 672 c 0,74,75
 450 614 450 614 436 614 c 1,12,-1
EndSplineSet
EndChar

StartChar: dieresis
Encoding: 168 168 105
Width: 460
GlyphClass: 2
Flags: W
LayerCount: 2
Fore
SplineSet
219 768 m 0,0,1
 282 768 282 768 282 712 c 0,2,3
 282 705 282 705 281 696 c 0,4,5
 271 624 271 624 199 624 c 0,6,7
 136 624 136 624 136 680 c 0,8,9
 136 687 136 687 137 696 c 0,10,11
 147 768 147 768 219 768 c 0,0,1
453 768 m 0,12,13
 516 768 516 768 516 712 c 0,14,15
 516 705 516 705 515 696 c 0,16,17
 505 624 505 624 433 624 c 0,18,19
 370 624 370 624 370 680 c 0,20,21
 370 687 370 687 371 696 c 0,22,23
 381 768 381 768 453 768 c 0,12,13
EndSplineSet
EndChar

StartChar: copyright
Encoding: 169 169 106
Width: 747
GlyphClass: 2
Flags: W
LayerCount: 2
Fore
SplineSet
422 439 m 128,-1,1
 413 413 413 413 403.5 341 c 128,-1,2
 394 269 394 269 394 238.5 c 128,-1,3
 394 208 394 208 415 208 c 0,4,5
 447 208 447 208 507 215 c 1,6,-1
 498 153 l 1,7,8
 438 145 438 145 408 145 c 0,9,10
 325 145 325 145 300 186 c 0,11,12
 284 212 284 212 284 254.5 c 128,-1,13
 284 297 284 297 290 338 c 0,14,15
 306 453 306 453 341.5 490.5 c 128,-1,16
 377 528 377 528 451 528 c 128,-1,17
 525 528 525 528 555 506 c 1,18,-1
 535 460 l 1,19,-1
 489 460 l 1,20,21
 479 465 479 465 449 465 c 0,22,0
 431 465 431 465 422 439 c 128,-1,1
470 701 m 128,-1,24
 617 701 617 701 700 596 c 0,25,26
 767 512 767 512 767 399 c 0,27,28
 767 371 767 371 763 342 c 0,29,30
 742 192 742 192 629 88 c 128,-1,31
 516 -16 516 -16 369 -16 c 128,-1,32
 222 -16 222 -16 139 88 c 0,33,34
 74 171 74 171 74 283 c 0,35,36
 74 469 74 469 211 596 c 0,37,23
 323 701 323 701 470 701 c 128,-1,24
142 293 m 0,38,39
 142 203 142 203 195 136 c 0,40,41
 260 52 260 52 379 52 c 128,-1,42
 498 52 498 52 588 136 c 0,43,44
 698 239 698 239 698 390 c 0,45,46
 698 481 698 481 645 548 c 0,47,48
 578 633 578 633 460 633 c 128,-1,49
 342 633 342 633 253 548 c 1,50,51
 142 445 142 445 142 293 c 0,38,39
EndSplineSet
EndChar

StartChar: ordfeminine
Encoding: 170 170 107
Width: 345
GlyphClass: 2
Flags: W
LayerCount: 2
Fore
SplineSet
283 661 m 1,0,1
 277 676 277 676 245.5 676 c 128,-1,2
 214 676 214 676 193 666 c 1,3,-1
 163 666 l 1,4,-1
 154 726 l 1,5,6
 191 752 191 752 251 752 c 0,7,8
 343 752 343 752 370 713 c 0,9,10
 387 689 387 689 387 644.5 c 128,-1,11
 387 600 387 600 380 554 c 2,12,-1
 353 366 l 1,13,-1
 276 366 l 1,14,-1
 267 389 l 1,15,16
 222 354 222 354 195 354 c 0,17,18
 131 354 131 354 111 378 c 0,19,20
 98 394 98 394 98 424.5 c 128,-1,21
 98 455 98 455 102 486 c 0,22,23
 111 547 111 547 172 569 c 1,24,-1
 283 597 l 1,25,26
 287 622 287 622 287 638 c 128,-1,27
 287 654 287 654 283 661 c 1,0,1
183 465 m 0,28,29
 183 430 183 430 209 428 c 1,30,31
 240 428 240 428 253 448 c 128,-1,32
 266 468 266 468 277 542 c 1,33,34
 237 536 237 536 212 520 c 128,-1,35
 187 504 187 504 185 489 c 128,-1,36
 183 474 183 474 183 465 c 0,28,29
EndSplineSet
EndChar

StartChar: guillemotleft
Encoding: 171 171 108
Width: 591
GlyphClass: 2
Flags: W
LayerCount: 2
Fore
SplineSet
580 195 m 1,0,-1
 542 156 l 1,1,-1
 490 169 l 1,2,-1
 328 335 l 1,3,-1
 314 384 l 1,4,-1
 341 433 l 1,5,-1
 535 599 l 1,6,-1
 591 612 l 1,7,-1
 617 573 l 1,8,-1
 429 384 l 1,9,-1
 580 195 l 1,0,-1
340 195 m 1,10,-1
 302 156 l 1,11,-1
 250 169 l 1,12,-1
 88 335 l 1,13,-1
 74 384 l 1,14,-1
 101 433 l 1,15,-1
 295 599 l 1,16,-1
 351 612 l 1,17,-1
 377 573 l 1,18,-1
 189 384 l 1,19,-1
 340 195 l 1,10,-1
EndSplineSet
EndChar

StartChar: logicalnot
Encoding: 172 172 109
Width: 521
GlyphClass: 2
Flags: W
LayerCount: 2
Fore
SplineSet
533 416 m 1,0,-1
 493 137 l 1,1,-1
 385 137 l 1,2,-1
 371 153 l 1,3,-1
 393 308 l 1,4,-1
 68 308 l 1,5,-1
 54 324 l 1,6,-1
 69 432 l 1,7,-1
 519 432 l 1,8,-1
 533 416 l 1,0,-1
EndSplineSet
EndChar

StartChar: registered
Encoding: 174 174 110
Width: 747
GlyphClass: 2
Flags: W
LayerCount: 2
Fore
SplineSet
566 445 m 0,0,1
 566 355 566 355 501 308 c 1,2,-1
 550 145 l 1,3,-1
 455 145 l 1,4,-1
 441 161 l 1,5,-1
 403 289 l 1,6,-1
 396 289 l 1,7,-1
 376 145 l 1,8,-1
 295 145 l 1,9,-1
 281 161 l 1,10,-1
 331 519 l 1,11,12
 400 532 400 532 440 532 c 0,13,14
 519 532 519 532 542.5 508.5 c 128,-1,15
 566 485 566 485 566 445 c 0,0,1
459 417 m 0,16,17
 462 440 462 440 462 454.5 c 128,-1,18
 462 469 462 469 457 469 c 0,19,20
 424 469 424 469 420 458 c 1,21,-1
 408 366 l 1,22,23
 416 363 416 363 424 363 c 0,24,25
 451 365 451 365 459 417 c 0,16,17
470 701 m 128,-1,27
 617 701 617 701 700 596 c 0,28,29
 767 512 767 512 767 399 c 0,30,31
 767 371 767 371 763 342 c 0,32,33
 742 192 742 192 629 88 c 128,-1,34
 516 -16 516 -16 369 -16 c 128,-1,35
 222 -16 222 -16 139 88 c 0,36,37
 74 171 74 171 74 283 c 0,38,39
 74 469 74 469 211 596 c 0,40,26
 323 701 323 701 470 701 c 128,-1,27
142 293 m 0,41,42
 142 203 142 203 195 136 c 0,43,44
 260 52 260 52 379 52 c 128,-1,45
 498 52 498 52 588 136 c 0,46,47
 698 239 698 239 698 390 c 0,48,49
 698 481 698 481 645 548 c 0,50,51
 578 633 578 633 460 633 c 128,-1,52
 342 633 342 633 253 548 c 1,53,54
 142 445 142 445 142 293 c 0,41,42
EndSplineSet
EndChar

StartChar: degree
Encoding: 176 176 111
Width: 308
GlyphClass: 2
Flags: W
LayerCount: 2
Fore
SplineSet
258 753 m 0,0,1
 363 753 363 753 363 661 c 0,2,3
 363 648 363 648 361 633 c 0,4,5
 344 513 344 513 225 513 c 0,6,7
 119 513 119 513 119 605 c 0,8,9
 119 618 119 618 121 633 c 0,10,11
 138 753 138 753 258 753 c 0,0,1
235 589 m 0,12,13
 286 589 286 589 286 643 c 0,14,15
 286 677 286 677 244.5 677 c 128,-1,16
 203 677 203 677 197 633 c 0,17,18
 196 628 196 628 196 624 c 0,19,20
 196 589 196 589 235 589 c 0,12,13
EndSplineSet
EndChar

StartChar: plusminus
Encoding: 177 177 112
Width: 455
GlyphClass: 2
Flags: W
LayerCount: 2
Fore
SplineSet
388 711 m 1,0,-1
 372 592 l 1,1,-1
 493 592 l 1,2,-1
 506 576 l 1,3,-1
 491 468 l 1,4,-1
 354 468 l 1,5,-1
 335 331 l 1,6,-1
 227 331 l 1,7,-1
 213 347 l 1,8,-1
 230 468 l 1,9,-1
 110 468 l 1,10,-1
 97 484 l 1,11,-1
 112 592 l 1,12,-1
 248 592 l 1,13,-1
 267 728 l 1,14,-1
 374 728 l 1,15,-1
 388 711 l 1,0,-1
448 160 m 1,16,-1
 67 160 l 1,17,-1
 53 176 l 1,18,-1
 68 284 l 1,19,-1
 449 284 l 1,20,-1
 463 268 l 1,21,-1
 448 160 l 1,16,-1
EndSplineSet
EndChar

StartChar: twosuperior
Encoding: 178 178 113
Width: 416
GlyphClass: 2
Flags: W
LayerCount: 2
Fore
SplineSet
293 659 m 0,0,1
 244 659 244 659 212 650 c 1,2,-1
 162 650 l 1,3,-1
 152 723 l 1,4,5
 198 752 198 752 296 752 c 128,-1,6
 394 752 394 752 428 714 c 0,7,8
 454 686 454 686 454 633 c 0,9,10
 454 614 454 614 450 585.5 c 128,-1,11
 446 557 446 557 405 499.5 c 128,-1,12
 364 442 364 442 224 284 c 1,13,-1
 404 284 l 1,14,-1
 417 269 l 1,15,-1
 406 185 l 1,16,-1
 81 185 l 1,17,-1
 67 201 l 1,18,-1
 77 275 l 1,19,-1
 217 434 l 1,20,21
 259 480 259 480 275 498 c 0,22,23
 326 558 326 558 326 621 c 0,24,25
 326 633 326 633 324 642 c 1,26,27
 318 659 318 659 293 659 c 0,0,1
EndSplineSet
EndChar

StartChar: threesuperior
Encoding: 179 179 114
Width: 413
GlyphClass: 2
Flags: W
LayerCount: 2
Fore
SplineSet
449 629 m 0,0,1
 449 535 449 535 395 481 c 1,2,3
 431 449 431 449 431 386 c 0,4,5
 431 281 431 281 362 225 c 0,6,7
 307 180 307 180 190 180 c 0,8,9
 152 180 152 180 76 189 c 1,10,-1
 89 281 l 1,11,12
 174 276 174 276 211.5 276 c 128,-1,13
 249 276 249 276 263.5 289.5 c 128,-1,14
 278 303 278 303 283 338 c 128,-1,15
 288 373 288 373 288 389 c 128,-1,16
 288 405 288 405 281.5 413 c 128,-1,17
 275 421 275 421 226 421 c 2,18,-1
 169 421 l 1,19,-1
 182 517 l 1,20,21
 250 517 250 517 273 528.5 c 128,-1,22
 296 540 296 540 304 591 c 0,23,24
 306 606 306 606 306 618 c 0,25,26
 306 659 306 659 281 659 c 0,27,28
 232 659 232 659 200 650 c 1,29,-1
 150 650 l 1,30,-1
 140 723 l 1,31,32
 186 752 186 752 285.5 752 c 128,-1,33
 385 752 385 752 422 714 c 0,34,35
 449 685 449 685 449 629 c 0,0,1
EndSplineSet
EndChar

StartChar: acute
Encoding: 180 180 115
Width: 240
GlyphClass: 2
Flags: W
LayerCount: 2
Fore
SplineSet
149 536 m 1,0,-1
 106 557 l 1,1,-1
 113 612 l 1,2,-1
 187 736 l 1,3,-1
 233 768 l 1,4,-1
 333 708 l 1,5,-1
 149 536 l 1,0,-1
EndSplineSet
EndChar

StartChar: mu
Encoding: 181 181 116
AltUni2: 0003bc.ffffffff.0
Width: 465
GlyphClass: 2
Flags: W
LayerCount: 2
Fore
SplineSet
53 -239 m 0,0,1
 13 -239 13 -239 15 -223 c 2,2,-1
 116 496 l 2,3,4
 118 512 118 512 154.5 512 c 128,-1,5
 191 512 191 512 225.5 507 c 128,-1,6
 260 502 260 502 259 496 c 2,7,-1
 217 192 l 2,8,9
 211 147 211 147 211 130.5 c 128,-1,10
 211 114 211 114 211 108 c 0,11,12
 213 80 213 80 228 80 c 1,13,14
 257 83 257 83 319 116 c 1,15,-1
 372 496 l 2,16,17
 374 512 374 512 410.5 512 c 128,-1,18
 447 512 447 512 482 507 c 128,-1,19
 517 502 517 502 516 496 c 2,20,-1
 447 0 l 2,21,22
 446 -6 446 -6 444 -8 c 0,23,24
 438 -16 438 -16 390 -16 c 128,-1,25
 342 -16 342 -16 335 0 c 1,26,-1
 318 31 l 1,27,28
 254 -15 254 -15 172 -15 c 1,29,-1
 132 -223 l 2,30,31
 128 -239 128 -239 53 -239 c 0,0,1
EndSplineSet
EndChar

StartChar: paragraph
Encoding: 182 182 117
Width: 703
GlyphClass: 2
Flags: W
LayerCount: 2
Fore
SplineSet
205 16 m 1,0,-1
 269 472 l 1,1,-1
 90 472 l 1,2,3
 105 581 105 581 132 636.5 c 128,-1,4
 159 692 159 692 205 713.5 c 128,-1,5
 251 735 251 735 335 736 c 1,6,-1
 760 736 l 1,7,-1
 774 720 l 1,8,-1
 762 635 l 1,9,-1
 646 635 l 1,10,-1
 558 0 l 1,11,-1
 430 0 l 1,12,-1
 416 16 l 1,13,-1
 504 635 l 1,14,-1
 435 635 l 1,15,-1
 347 0 l 1,16,-1
 219 0 l 1,17,-1
 205 16 l 1,0,-1
EndSplineSet
EndChar

StartChar: periodcentered
Encoding: 183 183 118
Width: 214
GlyphClass: 2
Flags: W
LayerCount: 2
Fore
SplineSet
157 367 m 0,0,1
 220 367 220 367 220 311 c 0,2,3
 220 304 220 304 219 295 c 0,4,5
 209 223 209 223 137 223 c 0,6,7
 74 223 74 223 74 279 c 0,8,9
 74 286 74 286 75 295 c 0,10,11
 85 367 85 367 157 367 c 0,0,1
EndSplineSet
EndChar

StartChar: cedilla
Encoding: 184 184 119
Width: 220
GlyphClass: 2
Flags: W
LayerCount: 2
Fore
SplineSet
174 -135 m 0,0,1
 174 -158 174 -158 165 -186 c 0,2,3
 132 -286 132 -286 46 -286 c 0,4,5
 31 -286 31 -286 13 -283 c 1,6,-1
 36 -209 l 1,7,8
 42 -210 42 -210 47 -210 c 0,9,10
 81 -210 81 -210 92 -173 c 0,11,12
 95 -162 95 -162 95 -154 c 0,13,14
 95 -127 95 -127 63 -122 c 2,15,-1
 8 -112 l 1,16,-1
 46 9 l 1,17,-1
 101 -1 l 1,18,-1
 87 -47 l 1,19,20
 174 -64 174 -64 174 -135 c 0,0,1
EndSplineSet
EndChar

StartChar: onesuperior
Encoding: 185 185 120
Width: 290
GlyphClass: 2
Flags: W
LayerCount: 2
Fore
SplineSet
137 613 m 1,0,-1
 122 703 l 1,1,-1
 309 754 l 1,2,-1
 323 738 l 1,3,-1
 260 281 l 1,4,-1
 280 281 l 1,5,-1
 294 265 l 1,6,-1
 283 188 l 1,7,-1
 97 188 l 1,8,-1
 83 204 l 1,9,-1
 94 281 l 1,10,-1
 132 281 l 1,11,-1
 180 626 l 1,12,-1
 137 613 l 1,0,-1
EndSplineSet
EndChar

StartChar: ordmasculine
Encoding: 186 186 121
Width: 470
GlyphClass: 2
Flags: W
LayerCount: 2
Fore
SplineSet
342 756 m 0,0,1
 506 756 506 756 506 549 c 0,2,3
 506 505 506 505 499 452 c 0,4,5
 480 317 480 317 424.5 246.5 c 128,-1,6
 369 176 369 176 258 176 c 128,-1,7
 147 176 147 176 112 238 c 0,8,9
 91 277 91 277 91 335.5 c 128,-1,10
 91 394 91 394 99 452 c 0,11,12
 122 617 122 617 176 686.5 c 128,-1,13
 230 756 230 756 342 756 c 0,0,1
352 660 m 0,14,15
 295 660 295 660 273.5 616.5 c 128,-1,16
 252 573 252 573 238 473.5 c 128,-1,17
 224 374 224 374 224 324 c 128,-1,18
 224 274 224 274 242 274 c 0,19,20
 301 274 301 274 319.5 304.5 c 128,-1,21
 338 335 338 335 351 426 c 0,22,23
 367 536 367 536 367 598 c 128,-1,24
 367 660 367 660 352 660 c 0,14,15
EndSplineSet
EndChar

StartChar: guillemotright
Encoding: 187 187 122
Width: 591
GlyphClass: 2
Flags: W
LayerCount: 2
Fore
SplineSet
91 156 m 1,0,-1
 65 195 l 1,1,-1
 268 384 l 1,2,-1
 134 573 l 1,3,-1
 172 612 l 1,4,-1
 224 599 l 1,5,-1
 370 433 l 1,6,-1
 383 384 l 1,7,-1
 357 335 l 1,8,-1
 147 169 l 1,9,-1
 91 156 l 1,0,-1
331 156 m 1,10,-1
 305 195 l 1,11,-1
 508 384 l 1,12,-1
 374 573 l 1,13,-1
 412 612 l 1,14,-1
 464 599 l 1,15,-1
 610 433 l 1,16,-1
 623 384 l 1,17,-1
 597 335 l 1,18,-1
 387 169 l 1,19,-1
 331 156 l 1,10,-1
EndSplineSet
EndChar

StartChar: onequarter
Encoding: 188 188 123
Width: 987
GlyphClass: 2
Flags: W
LayerCount: 2
Fore
SplineSet
800 548 m 1,0,-1
 768 324 l 1,1,-1
 844 324 l 1,2,-1
 879 564 l 1,3,-1
 990 564 l 1,4,-1
 1004 548 l 1,5,-1
 972 324 l 1,6,-1
 1000 324 l 1,7,-1
 1014 308 l 1,8,-1
 1003 231 l 1,9,-1
 959 231 l 1,10,-1
 927 0 l 1,11,-1
 815 0 l 1,12,-1
 801 16 l 1,13,-1
 831 231 l 1,14,-1
 644 231 l 1,15,-1
 630 247 l 1,16,-1
 676 564 l 1,17,-1
 786 564 l 1,18,-1
 800 548 l 1,0,-1
136 613 m 1,19,-1
 121 703 l 1,20,-1
 308 754 l 1,21,-1
 322 738 l 1,22,-1
 259 281 l 1,23,-1
 279 281 l 1,24,-1
 293 265 l 1,25,-1
 282 188 l 1,26,-1
 96 188 l 1,27,-1
 82 204 l 1,28,-1
 93 281 l 1,29,-1
 131 281 l 1,30,-1
 179 626 l 1,31,-1
 136 613 l 1,19,-1
215 -114 m 1,32,-1
 602 876 l 1,33,-1
 707 876 l 1,34,-1
 692 769 l 1,35,-1
 347 -146 l 1,36,-1
 211 -146 l 1,37,-1
 215 -114 l 1,32,-1
EndSplineSet
EndChar

StartChar: onehalf
Encoding: 189 189 124
Width: 994
GlyphClass: 2
Flags: W
LayerCount: 2
Fore
SplineSet
244 -114 m 1,0,-1
 631 876 l 1,1,-1
 736 876 l 1,2,-1
 721 769 l 1,3,-1
 376 -146 l 1,4,-1
 240 -146 l 1,5,-1
 244 -114 l 1,0,-1
135 613 m 1,6,-1
 120 703 l 1,7,-1
 307 754 l 1,8,-1
 321 738 l 1,9,-1
 258 281 l 1,10,-1
 278 281 l 1,11,-1
 292 265 l 1,12,-1
 281 188 l 1,13,-1
 95 188 l 1,14,-1
 81 204 l 1,15,-1
 92 281 l 1,16,-1
 130 281 l 1,17,-1
 178 626 l 1,18,-1
 135 613 l 1,6,-1
865 474 m 0,19,20
 816 474 816 474 784 465 c 1,21,-1
 734 465 l 1,22,-1
 724 538 l 1,23,24
 770 567 770 567 868 567 c 128,-1,25
 966 567 966 567 1000 529 c 0,26,27
 1026 501 1026 501 1026 448 c 0,28,29
 1026 429 1026 429 1022 400.5 c 128,-1,30
 1018 372 1018 372 977 314.5 c 128,-1,31
 936 257 936 257 796 99 c 1,32,-1
 976 99 l 1,33,-1
 989 84 l 1,34,-1
 978 0 l 1,35,-1
 653 0 l 1,36,-1
 639 16 l 1,37,-1
 649 90 l 1,38,-1
 789 249 l 1,39,40
 831 295 831 295 847 314 c 0,41,42
 898 373 898 373 898 436 c 0,43,44
 898 448 898 448 896 456 c 0,45,46
 890 474 890 474 865 474 c 0,19,20
EndSplineSet
EndChar

StartChar: threequarters
Encoding: 190 190 125
Width: 1038
GlyphClass: 2
Flags: W
LayerCount: 2
Fore
SplineSet
286 -114 m 1,0,-1
 673 876 l 1,1,-1
 778 876 l 1,2,-1
 763 769 l 1,3,-1
 418 -146 l 1,4,-1
 282 -146 l 1,5,-1
 286 -114 l 1,0,-1
428 629 m 0,6,7
 428 535 428 535 374 481 c 1,8,9
 410 449 410 449 410 386 c 0,10,11
 410 281 410 281 341 225 c 0,12,13
 286 180 286 180 169 180 c 0,14,15
 131 180 131 180 55 189 c 1,16,-1
 68 281 l 1,17,18
 153 276 153 276 190.5 276 c 128,-1,19
 228 276 228 276 242.5 289.5 c 128,-1,20
 257 303 257 303 262 338 c 128,-1,21
 267 373 267 373 267 389 c 128,-1,22
 267 405 267 405 260.5 413 c 128,-1,23
 254 421 254 421 205 421 c 2,24,-1
 148 421 l 1,25,-1
 161 517 l 1,26,27
 229 517 229 517 252 528.5 c 128,-1,28
 275 540 275 540 283 591 c 0,29,30
 285 606 285 606 285 618 c 0,31,32
 285 659 285 659 260 659 c 0,33,34
 210 659 210 659 179 650 c 1,35,-1
 129 650 l 1,36,-1
 119 723 l 1,37,38
 165 752 165 752 264.5 752 c 128,-1,39
 364 752 364 752 400 714 c 0,40,41
 428 685 428 685 428 629 c 0,6,7
849 548 m 1,42,-1
 817 324 l 1,43,-1
 893 324 l 1,44,-1
 928 564 l 1,45,-1
 1039 564 l 1,46,-1
 1053 548 l 1,47,-1
 1021 324 l 1,48,-1
 1049 324 l 1,49,-1
 1063 308 l 1,50,-1
 1052 231 l 1,51,-1
 1008 231 l 1,52,-1
 976 0 l 1,53,-1
 864 0 l 1,54,-1
 850 16 l 1,55,-1
 880 231 l 1,56,-1
 693 231 l 1,57,-1
 679 247 l 1,58,-1
 725 564 l 1,59,-1
 835 564 l 1,60,-1
 849 548 l 1,42,-1
EndSplineSet
EndChar

StartChar: questiondown
Encoding: 191 191 126
Width: 439
GlyphClass: 2
Flags: W
LayerCount: 2
Fore
SplineSet
183.5 12 m 128,-1,1
 160 -18 160 -18 155.5 -48.5 c 128,-1,2
 151 -79 151 -79 151 -97.5 c 128,-1,3
 151 -116 151 -116 156 -128 c 0,4,5
 165 -149 165 -149 207 -149 c 0,6,7
 274 -149 274 -149 319 -136 c 1,8,-1
 368 -136 l 1,9,-1
 382 -237 l 1,10,11
 324 -272 324 -272 201.5 -272 c 128,-1,12
 79 -272 79 -272 37 -222 c 0,13,14
 6 -185 6 -185 6 -113 c 0,15,16
 6 -46 6 -46 19 -19 c 0,17,18
 47 41 47 41 202 189 c 1,19,-1
 217 295 l 1,20,-1
 337 295 l 1,21,-1
 351 279 l 1,22,-1
 337 183 l 2,23,24
 334 158 334 158 284 112 c 0,25,0
 207 42 207 42 183.5 12 c 128,-1,1
309 512 m 0,26,27
 372 512 372 512 372 456 c 0,28,29
 372 449 372 449 371 440 c 0,30,31
 361 368 361 368 289 368 c 0,32,33
 226 368 226 368 226 424 c 0,34,35
 226 431 226 431 227 440 c 0,36,37
 237 512 237 512 309 512 c 0,26,27
EndSplineSet
EndChar

StartChar: Agrave
Encoding: 192 192 127
Width: 529
GlyphClass: 2
Flags: W
LayerCount: 2
Fore
SplineSet
412 813 m 1,0,-1
 363 792 l 1,1,-1
 227 964 l 1,2,-1
 343 1024 l 1,3,-1
 381 992 l 1,4,-1
 420 868 l 1,5,-1
 412 813 l 1,0,-1
406 769 m 0,6,7
 475 769 475 769 476 738 c 1,8,-1
 501 431 l 1,9,-1
 513 22 l 2,10,11
 513 -2 513 -2 506 -9 c 128,-1,12
 499 -16 499 -16 470 -16 c 0,13,14
 381 -16 381 -16 381 22 c 1,15,-1
 375 228 l 1,16,-1
 235 228 l 1,17,-1
 174 21 l 2,18,19
 169 3 169 3 166 -2 c 0,20,21
 160 -16 160 -16 127.5 -16 c 128,-1,22
 95 -16 95 -16 81 -16 c 0,23,24
 38 -14 38 -14 31 0 c 0,25,26
 29 4 29 4 29 9.5 c 128,-1,27
 29 15 29 15 31 22 c 0,28,29
 157 434 157 434 204.5 585 c 128,-1,30
 252 736 252 736 255 746 c 0,31,32
 262 769 262 769 406 769 c 0,6,7
357 638 m 1,33,-1
 271 349 l 1,34,-1
 370 349 l 1,35,-1
 357 638 l 1,33,-1
EndSplineSet
EndChar

StartChar: Aacute
Encoding: 193 193 128
Width: 528
GlyphClass: 2
Flags: W
LayerCount: 2
Fore
SplineSet
379 792 m 1,0,-1
 336 813 l 1,1,-1
 342 868 l 1,2,-1
 417 992 l 1,3,-1
 463 1024 l 1,4,-1
 563 964 l 1,5,-1
 379 792 l 1,0,-1
406 769 m 0,6,7
 475 769 475 769 476 738 c 1,8,-1
 501 431 l 1,9,-1
 513 22 l 2,10,11
 513 -2 513 -2 506 -9 c 128,-1,12
 499 -16 499 -16 470 -16 c 0,13,14
 381 -16 381 -16 381 22 c 1,15,-1
 375 228 l 1,16,-1
 235 228 l 1,17,-1
 174 21 l 2,18,19
 169 3 169 3 166 -2 c 0,20,21
 160 -16 160 -16 127.5 -16 c 128,-1,22
 95 -16 95 -16 81 -16 c 0,23,24
 38 -14 38 -14 31 0 c 0,25,26
 29 4 29 4 29 9.5 c 128,-1,27
 29 15 29 15 31 22 c 0,28,29
 157 434 157 434 204.5 585 c 128,-1,30
 252 736 252 736 255 746 c 0,31,32
 262 769 262 769 406 769 c 0,6,7
357 638 m 1,33,-1
 271 349 l 1,34,-1
 370 349 l 1,35,-1
 357 638 l 1,33,-1
EndSplineSet
EndChar

StartChar: Acircumflex
Encoding: 194 194 129
Width: 536
GlyphClass: 2
Flags: W
LayerCount: 2
Fore
SplineSet
258 828 m 1,0,-1
 223 860 l 1,1,-1
 244 914 l 1,2,-1
 359 1004 l 1,3,-1
 410 1024 l 1,4,-1
 457 1004 l 1,5,-1
 546 914 l 1,6,-1
 551 860 l 1,7,-1
 508 828 l 1,8,-1
 394 909 l 1,9,-1
 258 828 l 1,0,-1
406 769 m 0,10,11
 475 769 475 769 476 738 c 1,12,-1
 501 431 l 1,13,-1
 513 22 l 2,14,15
 513 -2 513 -2 506 -9 c 128,-1,16
 499 -16 499 -16 470 -16 c 0,17,18
 381 -16 381 -16 381 22 c 1,19,-1
 375 228 l 1,20,-1
 235 228 l 1,21,-1
 174 21 l 2,22,23
 169 3 169 3 166 -2 c 0,24,25
 160 -16 160 -16 127.5 -16 c 128,-1,26
 95 -16 95 -16 81 -16 c 0,27,28
 38 -14 38 -14 31 0 c 0,29,30
 29 4 29 4 29 9.5 c 128,-1,31
 29 15 29 15 31 22 c 0,32,33
 157 434 157 434 204.5 585 c 128,-1,34
 252 736 252 736 255 746 c 0,35,36
 262 769 262 769 406 769 c 0,10,11
357 638 m 1,37,-1
 271 349 l 1,38,-1
 370 349 l 1,39,-1
 357 638 l 1,37,-1
EndSplineSet
EndChar

StartChar: Atilde
Encoding: 195 195 130
Width: 531
GlyphClass: 2
Flags: W
LayerCount: 2
Fore
SplineSet
559 884 m 1,0,1
 552 884 552 884 513.5 884 c 128,-1,2
 475 884 475 884 400.5 874 c 128,-1,3
 326 864 326 864 276 864 c 128,-1,4
 226 864 226 864 215.5 872.5 c 128,-1,5
 205 881 205 881 205 894.5 c 128,-1,6
 205 908 205 908 206 916 c 1,7,-1
 238 967 l 1,8,9
 313 967 313 967 380 976 c 128,-1,10
 447 985 447 985 500 985 c 128,-1,11
 553 985 553 985 567.5 975.5 c 128,-1,12
 582 966 582 966 582 944 c 0,13,14
 582 937 582 937 581 929 c 1,15,-1
 559 884 l 1,0,1
406 769 m 0,16,17
 475 769 475 769 476 738 c 1,18,-1
 501 431 l 1,19,-1
 513 22 l 2,20,21
 513 -2 513 -2 506 -9 c 128,-1,22
 499 -16 499 -16 470 -16 c 0,23,24
 381 -16 381 -16 381 22 c 1,25,-1
 375 228 l 1,26,-1
 235 228 l 1,27,-1
 174 21 l 2,28,29
 169 3 169 3 166 -2 c 0,30,31
 160 -16 160 -16 127.5 -16 c 128,-1,32
 95 -16 95 -16 81 -16 c 0,33,34
 38 -14 38 -14 31 0 c 0,35,36
 29 4 29 4 29 9.5 c 128,-1,37
 29 15 29 15 31 22 c 0,38,39
 157 434 157 434 204.5 585 c 128,-1,40
 252 736 252 736 255 746 c 0,41,42
 262 769 262 769 406 769 c 0,16,17
357 638 m 1,43,-1
 271 349 l 1,44,-1
 370 349 l 1,45,-1
 357 638 l 1,43,-1
EndSplineSet
EndChar

StartChar: Adieresis
Encoding: 196 196 131
Width: 539
GlyphClass: 2
Flags: W
LayerCount: 2
Fore
SplineSet
294 1024 m 0,0,1
 357 1024 357 1024 357 968 c 0,2,3
 357 961 357 961 356 952 c 0,4,5
 346 880 346 880 274 880 c 0,6,7
 211 880 211 880 211 936 c 0,8,9
 211 943 211 943 212 952 c 0,10,11
 222 1024 222 1024 294 1024 c 0,0,1
528 1024 m 0,12,13
 591 1024 591 1024 591 968 c 0,14,15
 591 961 591 961 590 952 c 0,16,17
 580 880 580 880 508 880 c 0,18,19
 445 880 445 880 445 936 c 0,20,21
 445 943 445 943 446 952 c 0,22,23
 456 1024 456 1024 528 1024 c 0,12,13
406 769 m 0,24,25
 475 769 475 769 476 738 c 1,26,-1
 501 431 l 1,27,-1
 513 22 l 2,28,29
 513 -2 513 -2 506 -9 c 128,-1,30
 499 -16 499 -16 470 -16 c 0,31,32
 381 -16 381 -16 381 22 c 1,33,-1
 375 228 l 1,34,-1
 235 228 l 1,35,-1
 174 21 l 2,36,37
 169 3 169 3 166 -2 c 0,38,39
 160 -16 160 -16 127.5 -16 c 128,-1,40
 95 -16 95 -16 81 -16 c 0,41,42
 38 -14 38 -14 31 0 c 0,43,44
 29 4 29 4 29 9.5 c 128,-1,45
 29 15 29 15 31 22 c 0,46,47
 157 434 157 434 204.5 585 c 128,-1,48
 252 736 252 736 255 746 c 0,49,50
 262 769 262 769 406 769 c 0,24,25
357 638 m 1,51,-1
 271 349 l 1,52,-1
 370 349 l 1,53,-1
 357 638 l 1,51,-1
EndSplineSet
EndChar

StartChar: Aring
Encoding: 197 197 132
Width: 529
GlyphClass: 2
Flags: W
LayerCount: 2
Fore
SplineSet
401 985 m 0,0,1
 485 985 485 985 485 912 c 0,2,3
 485 901 485 901 483 889 c 0,4,5
 470 793 470 793 374 793 c 0,6,7
 289 793 289 793 289 867 c 0,8,9
 289 878 289 878 291 889 c 0,10,11
 305 985 305 985 401 985 c 0,0,1
383 854 m 0,12,13
 423 854 423 854 423 897 c 0,14,15
 423 924 423 924 390 924 c 128,-1,16
 357 924 357 924 352 889 c 0,17,18
 352 885 352 885 352 882 c 0,19,20
 352 854 352 854 383 854 c 0,12,13
406 769 m 0,21,22
 475 769 475 769 476 738 c 1,23,-1
 501 431 l 1,24,-1
 513 22 l 2,25,26
 513 -2 513 -2 506 -9 c 128,-1,27
 499 -16 499 -16 470 -16 c 0,28,29
 381 -16 381 -16 381 22 c 1,30,-1
 375 228 l 1,31,-1
 235 228 l 1,32,-1
 174 21 l 2,33,34
 169 3 169 3 166 -2 c 0,35,36
 160 -16 160 -16 127.5 -16 c 128,-1,37
 95 -16 95 -16 81 -16 c 0,38,39
 38 -14 38 -14 31 0 c 0,40,41
 29 4 29 4 29 9.5 c 128,-1,42
 29 15 29 15 31 22 c 0,43,44
 157 434 157 434 204.5 585 c 128,-1,45
 252 736 252 736 255 746 c 0,46,47
 262 769 262 769 406 769 c 0,21,22
357 638 m 1,48,-1
 271 349 l 1,49,-1
 370 349 l 1,50,-1
 357 638 l 1,48,-1
EndSplineSet
EndChar

StartChar: AE
Encoding: 198 198 133
Width: 765
GlyphClass: 2
Flags: W
LayerCount: 2
Fore
SplineSet
782 752 m 1,0,1
 821 750 821 750 821 725 c 0,2,3
 821 713 821 713 814 688 c 0,4,5
 799 632 799 632 762 632 c 2,6,-1
 539 632 l 1,7,-1
 525 455 l 1,8,-1
 718 455 l 2,9,10
 754 455 754 455 754 428 c 0,11,12
 754 424 754 424 750.5 397.5 c 128,-1,13
 747 371 747 371 738 352.5 c 128,-1,14
 729 334 729 334 704 334 c 2,15,-1
 508 334 l 1,16,-1
 479 121 l 1,17,-1
 710 121 l 1,18,19
 733 120 733 120 741 111.5 c 128,-1,20
 749 103 749 103 747 86 c 0,21,22
 740 37 740 37 728.5 18.5 c 128,-1,23
 717 0 717 0 690 0 c 2,24,-1
 338 0 l 1,25,-1
 324 16 l 1,26,-1
 354 228 l 1,27,-1
 235 228 l 1,28,-1
 174 21 l 2,29,30
 169 3 169 3 166 -2 c 0,31,32
 160 -16 160 -16 127.5 -16 c 128,-1,33
 95 -16 95 -16 81 -16 c 0,34,35
 38 -14 38 -14 31 0 c 0,36,37
 29 4 29 4 29 9.5 c 128,-1,38
 29 15 29 15 31 22 c 2,39,-1
 241 692 l 2,40,41
 254 736 254 736 310 745 c 0,42,43
 352 752 352 752 428 752 c 2,44,-1
 782 752 l 1,0,1
357 638 m 1,45,-1
 271 349 l 1,46,-1
 370 349 l 1,47,-1
 410 638 l 1,48,-1
 357 638 l 1,45,-1
EndSplineSet
EndChar

StartChar: Ccedilla
Encoding: 199 199 134
Width: 469
GlyphClass: 2
Flags: W
LayerCount: 2
Fore
SplineSet
369 -135 m 0,0,1
 369 -158 369 -158 360 -186 c 0,2,3
 327 -286 327 -286 241 -286 c 0,4,5
 226 -286 226 -286 208 -283 c 1,6,-1
 231 -209 l 1,7,8
 237 -210 237 -210 242 -210 c 0,9,10
 276 -210 276 -210 287 -173 c 0,11,12
 290 -162 290 -162 290 -154 c 0,13,14
 290 -127 290 -127 258 -122 c 2,15,-1
 203 -112 l 1,16,-1
 234 -12 l 1,17,18
 122 2 122 2 90 88 c 0,19,20
 73 134 73 134 73 206.5 c 128,-1,21
 73 279 73 279 86 371 c 0,22,23
 108 531 108 531 144.5 615.5 c 128,-1,24
 181 700 181 700 240 734 c 128,-1,25
 299 768 299 768 407.5 768 c 128,-1,26
 516 768 516 768 562 734 c 0,27,28
 569 728 569 728 569 719 c 128,-1,29
 569 710 569 710 555 681 c 128,-1,30
 541 652 541 652 531.5 640.5 c 128,-1,31
 522 629 522 629 512.5 629 c 128,-1,32
 503 629 503 629 498 630 c 0,33,34
 425 645 425 645 370.5 645 c 128,-1,35
 316 645 316 645 291 585 c 128,-1,36
 266 525 266 525 247 388.5 c 128,-1,37
 228 252 228 252 228 200.5 c 128,-1,38
 228 149 228 149 244 128.5 c 128,-1,39
 260 108 260 108 301.5 108 c 128,-1,40
 343 108 343 108 446 118 c 0,41,42
 462 119 462 119 468 111.5 c 128,-1,43
 474 104 474 104 472 89 c 0,44,45
 465 39 465 39 457 20 c 128,-1,46
 449 1 449 1 426 -3 c 0,47,48
 335 -16 335 -16 291 -16 c 1,49,-1
 282 -47 l 1,50,51
 369 -64 369 -64 369 -135 c 0,0,1
EndSplineSet
EndChar

StartChar: Egrave
Encoding: 200 200 135
Width: 450
GlyphClass: 2
Flags: W
LayerCount: 2
Fore
SplineSet
385 813 m 1,0,-1
 336 792 l 1,1,-1
 200 964 l 1,2,-1
 316 1024 l 1,3,-1
 354 992 l 1,4,-1
 393 868 l 1,5,-1
 385 813 l 1,0,-1
505 752 m 1,6,7
 544 750 544 750 544 725 c 0,8,9
 544 713 544 713 537 688 c 0,10,11
 522 632 522 632 485 632 c 2,12,-1
 262 632 l 1,13,-1
 248 455 l 1,14,-1
 441 455 l 2,15,16
 477 455 477 455 477 428 c 0,17,18
 477 424 477 424 473.5 397.5 c 128,-1,19
 470 371 470 371 461 352.5 c 128,-1,20
 452 334 452 334 427 334 c 2,21,-1
 231 334 l 1,22,-1
 202 121 l 1,23,-1
 433 121 l 1,24,25
 456 120 456 120 464 111.5 c 128,-1,26
 472 103 472 103 470 86 c 0,27,28
 463 37 463 37 451.5 18.5 c 128,-1,29
 440 0 440 0 413 0 c 2,30,-1
 61 0 l 1,31,-1
 47 16 l 1,32,-1
 150 752 l 1,33,-1
 505 752 l 1,6,7
EndSplineSet
EndChar

StartChar: Eacute
Encoding: 201 201 136
Width: 451
GlyphClass: 2
Flags: W
LayerCount: 2
Fore
SplineSet
341 792 m 1,0,-1
 298 813 l 1,1,-1
 304 868 l 1,2,-1
 379 992 l 1,3,-1
 425 1024 l 1,4,-1
 525 964 l 1,5,-1
 341 792 l 1,0,-1
489 752 m 1,6,7
 528 750 528 750 528 725 c 0,8,9
 528 713 528 713 521 688 c 0,10,11
 506 632 506 632 469 632 c 2,12,-1
 246 632 l 1,13,-1
 232 455 l 1,14,-1
 425 455 l 2,15,16
 461 455 461 455 461 428 c 0,17,18
 461 424 461 424 457.5 397.5 c 128,-1,19
 454 371 454 371 445 352.5 c 128,-1,20
 436 334 436 334 411 334 c 2,21,-1
 215 334 l 1,22,-1
 186 121 l 1,23,-1
 417 121 l 1,24,25
 440 120 440 120 448 111.5 c 128,-1,26
 456 103 456 103 454 86 c 0,27,28
 447 37 447 37 435.5 18.5 c 128,-1,29
 424 0 424 0 397 0 c 2,30,-1
 45 0 l 1,31,-1
 31 16 l 1,32,-1
 134 752 l 1,33,-1
 489 752 l 1,6,7
EndSplineSet
EndChar

StartChar: Ecircumflex
Encoding: 202 202 137
Width: 461
GlyphClass: 2
Flags: W
LayerCount: 2
Fore
SplineSet
226 828 m 1,0,-1
 191 860 l 1,1,-1
 212 914 l 1,2,-1
 327 1004 l 1,3,-1
 378 1024 l 1,4,-1
 425 1004 l 1,5,-1
 514 914 l 1,6,-1
 519 860 l 1,7,-1
 476 828 l 1,8,-1
 362 909 l 1,9,-1
 226 828 l 1,0,-1
498 752 m 1,10,11
 537 750 537 750 537 725 c 0,12,13
 537 713 537 713 530 688 c 0,14,15
 515 632 515 632 478 632 c 2,16,-1
 255 632 l 1,17,-1
 241 455 l 1,18,-1
 434 455 l 2,19,20
 470 455 470 455 470 428 c 0,21,22
 470 424 470 424 466.5 397.5 c 128,-1,23
 463 371 463 371 454 352.5 c 128,-1,24
 445 334 445 334 420 334 c 2,25,-1
 224 334 l 1,26,-1
 195 121 l 1,27,-1
 426 121 l 1,28,29
 449 120 449 120 457 111.5 c 128,-1,30
 465 103 465 103 463 86 c 0,31,32
 456 37 456 37 444.5 18.5 c 128,-1,33
 433 0 433 0 406 0 c 2,34,-1
 54 0 l 1,35,-1
 40 16 l 1,36,-1
 143 752 l 1,37,-1
 498 752 l 1,10,11
EndSplineSet
EndChar

StartChar: Edieresis
Encoding: 203 203 138
Width: 466
GlyphClass: 2
Flags: W
LayerCount: 2
Fore
SplineSet
263 1024 m 0,0,1
 326 1024 326 1024 326 968 c 0,2,3
 326 961 326 961 325 952 c 0,4,5
 315 880 315 880 243 880 c 0,6,7
 180 880 180 880 180 936 c 0,8,9
 180 943 180 943 181 952 c 0,10,11
 191 1024 191 1024 263 1024 c 0,0,1
497 1024 m 0,12,13
 560 1024 560 1024 560 968 c 0,14,15
 560 961 560 961 559 952 c 0,16,17
 549 880 549 880 477 880 c 0,18,19
 414 880 414 880 414 936 c 0,20,21
 414 943 414 943 415 952 c 0,22,23
 425 1024 425 1024 497 1024 c 0,12,13
501 752 m 1,24,25
 540 750 540 750 540 725 c 0,26,27
 540 713 540 713 533 688 c 0,28,29
 518 632 518 632 481 632 c 2,30,-1
 258 632 l 1,31,-1
 244 455 l 1,32,-1
 437 455 l 2,33,34
 473 455 473 455 473 428 c 0,35,36
 473 424 473 424 469.5 397.5 c 128,-1,37
 466 371 466 371 457 352.5 c 128,-1,38
 448 334 448 334 423 334 c 2,39,-1
 227 334 l 1,40,-1
 198 121 l 1,41,-1
 429 121 l 1,42,43
 452 120 452 120 460 111.5 c 128,-1,44
 468 103 468 103 466 86 c 0,45,46
 459 37 459 37 447.5 18.5 c 128,-1,47
 436 0 436 0 409 0 c 2,48,-1
 57 0 l 1,49,-1
 43 16 l 1,50,-1
 146 752 l 1,51,-1
 501 752 l 1,24,25
EndSplineSet
EndChar

StartChar: Igrave
Encoding: 204 204 139
Width: 335
GlyphClass: 2
Flags: W
LayerCount: 2
Fore
SplineSet
339 813 m 1,0,-1
 290 792 l 1,1,-1
 154 964 l 1,2,-1
 270 1024 l 1,3,-1
 308 992 l 1,4,-1
 347 868 l 1,5,-1
 339 813 l 1,0,-1
158 668 m 0,6,7
 158 752 158 752 201 752 c 2,8,-1
 378 752 l 2,9,10
 418 752 418 752 418 726 c 0,11,12
 418 724 418 724 418 721 c 0,13,14
 405 632 405 632 370 632 c 2,15,-1
 345 632 l 1,16,-1
 327 432 l 1,17,-1
 285 121 l 1,18,-1
 315 121 l 1,19,20
 346 120 346 120 346 96 c 0,21,22
 346 78 346 78 338 54 c 0,23,24
 320 0 320 0 284 0 c 2,25,-1
 95 0 l 1,26,27
 77 1 77 1 73 10.5 c 128,-1,28
 69 20 69 20 69 31.5 c 128,-1,29
 69 43 69 43 72 66 c 0,30,31
 77 121 77 121 108 121 c 2,32,-1
 144 121 l 1,33,-1
 215 632 l 1,34,-1
 185 632 l 1,35,36
 166 633 166 633 162 642.5 c 128,-1,37
 158 652 158 652 158 668 c 0,6,7
EndSplineSet
EndChar

StartChar: Iacute
Encoding: 205 205 140
Width: 335
GlyphClass: 2
Flags: W
LayerCount: 2
Fore
SplineSet
267 792 m 1,0,-1
 224 813 l 1,1,-1
 230 868 l 1,2,-1
 305 992 l 1,3,-1
 351 1024 l 1,4,-1
 451 964 l 1,5,-1
 267 792 l 1,0,-1
104 668 m 0,6,7
 104 752 104 752 147 752 c 2,8,-1
 324 752 l 2,9,10
 364 752 364 752 364 726 c 0,11,12
 364 724 364 724 364 721 c 0,13,14
 351 632 351 632 316 632 c 2,15,-1
 291 632 l 1,16,-1
 273 432 l 1,17,-1
 231 121 l 1,18,-1
 261 121 l 1,19,20
 292 120 292 120 292 96 c 0,21,22
 292 78 292 78 284 54 c 0,23,24
 266 0 266 0 230 0 c 2,25,-1
 41 0 l 1,26,27
 23 1 23 1 19 10.5 c 128,-1,28
 15 20 15 20 15 31.5 c 128,-1,29
 15 43 15 43 18 66 c 0,30,31
 23 121 23 121 54 121 c 2,32,-1
 90 121 l 1,33,-1
 161 632 l 1,34,-1
 131 632 l 1,35,36
 112 633 112 633 108 642.5 c 128,-1,37
 104 652 104 652 104 668 c 0,6,7
EndSplineSet
EndChar

StartChar: Icircumflex
Encoding: 206 206 141
Width: 376
GlyphClass: 2
Flags: W
LayerCount: 2
Fore
SplineSet
178 828 m 1,0,-1
 143 860 l 1,1,-1
 164 914 l 1,2,-1
 279 1004 l 1,3,-1
 330 1024 l 1,4,-1
 377 1004 l 1,5,-1
 466 914 l 1,6,-1
 471 860 l 1,7,-1
 428 828 l 1,8,-1
 314 909 l 1,9,-1
 178 828 l 1,0,-1
153 668 m 0,10,11
 153 752 153 752 196 752 c 2,12,-1
 373 752 l 2,13,14
 413 752 413 752 413 726 c 0,15,16
 413 724 413 724 413 721 c 0,17,18
 400 632 400 632 365 632 c 2,19,-1
 340 632 l 1,20,-1
 322 432 l 1,21,-1
 280 121 l 1,22,-1
 310 121 l 1,23,24
 341 120 341 120 341 96 c 0,25,26
 341 78 341 78 333 54 c 0,27,28
 315 0 315 0 279 0 c 2,29,-1
 90 0 l 1,30,31
 72 1 72 1 68 10.5 c 128,-1,32
 64 20 64 20 64 31.5 c 128,-1,33
 64 43 64 43 67 66 c 0,34,35
 72 121 72 121 103 121 c 2,36,-1
 139 121 l 1,37,-1
 210 632 l 1,38,-1
 180 632 l 1,39,40
 161 633 161 633 157 642.5 c 128,-1,41
 153 652 153 652 153 668 c 0,10,11
EndSplineSet
EndChar

StartChar: Idieresis
Encoding: 207 207 142
Width: 421
GlyphClass: 2
Flags: W
LayerCount: 2
Fore
SplineSet
236 1024 m 0,0,1
 299 1024 299 1024 299 968 c 0,2,3
 299 961 299 961 298 952 c 0,4,5
 288 880 288 880 216 880 c 0,6,7
 153 880 153 880 153 936 c 0,8,9
 153 943 153 943 154 952 c 0,10,11
 164 1024 164 1024 236 1024 c 0,0,1
470 1024 m 0,12,13
 533 1024 533 1024 533 968 c 0,14,15
 533 961 533 961 532 952 c 0,16,17
 522 880 522 880 450 880 c 0,18,19
 387 880 387 880 387 936 c 0,20,21
 387 943 387 943 388 952 c 0,22,23
 398 1024 398 1024 470 1024 c 0,12,13
197 668 m 0,24,25
 197 752 197 752 240 752 c 2,26,-1
 417 752 l 2,27,28
 457 752 457 752 457 726 c 0,29,30
 457 724 457 724 457 721 c 0,31,32
 444 632 444 632 409 632 c 2,33,-1
 384 632 l 1,34,-1
 366 432 l 1,35,-1
 324 121 l 1,36,-1
 354 121 l 1,37,38
 385 120 385 120 385 96 c 0,39,40
 385 78 385 78 377 54 c 0,41,42
 359 0 359 0 323 0 c 2,43,-1
 134 0 l 1,44,45
 116 1 116 1 112 10.5 c 128,-1,46
 108 20 108 20 108 31.5 c 128,-1,47
 108 43 108 43 111 66 c 0,48,49
 116 121 116 121 147 121 c 2,50,-1
 183 121 l 1,51,-1
 254 632 l 1,52,-1
 224 632 l 1,53,54
 205 633 205 633 201 642.5 c 128,-1,55
 197 652 197 652 197 668 c 0,24,25
EndSplineSet
EndChar

StartChar: Eth
Encoding: 208 208 143
Width: 571
GlyphClass: 2
Flags: W
LayerCount: 2
Fore
SplineSet
150 751 m 1,0,1
 304 768 304 768 370.5 768 c 128,-1,2
 437 768 437 768 479 758 c 0,3,4
 570 736 570 736 592 654 c 0,5,6
 603 611 603 611 603 550 c 0,7,8
 603 484 603 484 588 383 c 0,9,10
 557 161 557 161 486.5 72.5 c 128,-1,11
 416 -16 416 -16 261 -16 c 0,12,13
 224 -16 224 -16 45 0 c 1,14,-1
 150 751 l 1,0,1
369 428 m 0,15,16
 369 424 369 424 365.5 397.5 c 128,-1,17
 362 371 362 371 353 352.5 c 128,-1,18
 344 334 344 334 319 334 c 2,19,-1
 232 334 l 1,20,-1
 203 124 l 2,21,22
 202 114 202 114 215 111.5 c 128,-1,23
 228 109 228 109 266.5 109 c 128,-1,24
 305 109 305 109 321 111 c 128,-1,25
 337 113 337 113 353 123 c 128,-1,26
 369 133 369 133 377 147 c 128,-1,27
 385 161 385 161 394 194 c 0,28,29
 405 232 405 232 423.5 358.5 c 128,-1,30
 442 485 442 485 442 551 c 0,31,32
 442 649 442 649 408 649 c 0,33,34
 321 649 321 649 298.5 645.5 c 128,-1,35
 276 642 276 642 273 626 c 2,36,-1
 249 455 l 1,37,-1
 337 455 l 1,38,39
 369 453 369 453 369 428 c 0,15,16
EndSplineSet
EndChar

StartChar: Ntilde
Encoding: 209 209 144
Width: 527
GlyphClass: 2
Flags: W
LayerCount: 2
Fore
SplineSet
563 884 m 1,0,1
 556 884 556 884 517.5 884 c 128,-1,2
 479 884 479 884 404.5 874 c 128,-1,3
 330 864 330 864 280 864 c 128,-1,4
 230 864 230 864 219.5 872.5 c 128,-1,5
 209 881 209 881 209 894.5 c 128,-1,6
 209 908 209 908 210 916 c 1,7,-1
 242 967 l 1,8,9
 317 967 317 967 384 976 c 128,-1,10
 451 985 451 985 504 985 c 128,-1,11
 557 985 557 985 571.5 975.5 c 128,-1,12
 586 966 586 966 586 944 c 0,13,14
 586 937 586 937 585 929 c 1,15,-1
 563 884 l 1,0,1
222 768 m 0,17,18
 237 768 237 768 245.5 767 c 128,-1,19
 254 766 254 766 266 757.5 c 128,-1,20
 278 749 278 749 286 733 c 1,21,-1
 405 313 l 1,22,-1
 458 732 l 2,23,24
 463 768 463 768 535 768 c 0,25,26
 565 768 565 768 574 761.5 c 128,-1,27
 583 755 583 755 583 745.5 c 128,-1,28
 583 736 583 736 583 732 c 2,29,-1
 557 431 l 1,30,-1
 499 21 l 2,31,32
 496 -3 496 -3 489 -9.5 c 128,-1,33
 482 -16 482 -16 454 -16 c 0,34,35
 389 -16 389 -16 381 21 c 1,36,-1
 243 436 l 1,37,-1
 186 22 l 2,38,39
 182 -3 182 -3 175 -9.5 c 128,-1,40
 168 -16 168 -16 140 -16 c 0,41,42
 40 -16 40 -16 46 24 c 2,43,-1
 145 731 l 2,44,16
 150 768 150 768 222 768 c 0,17,18
EndSplineSet
EndChar

StartChar: Ograve
Encoding: 210 210 145
Width: 577
GlyphClass: 2
Flags: W
LayerCount: 2
Fore
SplineSet
237.5 734 m 128,-1,1
 297 768 297 768 387.5 768 c 128,-1,2
 478 768 478 768 523 750.5 c 128,-1,3
 568 733 568 733 594.5 688.5 c 128,-1,4
 621 644 621 644 621 568.5 c 128,-1,5
 621 493 621 493 606 371 c 1,6,7
 575 152 575 152 507 68 c 128,-1,8
 439 -16 439 -16 290 -16 c 128,-1,9
 141 -16 141 -16 96 68 c 0,10,11
 70 118 70 118 70 199.5 c 128,-1,12
 70 281 70 281 83 371 c 0,13,14
 105 531 105 531 141.5 615.5 c 128,-1,0
 178 700 178 700 237.5 734 c 128,-1,1
442 662 m 0,15,16
 402 662 402 662 377 658.5 c 128,-1,17
 352 655 352 655 331 641.5 c 128,-1,18
 310 628 310 628 298.5 611.5 c 128,-1,19
 287 595 287 595 276 558 c 0,20,21
 261 508 261 508 244 383 c 1,22,23
 222 232 222 232 222 180.5 c 128,-1,24
 222 129 222 129 228.5 112.5 c 128,-1,25
 235 96 235 96 252 96 c 0,26,27
 293 96 293 96 315.5 97.5 c 128,-1,28
 338 99 338 99 360.5 110.5 c 128,-1,29
 383 122 383 122 393 136 c 128,-1,30
 403 150 403 150 414 186 c 0,31,32
 439 263 439 263 463 474 c 0,33,34
 471 541 471 541 471 601.5 c 128,-1,35
 471 662 471 662 442 662 c 0,15,16
427 813 m 1,36,-1
 378 792 l 1,37,-1
 242 964 l 1,38,-1
 358 1024 l 1,39,-1
 396 992 l 1,40,-1
 435 868 l 1,41,-1
 427 813 l 1,36,-1
EndSplineSet
EndChar

StartChar: Oacute
Encoding: 211 211 146
Width: 577
GlyphClass: 2
Flags: W
LayerCount: 2
Fore
SplineSet
229.5 734 m 128,-1,1
 289 768 289 768 379.5 768 c 128,-1,2
 470 768 470 768 515 750.5 c 128,-1,3
 560 733 560 733 586.5 688.5 c 128,-1,4
 613 644 613 644 613 568.5 c 128,-1,5
 613 493 613 493 598 371 c 1,6,7
 567 152 567 152 499 68 c 128,-1,8
 431 -16 431 -16 282 -16 c 128,-1,9
 133 -16 133 -16 88 68 c 0,10,11
 62 118 62 118 62 199.5 c 128,-1,12
 62 281 62 281 75 371 c 0,13,14
 97 531 97 531 133.5 615.5 c 128,-1,0
 170 700 170 700 229.5 734 c 128,-1,1
434 662 m 0,15,16
 394 662 394 662 369 658.5 c 128,-1,17
 344 655 344 655 323 641.5 c 128,-1,18
 302 628 302 628 290.5 611.5 c 128,-1,19
 279 595 279 595 268 558 c 0,20,21
 253 508 253 508 236 383 c 1,22,23
 214 232 214 232 214 180.5 c 128,-1,24
 214 129 214 129 220.5 112.5 c 128,-1,25
 227 96 227 96 244 96 c 0,26,27
 285 96 285 96 307.5 97.5 c 128,-1,28
 330 99 330 99 352.5 110.5 c 128,-1,29
 375 122 375 122 385 136 c 128,-1,30
 395 150 395 150 406 186 c 0,31,32
 431 263 431 263 455 474 c 0,33,34
 463 541 463 541 463 601.5 c 128,-1,35
 463 662 463 662 434 662 c 0,15,16
414 792 m 1,36,-1
 371 813 l 1,37,-1
 377 868 l 1,38,-1
 452 992 l 1,39,-1
 498 1024 l 1,40,-1
 598 964 l 1,41,-1
 414 792 l 1,36,-1
EndSplineSet
EndChar

StartChar: Ocircumflex
Encoding: 212 212 147
Width: 583
GlyphClass: 2
Flags: W
LayerCount: 2
Fore
SplineSet
236.5 734 m 128,-1,1
 296 768 296 768 386.5 768 c 128,-1,2
 477 768 477 768 522 750.5 c 128,-1,3
 567 733 567 733 593.5 688.5 c 128,-1,4
 620 644 620 644 620 568.5 c 128,-1,5
 620 493 620 493 605 371 c 1,6,7
 574 152 574 152 506 68 c 128,-1,8
 438 -16 438 -16 289 -16 c 128,-1,9
 140 -16 140 -16 96 68 c 0,10,11
 69 118 69 118 69 199.5 c 128,-1,12
 69 281 69 281 82 371 c 0,13,14
 104 531 104 531 140.5 615.5 c 128,-1,0
 177 700 177 700 236.5 734 c 128,-1,1
441 662 m 0,15,16
 401 662 401 662 376 658.5 c 128,-1,17
 351 655 351 655 330 641.5 c 128,-1,18
 309 628 309 628 297.5 611.5 c 128,-1,19
 286 595 286 595 275 558 c 0,20,21
 260 508 260 508 243 383 c 1,22,23
 221 232 221 232 221 180.5 c 128,-1,24
 221 129 221 129 227.5 112.5 c 128,-1,25
 234 96 234 96 251 96 c 0,26,27
 292 96 292 96 314.5 97.5 c 128,-1,28
 337 99 337 99 359.5 110.5 c 128,-1,29
 382 122 382 122 392 136 c 128,-1,30
 402 150 402 150 414 186 c 0,31,32
 438 263 438 263 462 474 c 0,33,34
 470 541 470 541 470 601.5 c 128,-1,35
 470 662 470 662 441 662 c 0,15,16
282 828 m 1,36,-1
 247 860 l 1,37,-1
 268 914 l 1,38,-1
 383 1004 l 1,39,-1
 434 1024 l 1,40,-1
 481 1004 l 1,41,-1
 570 914 l 1,42,-1
 575 860 l 1,43,-1
 532 828 l 1,44,-1
 418 909 l 1,45,-1
 282 828 l 1,36,-1
EndSplineSet
EndChar

StartChar: Otilde
Encoding: 213 213 148
Width: 583
GlyphClass: 2
Flags: W
LayerCount: 2
Fore
SplineSet
236.5 734 m 128,-1,1
 296 768 296 768 386.5 768 c 128,-1,2
 477 768 477 768 522 750.5 c 128,-1,3
 567 733 567 733 593.5 688.5 c 128,-1,4
 620 644 620 644 620 568.5 c 128,-1,5
 620 493 620 493 605 371 c 1,6,7
 574 152 574 152 506 68 c 128,-1,8
 438 -16 438 -16 289 -16 c 128,-1,9
 140 -16 140 -16 96 68 c 0,10,11
 69 118 69 118 69 199.5 c 128,-1,12
 69 281 69 281 82 371 c 0,13,14
 104 531 104 531 140.5 615.5 c 128,-1,0
 177 700 177 700 236.5 734 c 128,-1,1
441 662 m 0,15,16
 401 662 401 662 376 658.5 c 128,-1,17
 351 655 351 655 330 641.5 c 128,-1,18
 309 628 309 628 297.5 611.5 c 128,-1,19
 286 595 286 595 275 558 c 0,20,21
 260 508 260 508 243 383 c 1,22,23
 221 232 221 232 221 180.5 c 128,-1,24
 221 129 221 129 227.5 112.5 c 128,-1,25
 234 96 234 96 251 96 c 0,26,27
 292 96 292 96 314.5 97.5 c 128,-1,28
 337 99 337 99 359.5 110.5 c 128,-1,29
 382 122 382 122 392 136 c 128,-1,30
 402 150 402 150 414 186 c 0,31,32
 438 263 438 263 462 474 c 0,33,34
 470 541 470 541 470 601.5 c 128,-1,35
 470 662 470 662 441 662 c 0,15,16
585 884 m 1,36,37
 578 884 578 884 539.5 884 c 128,-1,38
 501 884 501 884 426.5 874 c 128,-1,39
 352 864 352 864 302 864 c 128,-1,40
 252 864 252 864 241.5 872.5 c 128,-1,41
 231 881 231 881 231 894.5 c 128,-1,42
 231 908 231 908 232 916 c 1,43,-1
 264 967 l 1,44,45
 339 967 339 967 406 976 c 128,-1,46
 473 985 473 985 526 985 c 128,-1,47
 579 985 579 985 593.5 975.5 c 128,-1,48
 608 966 608 966 608 944 c 0,49,50
 608 937 608 937 607 929 c 1,51,-1
 585 884 l 1,36,37
EndSplineSet
EndChar

StartChar: Odieresis
Encoding: 214 214 149
Width: 586
GlyphClass: 2
Flags: W
LayerCount: 2
Fore
SplineSet
237.5 734 m 128,-1,1
 297 768 297 768 387.5 768 c 128,-1,2
 478 768 478 768 523 750.5 c 128,-1,3
 568 733 568 733 594.5 688.5 c 128,-1,4
 621 644 621 644 621 568.5 c 128,-1,5
 621 493 621 493 606 371 c 1,6,7
 575 152 575 152 507 68 c 128,-1,8
 439 -16 439 -16 290 -16 c 128,-1,9
 141 -16 141 -16 96 68 c 0,10,11
 70 118 70 118 70 199.5 c 128,-1,12
 70 281 70 281 83 371 c 0,13,14
 105 531 105 531 141.5 615.5 c 128,-1,0
 178 700 178 700 237.5 734 c 128,-1,1
442 662 m 0,15,16
 402 662 402 662 377 658.5 c 128,-1,17
 352 655 352 655 331 641.5 c 128,-1,18
 310 628 310 628 298.5 611.5 c 128,-1,19
 287 595 287 595 276 558 c 0,20,21
 261 508 261 508 244 383 c 1,22,23
 222 232 222 232 222 180.5 c 128,-1,24
 222 129 222 129 228.5 112.5 c 128,-1,25
 235 96 235 96 252 96 c 0,26,27
 293 96 293 96 315.5 97.5 c 128,-1,28
 338 99 338 99 360.5 110.5 c 128,-1,29
 383 122 383 122 393 136 c 128,-1,30
 403 150 403 150 414 186 c 0,31,32
 439 263 439 263 463 474 c 0,33,34
 471 541 471 541 471 601.5 c 128,-1,35
 471 662 471 662 442 662 c 0,15,16
318 1024 m 0,36,37
 381 1024 381 1024 381 968 c 0,38,39
 381 961 381 961 380 952 c 0,40,41
 370 880 370 880 298 880 c 0,42,43
 235 880 235 880 235 936 c 0,44,45
 235 943 235 943 236 952 c 0,46,47
 246 1024 246 1024 318 1024 c 0,36,37
552 1024 m 0,48,49
 615 1024 615 1024 615 968 c 0,50,51
 615 961 615 961 614 952 c 0,52,53
 604 880 604 880 532 880 c 0,54,55
 469 880 469 880 469 936 c 0,56,57
 469 943 469 943 470 952 c 0,58,59
 480 1024 480 1024 552 1024 c 0,48,49
EndSplineSet
EndChar

StartChar: multiply
Encoding: 215 215 150
Width: 427
GlyphClass: 2
Flags: W
LayerCount: 2
Fore
SplineSet
205 541 m 1,0,-1
 276 457 l 1,1,-1
 374 543 l 1,2,-1
 397 543 l 1,3,-1
 452 478 l 1,4,-1
 448 454 l 1,5,-1
 351 369 l 1,6,-1
 435 273 l 1,7,-1
 336 185 l 1,8,-1
 252 282 l 1,9,-1
 143 186 l 1,10,-1
 67 273 l 1,11,-1
 176 369 l 1,12,-1
 103 454 l 1,13,-1
 107 477 l 1,14,-1
 181 541 l 1,15,-1
 205 541 l 1,0,-1
EndSplineSet
EndChar

StartChar: Oslash
Encoding: 216 216 151
Width: 578
GlyphClass: 2
Flags: W
LayerCount: 2
Fore
SplineSet
141 14 m 1,0,1
 64 61 64 61 64 211 c 0,2,3
 64 279 64 279 78 371 c 1,4,5
 100 530 100 530 136.5 612 c 128,-1,6
 173 694 173 694 231.5 725 c 128,-1,7
 290 756 290 756 394 756 c 1,8,-1
 431 755 l 1,9,-1
 478 876 l 1,10,-1
 583 876 l 1,11,-1
 568 769 l 1,12,-1
 550 724 l 1,13,14
 616 680 616 680 616 542 c 0,15,16
 616 472 616 472 602 371 c 0,17,18
 571 152 571 152 503 68 c 128,-1,19
 435 -16 435 -16 285 -16 c 2,20,-1
 271 -16 l 1,21,-1
 223 -146 l 1,22,-1
 87 -146 l 1,23,-1
 91 -114 l 1,24,-1
 141 14 l 1,0,1
256 478 m 0,25,26
 220 254 220 254 220 156 c 0,27,28
 220 99 220 99 247 99 c 0,29,30
 334 99 334 99 363 118 c 1,31,32
 374 124 374 124 386 140 c 128,-1,33
 398 156 398 156 404 173 c 128,-1,34
 410 190 410 190 417 222 c 0,35,36
 431 278 431 278 445 381 c 0,37,38
 463 512 463 512 463 562 c 128,-1,39
 463 612 463 612 457 629 c 128,-1,40
 451 646 451 646 434 646 c 0,41,42
 394 646 394 646 370.5 643.5 c 128,-1,43
 347 641 347 641 326 629 c 128,-1,44
 305 617 305 617 294.5 602.5 c 128,-1,45
 284 588 284 588 273 552 c 128,-1,46
 262 516 262 516 256 478 c 0,25,26
EndSplineSet
EndChar

StartChar: Ugrave
Encoding: 217 217 152
Width: 529
GlyphClass: 2
Flags: W
LayerCount: 2
Fore
SplineSet
411 813 m 1,0,-1
 362 792 l 1,1,-1
 226 964 l 1,2,-1
 342 1024 l 1,3,-1
 380 992 l 1,4,-1
 419 868 l 1,5,-1
 411 813 l 1,0,-1
237 109 m 0,6,7
 272 109 272 109 291.5 110.5 c 128,-1,8
 311 112 311 112 330 122.5 c 128,-1,9
 349 133 349 133 358 147 c 128,-1,10
 367 161 367 161 377.5 194.5 c 128,-1,11
 388 228 388 228 394 265 c 128,-1,12
 400 302 400 302 410 370 c 2,13,-1
 459 722 l 2,14,15
 463 750 463 750 476 759 c 128,-1,16
 489 768 489 768 527 768 c 128,-1,17
 565 768 565 768 576 757.5 c 128,-1,18
 587 747 587 747 587 728 c 128,-1,19
 587 709 587 709 586 698 c 2,20,-1
 560 429 l 1,21,22
 537 252 537 252 502 157 c 128,-1,23
 467 62 467 62 412.5 23 c 128,-1,24
 358 -16 358 -16 265 -16 c 0,25,26
 131 -16 131 -16 92 68 c 0,27,28
 70 115 70 115 70 194 c 128,-1,29
 70 273 70 273 84 370 c 2,30,-1
 130 700 l 2,31,32
 136 743 136 743 150 755.5 c 128,-1,33
 164 768 164 768 203 768 c 128,-1,34
 242 768 242 768 252 756.5 c 128,-1,35
 262 745 262 745 262 725 c 128,-1,36
 262 705 262 705 261 690 c 2,37,-1
 239 431 l 1,38,39
 213 248 213 248 213 178.5 c 128,-1,40
 213 109 213 109 237 109 c 0,6,7
EndSplineSet
EndChar

StartChar: Uacute
Encoding: 218 218 153
Width: 528
GlyphClass: 2
Flags: W
LayerCount: 2
Fore
SplineSet
389 792 m 1,0,-1
 346 813 l 1,1,-1
 352 868 l 1,2,-1
 427 992 l 1,3,-1
 473 1024 l 1,4,-1
 573 964 l 1,5,-1
 389 792 l 1,0,-1
231 109 m 0,6,7
 266 109 266 109 285.5 110.5 c 128,-1,8
 305 112 305 112 324 122.5 c 128,-1,9
 343 133 343 133 352 147 c 128,-1,10
 361 161 361 161 371.5 194.5 c 128,-1,11
 382 228 382 228 388 265 c 128,-1,12
 394 302 394 302 404 370 c 2,13,-1
 453 722 l 2,14,15
 457 750 457 750 470 759 c 128,-1,16
 483 768 483 768 521 768 c 128,-1,17
 559 768 559 768 570 757.5 c 128,-1,18
 581 747 581 747 581 728 c 128,-1,19
 581 709 581 709 580 698 c 2,20,-1
 554 429 l 1,21,22
 531 252 531 252 496 157 c 128,-1,23
 461 62 461 62 406.5 23 c 128,-1,24
 352 -16 352 -16 259 -16 c 0,25,26
 125 -16 125 -16 86 68 c 0,27,28
 64 115 64 115 64 194 c 128,-1,29
 64 273 64 273 78 370 c 2,30,-1
 124 700 l 2,31,32
 130 743 130 743 144 755.5 c 128,-1,33
 158 768 158 768 197 768 c 128,-1,34
 236 768 236 768 246 756.5 c 128,-1,35
 256 745 256 745 256 725 c 128,-1,36
 256 705 256 705 255 690 c 2,37,-1
 233 431 l 1,38,39
 207 248 207 248 207 178.5 c 128,-1,40
 207 109 207 109 231 109 c 0,6,7
EndSplineSet
EndChar

StartChar: Ucircumflex
Encoding: 219 219 154
Width: 536
GlyphClass: 2
Flags: W
LayerCount: 2
Fore
SplineSet
258 828 m 1,0,-1
 223 860 l 1,1,-1
 244 914 l 1,2,-1
 359 1004 l 1,3,-1
 410 1024 l 1,4,-1
 457 1004 l 1,5,-1
 546 914 l 1,6,-1
 551 860 l 1,7,-1
 508 828 l 1,8,-1
 394 909 l 1,9,-1
 258 828 l 1,0,-1
237 109 m 0,10,11
 272 109 272 109 291.5 110.5 c 128,-1,12
 311 112 311 112 330 122.5 c 128,-1,13
 349 133 349 133 358 147 c 128,-1,14
 367 161 367 161 377.5 194.5 c 128,-1,15
 388 228 388 228 394 265 c 128,-1,16
 400 302 400 302 410 370 c 2,17,-1
 459 722 l 2,18,19
 463 750 463 750 476 759 c 128,-1,20
 489 768 489 768 527 768 c 128,-1,21
 565 768 565 768 576 757.5 c 128,-1,22
 587 747 587 747 587 728 c 128,-1,23
 587 709 587 709 586 698 c 2,24,-1
 560 429 l 1,25,26
 537 252 537 252 502 157 c 128,-1,27
 467 62 467 62 412.5 23 c 128,-1,28
 358 -16 358 -16 265 -16 c 0,29,30
 131 -16 131 -16 92 68 c 0,31,32
 70 115 70 115 70 194 c 128,-1,33
 70 273 70 273 84 370 c 2,34,-1
 130 700 l 2,35,36
 136 743 136 743 150 755.5 c 128,-1,37
 164 768 164 768 203 768 c 128,-1,38
 242 768 242 768 252 756.5 c 128,-1,39
 262 745 262 745 262 725 c 128,-1,40
 262 705 262 705 261 690 c 2,41,-1
 239 431 l 1,42,43
 213 248 213 248 213 178.5 c 128,-1,44
 213 109 213 109 237 109 c 0,10,11
EndSplineSet
EndChar

StartChar: Udieresis
Encoding: 220 220 155
Width: 539
GlyphClass: 2
Flags: W
LayerCount: 2
Fore
SplineSet
295 1024 m 0,0,1
 358 1024 358 1024 358 968 c 0,2,3
 358 961 358 961 357 952 c 0,4,5
 347 880 347 880 275 880 c 0,6,7
 212 880 212 880 212 936 c 0,8,9
 212 943 212 943 213 952 c 0,10,11
 223 1024 223 1024 295 1024 c 0,0,1
529 1024 m 0,12,13
 592 1024 592 1024 592 968 c 0,14,15
 592 961 592 961 591 952 c 0,16,17
 581 880 581 880 509 880 c 0,18,19
 446 880 446 880 446 936 c 0,20,21
 446 943 446 943 447 952 c 0,22,23
 457 1024 457 1024 529 1024 c 0,12,13
237 109 m 0,24,25
 272 109 272 109 291.5 110.5 c 128,-1,26
 311 112 311 112 330 122.5 c 128,-1,27
 349 133 349 133 358 147 c 128,-1,28
 367 161 367 161 377.5 194.5 c 128,-1,29
 388 228 388 228 394 265 c 128,-1,30
 400 302 400 302 410 370 c 2,31,-1
 459 722 l 2,32,33
 463 750 463 750 476 759 c 128,-1,34
 489 768 489 768 527 768 c 128,-1,35
 565 768 565 768 576 757.5 c 128,-1,36
 587 747 587 747 587 728 c 128,-1,37
 587 709 587 709 586 698 c 2,38,-1
 560 429 l 1,39,40
 537 252 537 252 502 157 c 128,-1,41
 467 62 467 62 412.5 23 c 128,-1,42
 358 -16 358 -16 265 -16 c 0,43,44
 131 -16 131 -16 92 68 c 0,45,46
 70 115 70 115 70 194 c 128,-1,47
 70 273 70 273 84 370 c 2,48,-1
 130 700 l 2,49,50
 136 743 136 743 150 755.5 c 128,-1,51
 164 768 164 768 203 768 c 128,-1,52
 242 768 242 768 252 756.5 c 128,-1,53
 262 745 262 745 262 725 c 128,-1,54
 262 705 262 705 261 690 c 2,55,-1
 239 431 l 1,56,57
 213 248 213 248 213 178.5 c 128,-1,58
 213 109 213 109 237 109 c 0,24,25
EndSplineSet
EndChar

StartChar: Yacute
Encoding: 221 221 156
Width: 562
GlyphClass: 2
Flags: W
LayerCount: 2
Fore
SplineSet
407 792 m 1,0,-1
 364 813 l 1,1,-1
 370 868 l 1,2,-1
 445 992 l 1,3,-1
 491 1024 l 1,4,-1
 591 964 l 1,5,-1
 407 792 l 1,0,-1
309 -16 m 0,6,7
 238 -16 238 -16 238 17 c 0,8,9
 238 19 238 19 238 22 c 2,10,-1
 284 349 l 1,11,-1
 119 732 l 2,12,13
 117 738 117 738 117 743 c 0,14,15
 117 768 117 768 184.5 768 c 128,-1,16
 252 768 252 768 262 731 c 1,17,-1
 366 492 l 1,18,-1
 519 734 l 1,19,20
 529 754 529 754 544 761 c 128,-1,21
 559 768 559 768 589 768 c 0,22,23
 654 768 654 768 654 745 c 0,24,25
 654 739 654 739 649 731 c 2,26,-1
 401 349 l 1,27,-1
 354 21 l 2,28,29
 351 -3 351 -3 344 -9.5 c 128,-1,30
 337 -16 337 -16 309 -16 c 0,6,7
EndSplineSet
EndChar

StartChar: Thorn
Encoding: 222 222 157
Width: 451
GlyphClass: 2
Flags: W
LayerCount: 2
Fore
SplineSet
180 0 m 1,0,-1
 179 -6 l 2,1,2
 179 -11 179 -11 169 -14 c 0,3,4
 166 -14 166 -14 162 -15 c 128,-1,5
 158 -16 158 -16 153 -16 c 2,6,-1
 141 -16 l 2,7,8
 92 -16 92 -16 69 -10 c 128,-1,9
 46 -4 46 -4 47 0 c 2,10,-1
 153 755 l 2,11,12
 155 771 155 771 191 771 c 128,-1,13
 227 771 227 771 257 766 c 128,-1,14
 287 761 287 761 286 755 c 2,15,-1
 268 627 l 1,16,-1
 316 627 l 2,17,18
 436 627 436 627 473 574 c 0,19,20
 496 540 496 540 496 482.5 c 128,-1,21
 496 425 496 425 488 371 c 0,22,23
 466 220 466 220 423 159.5 c 128,-1,24
 380 99 380 99 306 99 c 0,25,26
 277 99 277 99 195 110 c 1,27,-1
 180 0 l 1,0,-1
303 195 m 2,28,29
 318 195 318 195 341 352 c 0,30,31
 352 427 352 427 352 458.5 c 128,-1,32
 352 490 352 490 348 502 c 0,33,34
 339 531 339 531 302 531 c 2,35,-1
 254 531 l 1,36,-1
 207 195 l 1,37,-1
 303 195 l 2,28,29
EndSplineSet
EndChar

StartChar: germandbls
Encoding: 223 223 158
Width: 607
GlyphClass: 2
Flags: W
LayerCount: 2
Fore
SplineSet
172 -70 m 1,0,-1
 171 -76 l 2,1,2
 171 -81 171 -81 161 -84 c 0,3,4
 158 -84 158 -84 154 -85 c 128,-1,5
 150 -86 150 -86 145 -86 c 2,6,-1
 133 -86 l 2,7,8
 82 -86 82 -86 57.5 -80 c 128,-1,9
 33 -74 33 -74 34 -70 c 2,10,-1
 113 496 l 2,11,12
 136 657 136 657 188.5 708.5 c 128,-1,13
 241 760 241 760 376 760 c 0,14,15
 475 760 475 760 514.5 726.5 c 128,-1,16
 554 693 554 693 554 623 c 0,17,18
 554 563 554 563 536.5 524.5 c 128,-1,19
 519 486 519 486 500.5 467.5 c 128,-1,20
 482 449 482 449 463 434 c 0,21,22
 385 373 385 373 433 344 c 0,23,24
 453 332 453 332 479.5 319.5 c 128,-1,25
 506 307 506 307 518 300 c 0,26,27
 561 277 561 277 587 244.5 c 128,-1,28
 613 212 613 212 613 181 c 0,29,30
 613 175 613 175 612 168 c 0,31,32
 601 85 601 85 549.5 34.5 c 128,-1,33
 498 -16 498 -16 422.5 -16 c 128,-1,34
 347 -16 347 -16 307 4 c 128,-1,35
 267 24 267 24 243 61 c 1,36,-1
 246 81 l 1,37,-1
 307 134 l 1,38,-1
 315 134 l 1,39,40
 365 90 365 90 414 90 c 0,41,42
 442 90 442 90 460 107.5 c 128,-1,43
 478 125 478 125 478 143 c 128,-1,44
 478 161 478 161 465 173 c 1,45,46
 445 189 445 189 395 214 c 1,47,48
 292 269 292 269 292 345 c 0,49,50
 292 386 292 386 311 420 c 128,-1,51
 330 454 330 454 350 471.5 c 128,-1,52
 370 489 370 489 389 504 c 0,53,54
 436 543 436 543 441 582 c 0,55,56
 443 594 443 594 443 604 c 0,57,58
 443 634 443 634 424 646.5 c 128,-1,59
 405 659 405 659 352.5 659 c 128,-1,60
 300 659 300 659 281.5 625 c 128,-1,61
 263 591 263 591 249 496 c 1,62,-1
 172 -70 l 1,0,-1
EndSplineSet
EndChar

StartChar: agrave
Encoding: 224 224 159
Width: 435
GlyphClass: 2
Flags: W
LayerCount: 2
Fore
SplineSet
314 557 m 1,0,-1
 265 536 l 1,1,-1
 129 708 l 1,2,-1
 245 768 l 1,3,-1
 283 736 l 1,4,-1
 323 612 l 1,5,-1
 314 557 l 1,0,-1
144 -16 m 0,6,7
 70 -16 70 -16 44 44 c 0,8,9
 30 78 30 78 30 133.5 c 128,-1,10
 30 189 30 189 39 256 c 0,11,12
 61 406 61 406 112 459 c 128,-1,13
 163 512 163 512 283 512 c 2,14,-1
 331 512 l 1,15,-1
 347 504 l 1,16,17
 349 520 349 520 384 520 c 128,-1,18
 419 520 419 520 441.5 515.5 c 128,-1,19
 464 511 464 511 464 504 c 2,20,-1
 394 0 l 2,21,22
 393 -6 393 -6 391 -8 c 0,23,24
 385 -16 385 -16 362 -16 c 128,-1,25
 339 -16 339 -16 328 -15 c 128,-1,26
 317 -14 317 -14 308 -12.5 c 128,-1,27
 299 -11 299 -11 292 -10 c 0,28,29
 277 -6 277 -6 279 0 c 1,30,-1
 264 31 l 1,31,32
 233 12 233 12 219 4 c 0,33,34
 183 -16 183 -16 144 -16 c 0,6,7
215.5 385.5 m 128,-1,36
 198 355 198 355 185 263 c 128,-1,37
 172 171 172 171 169.5 143.5 c 128,-1,38
 167 116 167 116 167 98 c 128,-1,39
 167 80 167 80 175 80 c 0,40,41
 211 80 211 80 276 116 c 1,42,-1
 318 416 l 1,43,-1
 270 416 l 2,44,35
 233 416 233 416 215.5 385.5 c 128,-1,36
EndSplineSet
Substitution2: "'smcp' Lowercase to Small Capitals in Latin lookup 1 subtable" A_smcpgrave
EndChar

StartChar: aacute
Encoding: 225 225 160
Width: 435
GlyphClass: 2
Flags: W
LayerCount: 2
Fore
SplineSet
294 536 m 1,0,-1
 251 557 l 1,1,-1
 258 612 l 1,2,-1
 332 736 l 1,3,-1
 378 768 l 1,4,-1
 478 708 l 1,5,-1
 294 536 l 1,0,-1
144 -16 m 0,6,7
 70 -16 70 -16 44 44 c 0,8,9
 30 78 30 78 30 133.5 c 128,-1,10
 30 189 30 189 39 256 c 0,11,12
 61 406 61 406 112 459 c 128,-1,13
 163 512 163 512 283 512 c 2,14,-1
 331 512 l 1,15,-1
 347 504 l 1,16,17
 349 520 349 520 384 520 c 128,-1,18
 419 520 419 520 441.5 515.5 c 128,-1,19
 464 511 464 511 464 504 c 2,20,-1
 394 0 l 2,21,22
 393 -6 393 -6 391 -8 c 0,23,24
 385 -16 385 -16 362 -16 c 128,-1,25
 339 -16 339 -16 328 -15 c 128,-1,26
 317 -14 317 -14 308 -12.5 c 128,-1,27
 299 -11 299 -11 292 -10 c 0,28,29
 277 -6 277 -6 279 0 c 1,30,-1
 264 31 l 1,31,32
 233 12 233 12 219 4 c 0,33,34
 183 -16 183 -16 144 -16 c 0,6,7
215.5 385.5 m 128,-1,36
 198 355 198 355 185 263 c 128,-1,37
 172 171 172 171 169.5 143.5 c 128,-1,38
 167 116 167 116 167 98 c 128,-1,39
 167 80 167 80 175 80 c 0,40,41
 211 80 211 80 276 116 c 1,42,-1
 318 416 l 1,43,-1
 270 416 l 2,44,35
 233 416 233 416 215.5 385.5 c 128,-1,36
EndSplineSet
Substitution2: "'smcp' Lowercase to Small Capitals in Latin lookup 1 subtable" A_smcpacute
EndChar

StartChar: acircumflex
Encoding: 226 226 161
Width: 435
GlyphClass: 2
Flags: W
LayerCount: 2
Fore
SplineSet
171 572 m 1,0,-1
 136 604 l 1,1,-1
 157 658 l 1,2,-1
 272 748 l 1,3,-1
 323 768 l 1,4,-1
 370 748 l 1,5,-1
 459 658 l 1,6,-1
 464 604 l 1,7,-1
 421 572 l 1,8,-1
 307 653 l 1,9,-1
 171 572 l 1,0,-1
144 -16 m 0,10,11
 70 -16 70 -16 44 44 c 0,12,13
 30 78 30 78 30 133.5 c 128,-1,14
 30 189 30 189 39 256 c 0,15,16
 61 406 61 406 112 459 c 128,-1,17
 163 512 163 512 283 512 c 2,18,-1
 331 512 l 1,19,-1
 347 504 l 1,20,21
 349 520 349 520 384 520 c 128,-1,22
 419 520 419 520 441.5 515.5 c 128,-1,23
 464 511 464 511 464 504 c 2,24,-1
 394 0 l 2,25,26
 393 -6 393 -6 391 -8 c 0,27,28
 385 -16 385 -16 362 -16 c 128,-1,29
 339 -16 339 -16 328 -15 c 128,-1,30
 317 -14 317 -14 308 -12.5 c 128,-1,31
 299 -11 299 -11 292 -10 c 0,32,33
 277 -6 277 -6 279 0 c 1,34,-1
 264 31 l 1,35,36
 233 12 233 12 219 4 c 0,37,38
 183 -16 183 -16 144 -16 c 0,10,11
215.5 385.5 m 128,-1,40
 198 355 198 355 185 263 c 128,-1,41
 172 171 172 171 169.5 143.5 c 128,-1,42
 167 116 167 116 167 98 c 128,-1,43
 167 80 167 80 175 80 c 0,44,45
 211 80 211 80 276 116 c 1,46,-1
 318 416 l 1,47,-1
 270 416 l 2,48,39
 233 416 233 416 215.5 385.5 c 128,-1,40
EndSplineSet
Substitution2: "'smcp' Lowercase to Small Capitals in Latin lookup 1 subtable" A_smcpcircunflex
EndChar

StartChar: atilde
Encoding: 227 227 162
Width: 435
GlyphClass: 2
Flags: W
LayerCount: 2
Fore
SplineSet
475 628 m 1,0,1
 468 628 468 628 429.5 628 c 128,-1,2
 391 628 391 628 316.5 618 c 128,-1,3
 242 608 242 608 192 608 c 128,-1,4
 142 608 142 608 131.5 616.5 c 128,-1,5
 121 625 121 625 121 638.5 c 128,-1,6
 121 652 121 652 122 660 c 1,7,-1
 154 711 l 1,8,9
 229 711 229 711 296 720 c 128,-1,10
 363 729 363 729 416 729 c 128,-1,11
 469 729 469 729 483.5 719.5 c 128,-1,12
 498 710 498 710 498 688 c 0,13,14
 498 681 498 681 497 673 c 1,15,-1
 475 628 l 1,0,1
144 -16 m 0,16,17
 70 -16 70 -16 44 44 c 0,18,19
 30 78 30 78 30 133.5 c 128,-1,20
 30 189 30 189 39 256 c 0,21,22
 61 406 61 406 112 459 c 128,-1,23
 163 512 163 512 283 512 c 2,24,-1
 331 512 l 1,25,-1
 347 504 l 1,26,27
 349 520 349 520 384 520 c 128,-1,28
 419 520 419 520 441.5 515.5 c 128,-1,29
 464 511 464 511 464 504 c 2,30,-1
 394 0 l 2,31,32
 393 -6 393 -6 391 -8 c 0,33,34
 385 -16 385 -16 362 -16 c 128,-1,35
 339 -16 339 -16 328 -15 c 128,-1,36
 317 -14 317 -14 308 -12.5 c 128,-1,37
 299 -11 299 -11 292 -10 c 0,38,39
 277 -6 277 -6 279 0 c 1,40,-1
 264 31 l 1,41,42
 233 12 233 12 219 4 c 0,43,44
 183 -16 183 -16 144 -16 c 0,16,17
215.5 385.5 m 128,-1,46
 198 355 198 355 185 263 c 128,-1,47
 172 171 172 171 169.5 143.5 c 128,-1,48
 167 116 167 116 167 98 c 128,-1,49
 167 80 167 80 175 80 c 0,50,51
 211 80 211 80 276 116 c 1,52,-1
 318 416 l 1,53,-1
 270 416 l 2,54,45
 233 416 233 416 215.5 385.5 c 128,-1,46
EndSplineSet
Substitution2: "'smcp' Lowercase to Small Capitals in Latin lookup 1 subtable" A_smcptilde
EndChar

StartChar: adieresis
Encoding: 228 228 163
Width: 435
GlyphClass: 2
Flags: W
LayerCount: 2
Fore
SplineSet
207 768 m 0,0,1
 270 768 270 768 270 712 c 0,2,3
 270 705 270 705 269 696 c 0,4,5
 259 624 259 624 187 624 c 0,6,7
 124 624 124 624 124 680 c 0,8,9
 124 687 124 687 125 696 c 0,10,11
 135 768 135 768 207 768 c 0,0,1
441 768 m 0,12,13
 504 768 504 768 504 712 c 0,14,15
 504 705 504 705 503 696 c 0,16,17
 493 624 493 624 421 624 c 0,18,19
 358 624 358 624 358 680 c 0,20,21
 358 687 358 687 359 696 c 0,22,23
 369 768 369 768 441 768 c 0,12,13
144 -16 m 0,24,25
 70 -16 70 -16 44 44 c 0,26,27
 30 78 30 78 30 133.5 c 128,-1,28
 30 189 30 189 39 256 c 0,29,30
 61 406 61 406 112 459 c 128,-1,31
 163 512 163 512 283 512 c 2,32,-1
 331 512 l 1,33,-1
 347 504 l 1,34,35
 349 520 349 520 384 520 c 128,-1,36
 419 520 419 520 441.5 515.5 c 128,-1,37
 464 511 464 511 464 504 c 2,38,-1
 394 0 l 2,39,40
 393 -6 393 -6 391 -8 c 0,41,42
 385 -16 385 -16 362 -16 c 128,-1,43
 339 -16 339 -16 328 -15 c 128,-1,44
 317 -14 317 -14 308 -12.5 c 128,-1,45
 299 -11 299 -11 292 -10 c 0,46,47
 277 -6 277 -6 279 0 c 1,48,-1
 264 31 l 1,49,50
 233 12 233 12 219 4 c 0,51,52
 183 -16 183 -16 144 -16 c 0,24,25
215.5 385.5 m 128,-1,54
 198 355 198 355 185 263 c 128,-1,55
 172 171 172 171 169.5 143.5 c 128,-1,56
 167 116 167 116 167 98 c 128,-1,57
 167 80 167 80 175 80 c 0,58,59
 211 80 211 80 276 116 c 1,60,-1
 318 416 l 1,61,-1
 270 416 l 2,62,53
 233 416 233 416 215.5 385.5 c 128,-1,54
EndSplineSet
Substitution2: "'smcp' Lowercase to Small Capitals in Latin lookup 1 subtable" A_smcpdieresis
EndChar

StartChar: aring
Encoding: 229 229 164
Width: 435
GlyphClass: 2
Flags: W
LayerCount: 2
Fore
SplineSet
321 752 m 0,0,1
 406 752 406 752 406 678 c 0,2,3
 406 667 406 667 404 656 c 0,4,5
 390 560 390 560 294 560 c 0,6,7
 210 560 210 560 210 633 c 0,8,9
 210 644 210 644 212 656 c 0,10,11
 225 752 225 752 321 752 c 0,0,1
313 691 m 0,12,13
 272 691 272 691 272 648 c 0,14,15
 272 621 272 621 303 621 c 0,16,17
 343 621 343 621 343 663 c 0,18,19
 343 691 343 691 313 691 c 0,12,13
144 -16 m 0,20,21
 70 -16 70 -16 44 44 c 0,22,23
 30 78 30 78 30 133.5 c 128,-1,24
 30 189 30 189 39 256 c 0,25,26
 61 406 61 406 112 459 c 128,-1,27
 163 512 163 512 283 512 c 2,28,-1
 331 512 l 1,29,-1
 347 504 l 1,30,31
 349 520 349 520 384 520 c 128,-1,32
 419 520 419 520 441.5 515.5 c 128,-1,33
 464 511 464 511 464 504 c 2,34,-1
 394 0 l 2,35,36
 393 -6 393 -6 391 -8 c 0,37,38
 385 -16 385 -16 362 -16 c 128,-1,39
 339 -16 339 -16 328 -15 c 128,-1,40
 317 -14 317 -14 308 -12.5 c 128,-1,41
 299 -11 299 -11 292 -10 c 0,42,43
 277 -6 277 -6 279 0 c 1,44,-1
 264 31 l 1,45,46
 233 12 233 12 219 4 c 0,47,48
 183 -16 183 -16 144 -16 c 0,20,21
215.5 385.5 m 128,-1,50
 198 355 198 355 185 263 c 128,-1,51
 172 171 172 171 169.5 143.5 c 128,-1,52
 167 116 167 116 167 98 c 128,-1,53
 167 80 167 80 175 80 c 0,54,55
 211 80 211 80 276 116 c 1,56,-1
 318 416 l 1,57,-1
 270 416 l 2,58,49
 233 416 233 416 215.5 385.5 c 128,-1,50
EndSplineSet
Substitution2: "'smcp' Lowercase to Small Capitals in Latin lookup 1 subtable" A_smcpring
EndChar

StartChar: ae
Encoding: 230 230 165
Width: 682
GlyphClass: 2
Flags: W
LayerCount: 2
Fore
SplineSet
452 -16 m 0,0,1
 335 -16 335 -16 306 54 c 1,2,-1
 305 49 l 1,3,4
 272 20 272 20 259 10 c 0,5,6
 225 -16 225 -16 190.5 -16 c 128,-1,7
 156 -16 156 -16 137.5 -14 c 128,-1,8
 119 -12 119 -12 101.5 -5 c 128,-1,9
 84 2 84 2 75 13.5 c 128,-1,10
 66 25 66 25 60.5 45 c 128,-1,11
 55 65 55 65 55 93 c 128,-1,12
 55 121 55 121 61 160 c 0,13,14
 73 242 73 242 156 271 c 1,15,-1
 304 308 l 1,16,17
 307 336 307 336 307 358.5 c 128,-1,18
 307 381 307 381 302 392 c 0,19,20
 293 411 293 411 253 411 c 128,-1,21
 213 411 213 411 182 398 c 1,22,-1
 142 398 l 1,23,-1
 130 478 l 1,24,25
 179 512 179 512 267 512 c 128,-1,26
 355 512 355 512 395 484 c 1,27,-1
 394 483 l 1,28,29
 437 512 437 512 526.5 512 c 128,-1,30
 616 512 616 512 651.5 479 c 128,-1,31
 687 446 687 446 687 351 c 0,32,33
 687 288 687 288 662 258 c 0,34,35
 632 223 632 223 440 223 c 1,36,37
 432 155 432 155 432 132.5 c 128,-1,38
 432 110 432 110 433 104 c 0,39,40
 438 82 438 82 466 82 c 0,41,42
 595 82 595 82 647 95 c 0,43,44
 648 95 648 95 651.5 96 c 128,-1,45
 655 97 655 97 658 94 c 0,46,47
 666 85 666 85 660 56 c 1,48,49
 655 4 655 4 637 0 c 1,50,51
 593 -16 593 -16 452 -16 c 0,0,1
170 132 m 0,52,53
 170 85 170 85 203 82 c 1,54,55
 232 82 232 82 247 92 c 0,56,57
 276 110 276 110 294 234 c 1,58,59
 241 227 241 227 208 205.5 c 128,-1,60
 175 184 175 184 172 158 c 0,61,62
 170 144 170 144 170 132 c 0,52,53
556 356 m 0,63,64
 556 419 556 419 545 419 c 0,65,66
 511 419 511 419 487.5 409 c 128,-1,67
 464 399 464 399 462 381 c 2,68,-1
 451 303 l 1,69,70
 520 303 520 303 538 312.5 c 128,-1,71
 556 322 556 322 556 356 c 0,63,64
EndSplineSet
Substitution2: "'smcp' Lowercase to Small Capitals in Latin lookup 1 subtable" AE_smcp
EndChar

StartChar: ccedilla
Encoding: 231 231 166
Width: 380
GlyphClass: 2
Flags: W
LayerCount: 2
Fore
SplineSet
418 478 m 1,0,1
 423 475 423 475 423 463 c 128,-1,2
 423 451 423 451 411 424 c 128,-1,3
 399 397 399 397 391 389.5 c 128,-1,4
 383 382 383 382 376 384 c 1,5,-1
 375 384 l 1,6,-1
 342 398 l 1,7,8
 316 411 316 411 274 411 c 128,-1,9
 232 411 232 411 216 377 c 128,-1,10
 200 343 200 343 189.5 266 c 128,-1,11
 179 189 179 189 179 158.5 c 128,-1,12
 179 128 179 128 183 115 c 0,13,14
 192 82 192 82 233 82 c 0,15,16
 292 82 292 82 326 89 c 128,-1,17
 360 96 360 96 363 96.5 c 128,-1,18
 366 97 366 97 369 94 c 0,19,20
 377 85 377 85 371 56 c 1,21,22
 366 4 366 4 348 0 c 0,23,24
 291 -15 291 -15 229 -16 c 1,25,-1
 220 -47 l 1,26,27
 307 -64 307 -64 307 -135 c 0,28,29
 307 -158 307 -158 298 -186 c 0,30,31
 265 -286 265 -286 179 -286 c 0,32,33
 164 -286 164 -286 146 -283 c 1,34,-1
 169 -209 l 1,35,36
 175 -210 175 -210 180 -210 c 0,37,38
 214 -210 214 -210 225 -173 c 0,39,40
 228 -162 228 -162 228 -154 c 0,41,42
 228 -127 228 -127 196 -122 c 2,43,-1
 141 -112 l 1,44,-1
 172 -13 l 1,45,46
 84 -3 84 -3 58 56 c 0,47,48
 43 90 43 90 43 141.5 c 128,-1,49
 43 193 43 193 52.5 263 c 128,-1,50
 62 333 62 333 78.5 382.5 c 128,-1,51
 95 432 95 432 125 461.5 c 128,-1,52
 155 491 155 491 194 501.5 c 128,-1,53
 233 512 233 512 302.5 512 c 128,-1,54
 372 512 372 512 417 478 c 1,55,-1
 418 478 l 1,0,1
EndSplineSet
EndChar

StartChar: egrave
Encoding: 232 232 167
Width: 454
GlyphClass: 2
Flags: W
LayerCount: 2
Fore
SplineSet
355 557 m 1,0,-1
 306 536 l 1,1,-1
 170 708 l 1,2,-1
 286 768 l 1,3,-1
 324 736 l 1,4,-1
 364 612 l 1,5,-1
 355 557 l 1,0,-1
223 -16 m 0,6,7
 116 -16 116 -16 83 42 c 0,8,9
 63 77 63 77 63 134.5 c 128,-1,10
 63 192 63 192 71 250 c 0,11,12
 93 408 93 408 140 460 c 128,-1,13
 187 512 187 512 287 512 c 128,-1,14
 387 512 387 512 422.5 479 c 128,-1,15
 458 446 458 446 458 351 c 0,16,17
 458 288 458 288 433 258 c 0,18,19
 403 223 403 223 211 223 c 1,20,21
 203 155 203 155 203 132.5 c 128,-1,22
 203 110 203 110 204 104 c 0,23,24
 209 82 209 82 237 82 c 0,25,26
 366 82 366 82 418 95 c 0,27,28
 419 95 419 95 422.5 96 c 128,-1,29
 426 97 426 97 429 94 c 0,30,31
 437 85 437 85 431 56 c 1,32,33
 426 4 426 4 408 0 c 1,34,35
 364 -16 364 -16 223 -16 c 0,6,7
327 356 m 0,36,37
 327 419 327 419 316 419 c 0,38,39
 282 419 282 419 258.5 409 c 128,-1,40
 235 399 235 399 233 381 c 2,41,-1
 222 303 l 1,42,43
 291 303 291 303 309 312.5 c 128,-1,44
 327 322 327 322 327 356 c 0,36,37
EndSplineSet
Substitution2: "'smcp' Lowercase to Small Capitals in Latin lookup 1 subtable" E_smcpgrave
EndChar

StartChar: eacute
Encoding: 233 233 168
Width: 454
GlyphClass: 2
Flags: W
LayerCount: 2
Fore
SplineSet
307 536 m 1,0,-1
 264 557 l 1,1,-1
 271 612 l 1,2,-1
 345 736 l 1,3,-1
 391 768 l 1,4,-1
 491 708 l 1,5,-1
 307 536 l 1,0,-1
223 -16 m 0,6,7
 116 -16 116 -16 83 42 c 0,8,9
 63 77 63 77 63 134.5 c 128,-1,10
 63 192 63 192 71 250 c 0,11,12
 93 408 93 408 140 460 c 128,-1,13
 187 512 187 512 287 512 c 128,-1,14
 387 512 387 512 422.5 479 c 128,-1,15
 458 446 458 446 458 351 c 0,16,17
 458 288 458 288 433 258 c 0,18,19
 403 223 403 223 211 223 c 1,20,21
 203 155 203 155 203 132.5 c 128,-1,22
 203 110 203 110 204 104 c 0,23,24
 209 82 209 82 237 82 c 0,25,26
 366 82 366 82 418 95 c 0,27,28
 419 95 419 95 422.5 96 c 128,-1,29
 426 97 426 97 429 94 c 0,30,31
 437 85 437 85 431 56 c 1,32,33
 426 4 426 4 408 0 c 1,34,35
 364 -16 364 -16 223 -16 c 0,6,7
327 356 m 0,36,37
 327 419 327 419 316 419 c 0,38,39
 282 419 282 419 258.5 409 c 128,-1,40
 235 399 235 399 233 381 c 2,41,-1
 222 303 l 1,42,43
 291 303 291 303 309 312.5 c 128,-1,44
 327 322 327 322 327 356 c 0,36,37
EndSplineSet
Substitution2: "'smcp' Lowercase to Small Capitals in Latin lookup 1 subtable" E_smcpacute
EndChar

StartChar: ecircumflex
Encoding: 234 234 169
Width: 454
GlyphClass: 2
Flags: W
LayerCount: 2
Fore
SplineSet
181 572 m 1,0,-1
 146 604 l 1,1,-1
 167 658 l 1,2,-1
 282 748 l 1,3,-1
 333 768 l 1,4,-1
 380 748 l 1,5,-1
 469 658 l 1,6,-1
 474 604 l 1,7,-1
 431 572 l 1,8,-1
 317 653 l 1,9,-1
 181 572 l 1,0,-1
223 -16 m 0,10,11
 116 -16 116 -16 83 42 c 0,12,13
 63 77 63 77 63 134.5 c 128,-1,14
 63 192 63 192 71 250 c 0,15,16
 93 408 93 408 140 460 c 128,-1,17
 187 512 187 512 287 512 c 128,-1,18
 387 512 387 512 422.5 479 c 128,-1,19
 458 446 458 446 458 351 c 0,20,21
 458 288 458 288 433 258 c 0,22,23
 403 223 403 223 211 223 c 1,24,25
 203 155 203 155 203 132.5 c 128,-1,26
 203 110 203 110 204 104 c 0,27,28
 209 82 209 82 237 82 c 0,29,30
 366 82 366 82 418 95 c 0,31,32
 419 95 419 95 422.5 96 c 128,-1,33
 426 97 426 97 429 94 c 0,34,35
 437 85 437 85 431 56 c 1,36,37
 426 4 426 4 408 0 c 1,38,39
 364 -16 364 -16 223 -16 c 0,10,11
327 356 m 0,40,41
 327 419 327 419 316 419 c 0,42,43
 282 419 282 419 258.5 409 c 128,-1,44
 235 399 235 399 233 381 c 2,45,-1
 222 303 l 1,46,47
 291 303 291 303 309 312.5 c 128,-1,48
 327 322 327 322 327 356 c 0,40,41
EndSplineSet
Substitution2: "'smcp' Lowercase to Small Capitals in Latin lookup 1 subtable" E_smcpcircunflex
EndChar

StartChar: edieresis
Encoding: 235 235 170
Width: 454
GlyphClass: 2
Flags: W
LayerCount: 2
Fore
SplineSet
216 768 m 0,0,1
 279 768 279 768 279 712 c 0,2,3
 279 705 279 705 278 696 c 0,4,5
 268 624 268 624 196 624 c 0,6,7
 133 624 133 624 133 680 c 0,8,9
 133 687 133 687 134 696 c 0,10,11
 144 768 144 768 216 768 c 0,0,1
450 768 m 0,12,13
 513 768 513 768 513 712 c 0,14,15
 513 705 513 705 512 696 c 0,16,17
 502 624 502 624 430 624 c 0,18,19
 367 624 367 624 367 680 c 0,20,21
 367 687 367 687 368 696 c 0,22,23
 378 768 378 768 450 768 c 0,12,13
223 -16 m 0,24,25
 116 -16 116 -16 83 42 c 0,26,27
 63 77 63 77 63 134.5 c 128,-1,28
 63 192 63 192 71 250 c 0,29,30
 93 408 93 408 140 460 c 128,-1,31
 187 512 187 512 287 512 c 128,-1,32
 387 512 387 512 422.5 479 c 128,-1,33
 458 446 458 446 458 351 c 0,34,35
 458 288 458 288 433 258 c 0,36,37
 403 223 403 223 211 223 c 1,38,39
 203 155 203 155 203 132.5 c 128,-1,40
 203 110 203 110 204 104 c 0,41,42
 209 82 209 82 237 82 c 0,43,44
 366 82 366 82 418 95 c 0,45,46
 419 95 419 95 422.5 96 c 128,-1,47
 426 97 426 97 429 94 c 0,48,49
 437 85 437 85 431 56 c 1,50,51
 426 4 426 4 408 0 c 1,52,53
 364 -16 364 -16 223 -16 c 0,24,25
327 356 m 0,54,55
 327 419 327 419 316 419 c 0,56,57
 282 419 282 419 258.5 409 c 128,-1,58
 235 399 235 399 233 381 c 2,59,-1
 222 303 l 1,60,61
 291 303 291 303 309 312.5 c 128,-1,62
 327 322 327 322 327 356 c 0,54,55
EndSplineSet
Substitution2: "'smcp' Lowercase to Small Capitals in Latin lookup 1 subtable" E_smcpdieresis
EndChar

StartChar: igrave
Encoding: 236 236 171
Width: 228
GlyphClass: 2
Flags: W
LayerCount: 2
Fore
SplineSet
116 496 m 2,0,1
 118 512 118 512 154 512 c 128,-1,2
 190 512 190 512 221.5 507 c 128,-1,3
 253 502 253 502 252 496 c 2,4,-1
 183 0 l 2,5,6
 182 -6 182 -6 180 -8 c 0,7,8
 174 -16 174 -16 147 -16 c 128,-1,9
 120 -16 120 -16 98 -14 c 0,10,11
 45 -9 45 -9 47 0 c 2,12,-1
 116 496 l 2,0,1
218 557 m 1,13,-1
 169 536 l 1,14,-1
 33 708 l 1,15,-1
 149 768 l 1,16,-1
 187 736 l 1,17,-1
 227 612 l 1,18,-1
 218 557 l 1,13,-1
EndSplineSet
Substitution2: "'smcp' Lowercase to Small Capitals in Latin lookup 1 subtable" I_smcpgrave
EndChar

StartChar: iacute
Encoding: 237 237 172
Width: 228
GlyphClass: 2
Flags: W
LayerCount: 2
Fore
SplineSet
118 496 m 2,0,1
 120 512 120 512 156 512 c 128,-1,2
 192 512 192 512 223.5 507 c 128,-1,3
 255 502 255 502 254 496 c 2,4,-1
 185 0 l 2,5,6
 184 -6 184 -6 182 -8 c 0,7,8
 176 -16 176 -16 149 -16 c 128,-1,9
 122 -16 122 -16 100 -14 c 0,10,11
 47 -9 47 -9 49 0 c 2,12,-1
 118 496 l 2,0,1
208 536 m 1,13,-1
 165 557 l 1,14,-1
 172 612 l 1,15,-1
 246 736 l 1,16,-1
 292 768 l 1,17,-1
 392 708 l 1,18,-1
 208 536 l 1,13,-1
EndSplineSet
Substitution2: "'smcp' Lowercase to Small Capitals in Latin lookup 1 subtable" I_smcpacute
EndChar

StartChar: icircumflex
Encoding: 238 238 173
Width: 228
GlyphClass: 2
Flags: W
LayerCount: 2
Fore
SplineSet
116 496 m 2,0,1
 118 512 118 512 154 512 c 128,-1,2
 190 512 190 512 221.5 507 c 128,-1,3
 253 502 253 502 252 496 c 2,4,-1
 183 0 l 2,5,6
 182 -6 182 -6 180 -8 c 0,7,8
 174 -16 174 -16 147 -16 c 128,-1,9
 120 -16 120 -16 98 -14 c 0,10,11
 45 -9 45 -9 47 0 c 2,12,-1
 116 496 l 2,0,1
69 572 m 1,13,-1
 34 604 l 1,14,-1
 55 658 l 1,15,-1
 170 748 l 1,16,-1
 221 768 l 1,17,-1
 268 748 l 1,18,-1
 357 658 l 1,19,-1
 362 604 l 1,20,-1
 319 572 l 1,21,-1
 205 653 l 1,22,-1
 69 572 l 1,13,-1
EndSplineSet
Substitution2: "'smcp' Lowercase to Small Capitals in Latin lookup 1 subtable" I_smcpcircunflex
EndChar

StartChar: idieresis
Encoding: 239 239 174
Width: 228
GlyphClass: 2
Flags: W
LayerCount: 2
Fore
SplineSet
115 496 m 2,0,1
 117 512 117 512 153 512 c 128,-1,2
 189 512 189 512 220.5 507 c 128,-1,3
 252 502 252 502 251 496 c 2,4,-1
 182 0 l 2,5,6
 181 -6 181 -6 179 -8 c 0,7,8
 173 -16 173 -16 146 -16 c 128,-1,9
 119 -16 119 -16 97 -14 c 0,10,11
 44 -9 44 -9 46 0 c 2,12,-1
 115 496 l 2,0,1
103 768 m 0,13,14
 166 768 166 768 166 712 c 0,15,16
 166 705 166 705 165 696 c 0,17,18
 155 624 155 624 83 624 c 0,19,20
 20 624 20 624 20 680 c 0,21,22
 20 687 20 687 21 696 c 0,23,24
 31 768 31 768 103 768 c 0,13,14
337 768 m 0,25,26
 400 768 400 768 400 712 c 0,27,28
 400 705 400 705 399 696 c 0,29,30
 389 624 389 624 317 624 c 0,31,32
 254 624 254 624 254 680 c 0,33,34
 254 687 254 687 255 696 c 0,35,36
 265 768 265 768 337 768 c 0,25,26
EndSplineSet
Substitution2: "'smcp' Lowercase to Small Capitals in Latin lookup 1 subtable" I_smcpdieresis
EndChar

StartChar: eth
Encoding: 240 240 175
Width: 482
GlyphClass: 2
Flags: W
LayerCount: 2
Fore
SplineSet
180 546 m 0,0,1
 164 546 164 546 157 555 c 128,-1,2
 150 564 150 564 147 586 c 1,3,-1
 166 642 l 1,4,5
 221 656 221 656 281 678 c 1,6,-1
 263 717 l 1,7,-1
 274 737 l 1,8,-1
 388 768 l 1,9,-1
 401 726 l 1,10,11
 467 753 467 753 505.5 753 c 128,-1,12
 544 753 544 753 548 711 c 1,13,-1
 539 664 l 1,14,15
 494 653 494 653 430 630 c 1,16,17
 471 489 471 489 471 360 c 0,18,19
 471 306 471 306 464 254 c 0,20,21
 443 103 443 103 391 43.5 c 128,-1,22
 339 -16 339 -16 226 -16 c 128,-1,23
 113 -16 113 -16 78 44 c 0,24,25
 56 81 56 81 56 139 c 128,-1,26
 56 197 56 197 66 266.5 c 128,-1,27
 76 336 76 336 92.5 386.5 c 128,-1,28
 109 437 109 437 137.5 467 c 128,-1,29
 166 497 166 497 203.5 507.5 c 128,-1,30
 241 518 241 518 301 518 c 1,31,-1
 324 508 l 1,32,33
 324 534 324 534 311 581 c 1,34,35
 220 546 220 546 180 546 c 0,0,1
324 254 m 1,36,37
 333 312 333 312 333 340 c 128,-1,38
 333 368 333 368 328 379 c 0,39,40
 318 405 318 405 260 405 c 0,41,42
 229 405 229 405 208 254 c 0,43,44
 199 184 199 184 199 166.5 c 128,-1,45
 199 149 199 149 200 134.5 c 128,-1,46
 201 120 201 120 210 113 c 0,47,48
 230 99 230 99 271 99 c 0,49,50
 303 99 303 99 324 254 c 1,36,37
EndSplineSet
EndChar

StartChar: ntilde
Encoding: 241 241 176
Width: 488
GlyphClass: 2
Flags: W
LayerCount: 2
Fore
SplineSet
375 512 m 0,0,1
 449 512 449 512 478 466 c 1,2,3
 495 437 495 437 495 392 c 128,-1,4
 495 347 495 347 489 304 c 2,5,-1
 447 0 l 2,6,7
 446 -6 446 -6 444 -8 c 0,8,9
 438 -16 438 -16 410.5 -16 c 128,-1,10
 383 -16 383 -16 360 -14 c 0,11,12
 302 -9 302 -9 304 0 c 2,13,-1
 345 304 l 1,14,15
 354 360 354 360 354 388 c 128,-1,16
 354 416 354 416 345 416 c 0,17,18
 309 416 309 416 244 380 c 1,19,-1
 191 0 l 2,20,21
 190 -6 190 -6 188 -8 c 0,22,23
 182 -16 182 -16 154.5 -16 c 128,-1,24
 127 -16 127 -16 104 -14 c 0,25,26
 45 -9 45 -9 47 0 c 2,27,-1
 116 496 l 2,28,29
 118 512 118 512 169.5 512 c 128,-1,30
 221 512 221 512 228 496 c 0,31,32
 228 494 228 494 229 494 c 2,33,-1
 243 456 l 1,34,35
 334 512 334 512 375 512 c 0,0,1
504 628 m 1,36,37
 497 628 497 628 458.5 628 c 128,-1,38
 420 628 420 628 345.5 618 c 128,-1,39
 271 608 271 608 221 608 c 128,-1,40
 171 608 171 608 160.5 616.5 c 128,-1,41
 150 625 150 625 150 638.5 c 128,-1,42
 150 652 150 652 151 660 c 1,43,-1
 183 711 l 1,44,45
 258 711 258 711 325 720 c 128,-1,46
 392 729 392 729 445 729 c 128,-1,47
 498 729 498 729 512.5 719.5 c 128,-1,48
 527 710 527 710 527 688 c 0,49,50
 527 681 527 681 526 673 c 1,51,-1
 504 628 l 1,36,37
EndSplineSet
Substitution2: "'smcp' Lowercase to Small Capitals in Latin lookup 1 subtable" Ntilde_smcp
EndChar

StartChar: ograve
Encoding: 242 242 177
Width: 474
GlyphClass: 2
Flags: W
LayerCount: 2
Fore
SplineSet
308 512 m 0,0,1
 356 512 356 512 386.5 505.5 c 128,-1,2
 417 499 417 499 440 482 c 128,-1,3
 463 465 463 465 471 436 c 0,4,5
 481 397 481 397 481 350.5 c 128,-1,6
 481 304 481 304 472 250 c 1,7,8
 451 100 451 100 399.5 42 c 128,-1,9
 348 -16 348 -16 234 -16 c 128,-1,10
 120 -16 120 -16 86 42 c 1,11,12
 64 77 64 77 64 135 c 128,-1,13
 64 193 64 193 72 250 c 0,14,15
 94 409 94 409 142.5 460.5 c 128,-1,16
 191 512 191 512 308 512 c 0,0,1
241 388.5 m 128,-1,18
 223 361 223 361 210.5 269.5 c 128,-1,19
 198 178 198 178 198 130 c 128,-1,20
 198 82 198 82 216 82 c 0,21,22
 249 82 249 82 264.5 86 c 128,-1,23
 280 90 280 90 293.5 109 c 128,-1,24
 307 128 307 128 313 157.5 c 128,-1,25
 319 187 319 187 328.5 253 c 128,-1,26
 338 319 338 319 338 367.5 c 128,-1,27
 338 416 338 416 319 416 c 0,28,17
 259 416 259 416 241 388.5 c 128,-1,18
343 557 m 1,29,-1
 294 536 l 1,30,-1
 158 708 l 1,31,-1
 274 768 l 1,32,-1
 312 736 l 1,33,-1
 352 612 l 1,34,-1
 343 557 l 1,29,-1
EndSplineSet
Substitution2: "'smcp' Lowercase to Small Capitals in Latin lookup 1 subtable" O_smcpgrave
EndChar

StartChar: oacute
Encoding: 243 243 178
Width: 474
GlyphClass: 2
Flags: W
LayerCount: 2
Fore
SplineSet
308 512 m 0,0,1
 356 512 356 512 386.5 505.5 c 128,-1,2
 417 499 417 499 440 482 c 128,-1,3
 463 465 463 465 471 436 c 0,4,5
 481 397 481 397 481 350.5 c 128,-1,6
 481 304 481 304 472 250 c 1,7,8
 451 100 451 100 399.5 42 c 128,-1,9
 348 -16 348 -16 234 -16 c 128,-1,10
 120 -16 120 -16 86 42 c 1,11,12
 64 77 64 77 64 135 c 128,-1,13
 64 193 64 193 72 250 c 0,14,15
 94 409 94 409 142.5 460.5 c 128,-1,16
 191 512 191 512 308 512 c 0,0,1
241 388.5 m 128,-1,18
 223 361 223 361 210.5 269.5 c 128,-1,19
 198 178 198 178 198 130 c 128,-1,20
 198 82 198 82 216 82 c 0,21,22
 249 82 249 82 264.5 86 c 128,-1,23
 280 90 280 90 293.5 109 c 128,-1,24
 307 128 307 128 313 157.5 c 128,-1,25
 319 187 319 187 328.5 253 c 128,-1,26
 338 319 338 319 338 367.5 c 128,-1,27
 338 416 338 416 319 416 c 0,28,17
 259 416 259 416 241 388.5 c 128,-1,18
331 536 m 1,29,-1
 288 557 l 1,30,-1
 295 612 l 1,31,-1
 369 736 l 1,32,-1
 415 768 l 1,33,-1
 515 708 l 1,34,-1
 331 536 l 1,29,-1
EndSplineSet
Substitution2: "'smcp' Lowercase to Small Capitals in Latin lookup 1 subtable" O_smcpacute
EndChar

StartChar: ocircumflex
Encoding: 244 244 179
Width: 474
GlyphClass: 2
Flags: W
LayerCount: 2
Fore
SplineSet
308 512 m 0,0,1
 356 512 356 512 386.5 505.5 c 128,-1,2
 417 499 417 499 440 482 c 128,-1,3
 463 465 463 465 471 436 c 0,4,5
 481 397 481 397 481 350.5 c 128,-1,6
 481 304 481 304 472 250 c 1,7,8
 451 100 451 100 399.5 42 c 128,-1,9
 348 -16 348 -16 234 -16 c 128,-1,10
 120 -16 120 -16 86 42 c 1,11,12
 64 77 64 77 64 135 c 128,-1,13
 64 193 64 193 72 250 c 0,14,15
 94 409 94 409 142.5 460.5 c 128,-1,16
 191 512 191 512 308 512 c 0,0,1
241 388.5 m 128,-1,18
 223 361 223 361 210.5 269.5 c 128,-1,19
 198 178 198 178 198 130 c 128,-1,20
 198 82 198 82 216 82 c 0,21,22
 249 82 249 82 264.5 86 c 128,-1,23
 280 90 280 90 293.5 109 c 128,-1,24
 307 128 307 128 313 157.5 c 128,-1,25
 319 187 319 187 328.5 253 c 128,-1,26
 338 319 338 319 338 367.5 c 128,-1,27
 338 416 338 416 319 416 c 0,28,17
 259 416 259 416 241 388.5 c 128,-1,18
192 572 m 1,29,-1
 157 604 l 1,30,-1
 178 658 l 1,31,-1
 293 748 l 1,32,-1
 344 768 l 1,33,-1
 391 748 l 1,34,-1
 480 658 l 1,35,-1
 485 604 l 1,36,-1
 442 572 l 1,37,-1
 328 653 l 1,38,-1
 192 572 l 1,29,-1
EndSplineSet
Substitution2: "'smcp' Lowercase to Small Capitals in Latin lookup 1 subtable" O_smcpcircunflex
EndChar

StartChar: otilde
Encoding: 245 245 180
Width: 474
GlyphClass: 2
Flags: W
LayerCount: 2
Fore
SplineSet
308 512 m 0,0,1
 356 512 356 512 386.5 505.5 c 128,-1,2
 417 499 417 499 440 482 c 128,-1,3
 463 465 463 465 471 436 c 0,4,5
 481 397 481 397 481 350.5 c 128,-1,6
 481 304 481 304 472 250 c 1,7,8
 451 100 451 100 399.5 42 c 128,-1,9
 348 -16 348 -16 234 -16 c 128,-1,10
 120 -16 120 -16 86 42 c 1,11,12
 64 77 64 77 64 135 c 128,-1,13
 64 193 64 193 72 250 c 0,14,15
 94 409 94 409 142.5 460.5 c 128,-1,16
 191 512 191 512 308 512 c 0,0,1
241 388.5 m 128,-1,18
 223 361 223 361 210.5 269.5 c 128,-1,19
 198 178 198 178 198 130 c 128,-1,20
 198 82 198 82 216 82 c 0,21,22
 249 82 249 82 264.5 86 c 128,-1,23
 280 90 280 90 293.5 109 c 128,-1,24
 307 128 307 128 313 157.5 c 128,-1,25
 319 187 319 187 328.5 253 c 128,-1,26
 338 319 338 319 338 367.5 c 128,-1,27
 338 416 338 416 319 416 c 0,28,17
 259 416 259 416 241 388.5 c 128,-1,18
495 628 m 1,29,30
 488 628 488 628 449.5 628 c 128,-1,31
 411 628 411 628 336.5 618 c 128,-1,32
 262 608 262 608 212 608 c 128,-1,33
 162 608 162 608 151.5 616.5 c 128,-1,34
 141 625 141 625 141 638.5 c 128,-1,35
 141 652 141 652 142 660 c 1,36,-1
 174 711 l 1,37,38
 249 711 249 711 316 720 c 128,-1,39
 383 729 383 729 436 729 c 128,-1,40
 489 729 489 729 503.5 719.5 c 128,-1,41
 518 710 518 710 518 688 c 0,42,43
 518 681 518 681 517 673 c 1,44,-1
 495 628 l 1,29,30
EndSplineSet
Substitution2: "'smcp' Lowercase to Small Capitals in Latin lookup 1 subtable" O_smcptilde
EndChar

StartChar: odieresis
Encoding: 246 246 181
Width: 474
GlyphClass: 2
Flags: W
LayerCount: 2
Fore
SplineSet
308 512 m 0,0,1
 356 512 356 512 386.5 505.5 c 128,-1,2
 417 499 417 499 440 482 c 128,-1,3
 463 465 463 465 471 436 c 0,4,5
 481 397 481 397 481 350.5 c 128,-1,6
 481 304 481 304 472 250 c 1,7,8
 451 100 451 100 399.5 42 c 128,-1,9
 348 -16 348 -16 234 -16 c 128,-1,10
 120 -16 120 -16 86 42 c 1,11,12
 64 77 64 77 64 135 c 128,-1,13
 64 193 64 193 72 250 c 0,14,15
 94 409 94 409 142.5 460.5 c 128,-1,16
 191 512 191 512 308 512 c 0,0,1
241 388.5 m 128,-1,18
 223 361 223 361 210.5 269.5 c 128,-1,19
 198 178 198 178 198 130 c 128,-1,20
 198 82 198 82 216 82 c 0,21,22
 249 82 249 82 264.5 86 c 128,-1,23
 280 90 280 90 293.5 109 c 128,-1,24
 307 128 307 128 313 157.5 c 128,-1,25
 319 187 319 187 328.5 253 c 128,-1,26
 338 319 338 319 338 367.5 c 128,-1,27
 338 416 338 416 319 416 c 0,28,17
 259 416 259 416 241 388.5 c 128,-1,18
227 768 m 0,29,30
 290 768 290 768 290 712 c 0,31,32
 290 705 290 705 289 696 c 0,33,34
 279 624 279 624 207 624 c 0,35,36
 144 624 144 624 144 680 c 0,37,38
 144 687 144 687 145 696 c 0,39,40
 155 768 155 768 227 768 c 0,29,30
461 768 m 0,41,42
 524 768 524 768 524 712 c 0,43,44
 524 705 524 705 523 696 c 0,45,46
 513 624 513 624 441 624 c 0,47,48
 378 624 378 624 378 680 c 0,49,50
 378 687 378 687 379 696 c 0,51,52
 389 768 389 768 461 768 c 0,41,42
EndSplineSet
Substitution2: "'smcp' Lowercase to Small Capitals in Latin lookup 1 subtable" O_smcpdieresis
EndChar

StartChar: divide
Encoding: 247 247 182
Width: 378
GlyphClass: 2
Flags: W
LayerCount: 2
Fore
SplineSet
225 259 m 0,0,1
 288 259 288 259 288 203 c 0,2,3
 288 196 288 196 287 187 c 0,4,5
 277 115 277 115 205 115 c 0,6,7
 142 115 142 115 142 171 c 0,8,9
 142 178 142 178 143 187 c 0,10,11
 153 259 153 259 225 259 c 0,0,1
277 633 m 0,12,13
 340 633 340 633 340 577 c 0,14,15
 340 570 340 570 339 561 c 0,16,17
 329 489 329 489 257 489 c 0,18,19
 194 489 194 489 194 545 c 0,20,21
 194 552 194 552 195 561 c 0,22,23
 205 633 205 633 277 633 c 0,12,13
389 309 m 1,24,-1
 58 309 l 1,25,-1
 75 433 l 1,26,-1
 407 433 l 1,27,-1
 421 417 l 1,28,-1
 408 326 l 1,29,-1
 389 309 l 1,24,-1
EndSplineSet
EndChar

StartChar: oslash
Encoding: 248 248 183
Width: 446
GlyphClass: 2
Flags: W
LayerCount: 2
Fore
SplineSet
402 497 m 1,0,1
 467 467 467 467 467 357 c 0,2,3
 467 312 467 312 458 250 c 0,4,5
 437 100 437 100 385.5 42 c 128,-1,6
 334 -16 334 -16 220 -16 c 2,7,-1
 209 -16 l 1,8,-1
 161 -146 l 1,9,-1
 25 -146 l 1,10,-1
 29 -114 l 1,11,-1
 84 25 l 1,12,13
 50 61 50 61 50 150 c 0,14,15
 50 194 50 194 58 250 c 0,16,17
 79 402 79 402 125 456 c 128,-1,18
 171 510 171 510 276 513 c 1,19,-1
 357 720 l 1,20,-1
 462 720 l 1,21,-1
 447 613 l 1,22,-1
 402 497 l 1,0,1
227 390 m 128,-1,24
 209 362 209 362 196.5 270 c 128,-1,25
 184 178 184 178 184 130 c 128,-1,26
 184 82 184 82 202 82 c 0,27,28
 235 82 235 82 250.5 86 c 128,-1,29
 266 90 266 90 279.5 109 c 128,-1,30
 293 128 293 128 299 157.5 c 128,-1,31
 305 187 305 187 314.5 253.5 c 128,-1,32
 324 320 324 320 324 369 c 128,-1,33
 324 418 324 418 305 418 c 0,34,23
 245 418 245 418 227 390 c 128,-1,24
EndSplineSet
EndChar

StartChar: ugrave
Encoding: 249 249 184
Width: 487
GlyphClass: 2
Flags: W
LayerCount: 2
Fore
SplineSet
182 -16 m 0,0,1
 108 -16 108 -16 80 30 c 0,2,3
 62 59 62 59 62 104.5 c 128,-1,4
 62 150 62 150 68 192 c 2,5,-1
 111 496 l 2,6,7
 113 512 113 512 149.5 512 c 128,-1,8
 186 512 186 512 220.5 507 c 128,-1,9
 255 502 255 502 254 496 c 2,10,-1
 212 192 l 2,11,12
 205 138 205 138 205 109 c 128,-1,13
 205 80 205 80 213 80 c 0,14,15
 249 80 249 80 314 116 c 1,16,-1
 367 496 l 2,17,18
 369 512 369 512 405.5 512 c 128,-1,19
 442 512 442 512 477 507 c 128,-1,20
 512 502 512 502 511 496 c 2,21,-1
 442 0 l 2,22,23
 441 -6 441 -6 439 -8 c 0,24,25
 433 -16 433 -16 385 -16 c 128,-1,26
 337 -16 337 -16 330 0 c 1,27,-1
 329 1 l 1,28,-1
 313 31 l 1,29,30
 237 -16 237 -16 182 -16 c 0,0,1
341 557 m 1,31,-1
 292 536 l 1,32,-1
 156 708 l 1,33,-1
 272 768 l 1,34,-1
 310 736 l 1,35,-1
 350 612 l 1,36,-1
 341 557 l 1,31,-1
EndSplineSet
Substitution2: "'smcp' Lowercase to Small Capitals in Latin lookup 1 subtable" U_smcpgrave
EndChar

StartChar: uacute
Encoding: 250 250 185
Width: 487
GlyphClass: 2
Flags: W
LayerCount: 2
Fore
SplineSet
182 -16 m 0,0,1
 108 -16 108 -16 80 30 c 0,2,3
 62 59 62 59 62 104.5 c 128,-1,4
 62 150 62 150 68 192 c 2,5,-1
 111 496 l 2,6,7
 113 512 113 512 149.5 512 c 128,-1,8
 186 512 186 512 220.5 507 c 128,-1,9
 255 502 255 502 254 496 c 2,10,-1
 212 192 l 2,11,12
 205 138 205 138 205 109 c 128,-1,13
 205 80 205 80 213 80 c 0,14,15
 249 80 249 80 314 116 c 1,16,-1
 367 496 l 2,17,18
 369 512 369 512 405.5 512 c 128,-1,19
 442 512 442 512 477 507 c 128,-1,20
 512 502 512 502 511 496 c 2,21,-1
 442 0 l 2,22,23
 441 -6 441 -6 439 -8 c 0,24,25
 433 -16 433 -16 385 -16 c 128,-1,26
 337 -16 337 -16 330 0 c 1,27,-1
 329 1 l 1,28,-1
 313 31 l 1,29,30
 237 -16 237 -16 182 -16 c 0,0,1
343 536 m 1,31,-1
 300 557 l 1,32,-1
 307 612 l 1,33,-1
 381 736 l 1,34,-1
 427 768 l 1,35,-1
 527 708 l 1,36,-1
 343 536 l 1,31,-1
EndSplineSet
Substitution2: "'smcp' Lowercase to Small Capitals in Latin lookup 1 subtable" U_smcpacute
EndChar

StartChar: ucircumflex
Encoding: 251 251 186
Width: 487
GlyphClass: 2
Flags: W
LayerCount: 2
Fore
SplineSet
182 -16 m 0,0,1
 108 -16 108 -16 80 30 c 0,2,3
 62 59 62 59 62 104.5 c 128,-1,4
 62 150 62 150 68 192 c 2,5,-1
 111 496 l 2,6,7
 113 512 113 512 149.5 512 c 128,-1,8
 186 512 186 512 220.5 507 c 128,-1,9
 255 502 255 502 254 496 c 2,10,-1
 212 192 l 2,11,12
 205 138 205 138 205 109 c 128,-1,13
 205 80 205 80 213 80 c 0,14,15
 249 80 249 80 314 116 c 1,16,-1
 367 496 l 2,17,18
 369 512 369 512 405.5 512 c 128,-1,19
 442 512 442 512 477 507 c 128,-1,20
 512 502 512 502 511 496 c 2,21,-1
 442 0 l 2,22,23
 441 -6 441 -6 439 -8 c 0,24,25
 433 -16 433 -16 385 -16 c 128,-1,26
 337 -16 337 -16 330 0 c 1,27,-1
 329 1 l 1,28,-1
 313 31 l 1,29,30
 237 -16 237 -16 182 -16 c 0,0,1
198 572 m 1,31,-1
 163 604 l 1,32,-1
 184 658 l 1,33,-1
 299 748 l 1,34,-1
 350 768 l 1,35,-1
 397 748 l 1,36,-1
 486 658 l 1,37,-1
 491 604 l 1,38,-1
 448 572 l 1,39,-1
 334 653 l 1,40,-1
 198 572 l 1,31,-1
EndSplineSet
Substitution2: "'smcp' Lowercase to Small Capitals in Latin lookup 1 subtable" U_smcpcircunflex
EndChar

StartChar: udieresis
Encoding: 252 252 187
Width: 487
GlyphClass: 2
Flags: W
LayerCount: 2
Fore
SplineSet
182 -16 m 0,0,1
 108 -16 108 -16 80 30 c 0,2,3
 62 59 62 59 62 104.5 c 128,-1,4
 62 150 62 150 68 192 c 2,5,-1
 111 496 l 2,6,7
 113 512 113 512 149.5 512 c 128,-1,8
 186 512 186 512 220.5 507 c 128,-1,9
 255 502 255 502 254 496 c 2,10,-1
 212 192 l 2,11,12
 205 138 205 138 205 109 c 128,-1,13
 205 80 205 80 213 80 c 0,14,15
 249 80 249 80 314 116 c 1,16,-1
 367 496 l 2,17,18
 369 512 369 512 405.5 512 c 128,-1,19
 442 512 442 512 477 507 c 128,-1,20
 512 502 512 502 511 496 c 2,21,-1
 442 0 l 2,22,23
 441 -6 441 -6 439 -8 c 0,24,25
 433 -16 433 -16 385 -16 c 128,-1,26
 337 -16 337 -16 330 0 c 1,27,-1
 329 1 l 1,28,-1
 313 31 l 1,29,30
 237 -16 237 -16 182 -16 c 0,0,1
467 768 m 0,31,32
 530 768 530 768 530 712 c 0,33,34
 530 705 530 705 529 696 c 0,35,36
 519 624 519 624 447 624 c 0,37,38
 384 624 384 624 384 680 c 0,39,40
 384 687 384 687 385 696 c 0,41,42
 395 768 395 768 467 768 c 0,31,32
233 768 m 0,43,44
 296 768 296 768 296 712 c 0,45,46
 296 705 296 705 295 696 c 0,47,48
 285 624 285 624 213 624 c 0,49,50
 150 624 150 624 150 680 c 0,51,52
 150 687 150 687 151 696 c 0,53,54
 161 768 161 768 233 768 c 0,43,44
EndSplineSet
Substitution2: "'smcp' Lowercase to Small Capitals in Latin lookup 1 subtable" U_smcpdieresis
EndChar

StartChar: yacute
Encoding: 253 253 188
Width: 460
GlyphClass: 2
Flags: W
LayerCount: 2
Fore
SplineSet
96 496 m 1,0,1
 91 512 91 512 143 512 c 0,2,3
 170 512 170 512 200.5 507 c 128,-1,4
 231 502 231 502 232 496 c 2,5,-1
 273 154 l 1,6,-1
 399 496 l 2,7,8
 404 512 404 512 438 512 c 128,-1,9
 472 512 472 512 498 507 c 128,-1,10
 524 502 524 502 522 496 c 0,11,12
 521 495 521 495 521 492 c 1,13,-1
 221 -224 l 1,14,15
 216 -240 216 -240 179 -240 c 0,16,17
 114 -240 114 -240 106 -227 c 0,18,19
 104 -223 104 -223 108 -219 c 1,20,-1
 190 0 l 1,21,-1
 96 494 l 1,22,-1
 96 496 l 1,0,1
340 536 m 1,23,-1
 297 557 l 1,24,-1
 304 612 l 1,25,-1
 378 736 l 1,26,-1
 424 768 l 1,27,-1
 524 708 l 1,28,-1
 340 536 l 1,23,-1
EndSplineSet
Substitution2: "'smcp' Lowercase to Small Capitals in Latin lookup 1 subtable" Y_smcpacute
EndChar

StartChar: thorn
Encoding: 254 254 189
Width: 442
GlyphClass: 2
Flags: W
LayerCount: 2
Fore
SplineSet
299 512 m 2,0,1
 420 512 420 512 457 458 c 0,2,3
 479 425 479 425 479 368.5 c 128,-1,4
 479 312 479 312 471 256 c 0,5,6
 450 105 450 105 407 44.5 c 128,-1,7
 364 -16 364 -16 290 -16 c 0,8,9
 263 -16 263 -16 180 -5 c 1,10,-1
 149 -223 l 2,11,12
 148 -229 148 -229 147 -232 c 0,13,14
 142 -239 142 -239 108 -239 c 128,-1,15
 74 -239 74 -239 43.5 -234 c 128,-1,16
 13 -229 13 -229 14 -222 c 2,17,-1
 151 752 l 2,18,19
 153 768 153 768 188.5 768 c 128,-1,20
 224 768 224 768 246.5 763.5 c 128,-1,21
 269 759 269 759 268 752 c 2,22,-1
 247 512 l 1,23,-1
 299 512 l 2,0,1
286 416 m 2,24,-1
 239 416 l 1,25,-1
 192 80 l 1,26,-1
 287 80 l 2,27,28
 303 80 303 80 327 256 c 0,29,30
 336 318 336 318 336 347 c 128,-1,31
 336 376 336 376 332 387 c 0,32,33
 323 416 323 416 286 416 c 2,24,-1
EndSplineSet
EndChar

StartChar: ydieresis
Encoding: 255 255 190
Width: 460
GlyphClass: 2
Flags: W
LayerCount: 2
Fore
SplineSet
96 496 m 1,0,1
 91 512 91 512 143 512 c 0,2,3
 170 512 170 512 200.5 507 c 128,-1,4
 231 502 231 502 232 496 c 2,5,-1
 273 154 l 1,6,-1
 399 496 l 2,7,8
 404 512 404 512 438 512 c 128,-1,9
 472 512 472 512 497 507 c 128,-1,10
 522 502 522 502 522 497 c 1,11,-1
 221 -224 l 1,12,13
 216 -240 216 -240 179 -240 c 0,14,15
 114 -240 114 -240 106 -227 c 0,16,17
 104 -223 104 -223 108 -219 c 1,18,-1
 190 0 l 1,19,-1
 96 494 l 1,20,-1
 96 496 l 1,0,1
225 768 m 0,21,22
 288 768 288 768 288 712 c 0,23,24
 288 705 288 705 287 696 c 0,25,26
 277 624 277 624 205 624 c 0,27,28
 142 624 142 624 142 680 c 0,29,30
 142 687 142 687 143 696 c 0,31,32
 153 768 153 768 225 768 c 0,21,22
459 768 m 0,33,34
 522 768 522 768 522 712 c 0,35,36
 522 705 522 705 521 696 c 0,37,38
 511 624 511 624 439 624 c 0,39,40
 376 624 376 624 376 680 c 0,41,42
 376 687 376 687 377 696 c 0,43,44
 387 768 387 768 459 768 c 0,33,34
EndSplineSet
Substitution2: "'smcp' Lowercase to Small Capitals in Latin lookup 1 subtable" Y_smcpdieresis
EndChar

StartChar: dotlessi
Encoding: 305 305 191
Width: 228
GlyphClass: 2
Flags: W
LayerCount: 2
Fore
SplineSet
118 496 m 2,0,1
 120 512 120 512 156 512 c 128,-1,2
 192 512 192 512 223.5 507 c 128,-1,3
 255 502 255 502 254 496 c 2,4,-1
 185 0 l 2,5,6
 184 -6 184 -6 182 -8 c 0,7,8
 176 -16 176 -16 149 -16 c 128,-1,9
 122 -16 122 -16 100 -14 c 0,10,11
 47 -9 47 -9 49 0 c 2,12,-1
 118 496 l 2,0,1
EndSplineSet
EndChar

StartChar: Lslash
Encoding: 321 321 192
Width: 542
GlyphClass: 2
Flags: W
LayerCount: 2
Fore
SplineSet
497 121 m 2,0,1
 541 121 541 121 541 93 c 256,2,3
 541 65 541 65 531.5 39.5 c 128,-1,4
 522 14 522 14 511 7 c 128,-1,5
 500 0 500 0 484 0 c 2,6,-1
 162 0 l 1,7,-1
 148 16 l 1,8,-1
 186 286 l 1,9,-1
 86 260 l 1,10,-1
 71 380 l 1,11,-1
 204 414 l 1,12,-1
 248 731 l 2,13,14
 251 753 251 753 262.5 760.5 c 128,-1,15
 274 768 274 768 304 768 c 0,16,17
 376 768 376 768 372 732 c 2,18,-1
 347 451 l 1,19,-1
 441 476 l 1,20,-1
 460 464 l 1,21,-1
 470 376 l 1,22,-1
 456 356 l 1,23,-1
 330 323 l 1,24,-1
 303 121 l 1,25,-1
 497 121 l 2,0,1
EndSplineSet
EndChar

StartChar: lslash
Encoding: 322 322 193
Width: 454
GlyphClass: 2
Flags: W
LayerCount: 2
Fore
SplineSet
277.5 -13.5 m 128,-1,1
 268 -16 268 -16 248.5 -16 c 128,-1,2
 229 -16 229 -16 208 -14 c 0,3,4
 155 -9 155 -9 157 0 c 2,5,-1
 197 289 l 1,6,-1
 90 261 l 1,7,-1
 76 277 l 1,8,-1
 64 378 l 1,9,-1
 215 417 l 1,10,-1
 262 752 l 2,11,12
 264 768 264 768 299 768 c 128,-1,13
 334 768 334 768 356.5 763.5 c 128,-1,14
 379 759 379 759 379 752 c 2,15,-1
 354 453 l 1,16,-1
 465 482 l 1,17,-1
 483 471 l 1,18,-1
 496 367 l 1,19,-1
 337 325 l 1,20,-1
 292 0 l 2,21,22
 291 -6 291 -6 289 -8.5 c 128,-1,0
 287 -11 287 -11 277.5 -13.5 c 128,-1,1
EndSplineSet
EndChar

StartChar: OE
Encoding: 338 338 194
Width: 813
GlyphClass: 2
Flags: W
LayerCount: 2
Fore
SplineSet
877 752 m 1,0,1
 916 750 916 750 916 725 c 0,2,3
 916 713 916 713 909 688 c 0,4,5
 894 632 894 632 857 632 c 2,6,-1
 617 632 l 1,7,8
 626 596 626 596 626 549.5 c 128,-1,9
 626 503 626 503 621 455 c 1,10,-1
 813 455 l 2,11,12
 849 455 849 455 849 428 c 0,13,14
 849 424 849 424 845.5 397.5 c 128,-1,15
 842 371 842 371 833 352.5 c 128,-1,16
 824 334 824 334 799 334 c 2,17,-1
 605 334 l 1,18,19
 584 198 584 198 547 121 c 1,20,-1
 805 121 l 1,21,22
 828 120 828 120 836 111.5 c 128,-1,23
 844 103 844 103 842 86 c 0,24,25
 835 37 835 37 823.5 18.5 c 128,-1,26
 812 0 812 0 785 0 c 2,27,-1
 433 0 l 1,28,29
 358 -16 358 -16 296 -16 c 0,30,31
 147 -16 147 -16 102 68 c 0,32,33
 76 118 76 118 76 199.5 c 128,-1,34
 76 281 76 281 89 371 c 0,35,36
 111 530 111 530 147.5 611 c 128,-1,37
 184 692 184 692 242 722 c 128,-1,38
 300 752 300 752 404 752 c 2,39,-1
 877 752 l 1,0,1
448 662 m 0,40,41
 408 662 408 662 383 658.5 c 128,-1,42
 358 655 358 655 337 641.5 c 128,-1,43
 316 628 316 628 304.5 611.5 c 128,-1,44
 293 595 293 595 282 558 c 0,45,46
 267 508 267 508 250 383 c 1,47,48
 228 232 228 232 228 180.5 c 128,-1,49
 228 129 228 129 234.5 112.5 c 128,-1,50
 241 96 241 96 258 96 c 0,51,52
 299 96 299 96 321.5 97.5 c 128,-1,53
 344 99 344 99 366.5 110.5 c 128,-1,54
 389 122 389 122 399 136 c 128,-1,55
 409 150 409 150 420 186 c 0,56,57
 445 263 445 263 469 474 c 0,58,59
 477 541 477 541 477 601.5 c 128,-1,60
 477 662 477 662 448 662 c 0,40,41
EndSplineSet
EndChar

StartChar: oe
Encoding: 339 339 195
Width: 716
GlyphClass: 2
Flags: W
LayerCount: 2
Fore
SplineSet
482 -16 m 0,0,1
 406 -16 406 -16 367 13 c 1,2,3
 321 -16 321 -16 237 -16 c 0,4,5
 123 -16 123 -16 88 42 c 0,6,7
 67 77 67 77 67 135 c 128,-1,8
 67 193 67 193 75 250 c 0,9,10
 97 409 97 409 145.5 460.5 c 128,-1,11
 194 512 194 512 311 512 c 0,12,13
 396 512 396 512 433 488 c 1,14,15
 476 512 476 512 556 512 c 0,16,17
 640 512 640 512 680 481 c 0,18,19
 701 464 701 464 709 434 c 128,-1,20
 717 404 717 404 717 381 c 128,-1,21
 717 358 717 358 716.5 333 c 128,-1,22
 716 308 716 308 706 239 c 0,23,24
 705 233 705 233 681 228 c 128,-1,25
 657 223 657 223 624 223 c 2,26,-1
 471 223 l 1,27,-1
 469 220 l 1,28,29
 461 155 461 155 461 133 c 128,-1,30
 461 111 461 111 463 104 c 0,31,32
 468 82 468 82 496 82 c 0,33,34
 625 82 625 82 677 95 c 0,35,36
 678 95 678 95 681.5 96 c 128,-1,37
 685 97 685 97 688 94 c 0,38,39
 696 85 696 85 690 56 c 1,40,41
 685 4 685 4 667 0 c 1,42,43
 623 -16 623 -16 482 -16 c 0,0,1
244 388.5 m 128,-1,45
 226 361 226 361 213.5 269.5 c 128,-1,46
 201 178 201 178 201 130 c 128,-1,47
 201 82 201 82 219 82 c 0,48,49
 275 82 275 82 293.5 103.5 c 128,-1,50
 312 125 312 125 325 211 c 0,51,52
 326 221 326 221 330 250 c 2,53,-1
 335 286 l 1,54,55
 340 331 340 331 340 361 c 0,56,57
 340 416 340 416 322 416 c 0,58,44
 262 416 262 416 244 388.5 c 128,-1,45
582 303 m 1,59,60
 587 349 587 349 587 384 c 128,-1,61
 587 419 587 419 575 419 c 0,62,63
 541 419 541 419 517.5 409 c 128,-1,64
 494 399 494 399 492 381 c 2,65,-1
 481 303 l 1,66,-1
 582 303 l 1,59,60
EndSplineSet
Substitution2: "'smcp' Lowercase to Small Capitals in Latin lookup 1 subtable" OE_smcp
EndChar

StartChar: Scaron
Encoding: 352 352 196
Width: 516
GlyphClass: 2
Flags: W
LayerCount: 2
Fore
SplineSet
232 1001 m 1,0,-1
 276 1033 l 1,1,-1
 389 951 l 1,2,-1
 526 1033 l 1,3,-1
 560 1001 l 1,4,-1
 540 947 l 1,5,-1
 425 857 l 1,6,-1
 373 837 l 1,7,-1
 327 857 l 1,8,-1
 238 947 l 1,9,-1
 232 1001 l 1,0,-1
57 73 m 1,10,11
 42 96 42 96 42 110 c 128,-1,12
 42 124 42 124 69.5 148.5 c 128,-1,13
 97 173 97 173 104.5 175 c 128,-1,14
 112 177 112 177 119 177 c 128,-1,15
 126 177 126 177 141 168 c 1,16,17
 208 110 208 110 263.5 110 c 128,-1,18
 319 110 319 110 340 136.5 c 128,-1,19
 361 163 361 163 367 210 c 0,20,21
 368 216 368 216 368 221 c 0,22,23
 368 250 368 250 343.5 274 c 128,-1,24
 319 298 319 298 256 335 c 128,-1,25
 193 372 193 372 153.5 426 c 128,-1,26
 114 480 114 480 114 531 c 0,27,28
 114 542 114 542 116 553 c 0,29,30
 132 665 132 665 197.5 716.5 c 128,-1,31
 263 768 263 768 376 768 c 0,32,33
 445 768 445 768 507 735 c 0,34,35
 520 729 520 729 525 725 c 0,36,37
 537 717 537 717 537 707 c 128,-1,38
 537 697 537 697 531 688 c 1,39,40
 504 634 504 634 497 629 c 128,-1,41
 490 624 490 624 480 624 c 128,-1,42
 470 624 470 624 426.5 640.5 c 128,-1,43
 383 657 383 657 352 657 c 128,-1,44
 321 657 321 657 297 635 c 128,-1,45
 273 613 273 613 267 572 c 0,46,47
 266 566 266 566 266 560 c 0,48,49
 266 528 266 528 295.5 498 c 128,-1,50
 325 468 325 468 394 433 c 1,51,52
 468 392 468 392 497 353 c 128,-1,53
 526 314 526 314 526 263 c 0,54,55
 526 247 526 247 524 230 c 0,56,57
 489 -16 489 -16 281 -16 c 0,58,59
 126 -16 126 -16 57 73 c 1,10,11
EndSplineSet
EndChar

StartChar: scaron
Encoding: 353 353 197
Width: 421
GlyphClass: 2
Flags: W
LayerCount: 2
Fore
SplineSet
145 729 m 1,0,-1
 188 761 l 1,1,-1
 302 679 l 1,2,-1
 438 761 l 1,3,-1
 473 729 l 1,4,-1
 452 675 l 1,5,-1
 338 585 l 1,6,-1
 286 565 l 1,7,-1
 240 585 l 1,8,-1
 150 675 l 1,9,-1
 145 729 l 1,0,-1
410 181 m 0,10,11
 410 175 410 175 409 168 c 0,12,13
 398 85 398 85 346.5 34.5 c 128,-1,14
 295 -16 295 -16 219.5 -16 c 128,-1,15
 144 -16 144 -16 104 4 c 128,-1,16
 64 24 64 24 40 61 c 1,17,18
 37 63 37 63 37 66 c 0,19,20
 37 77 37 77 65.5 106.5 c 128,-1,21
 94 136 94 136 107 136 c 0,22,23
 110 136 110 136 114 132 c 0,24,25
 161 90 161 90 211 90 c 0,26,27
 239 90 239 90 257 107.5 c 128,-1,28
 275 125 275 125 275 143 c 128,-1,29
 275 161 275 161 262 173 c 1,30,31
 242 189 242 189 192 214 c 1,32,33
 89 269 89 269 89 345 c 0,34,35
 89 352 89 352 90 360 c 0,36,37
 101 440 101 440 147.5 476 c 128,-1,38
 194 512 194 512 279 512 c 128,-1,39
 364 512 364 512 405 478 c 1,40,-1
 406 478 l 1,41,42
 413 473 413 473 413 462 c 128,-1,43
 413 451 413 451 408 436 c 0,44,45
 389 378 389 378 375 378 c 0,46,47
 373 378 373 378 370 380 c 2,48,-1
 335 399 l 1,49,50
 293 416 293 416 263 416 c 1,51,52
 218 414 218 414 212 373 c 0,53,54
 210 357 210 357 226 347 c 128,-1,55
 242 337 242 337 252.5 331.5 c 128,-1,56
 263 326 263 326 283 316 c 0,57,58
 353 283 353 283 381.5 247.5 c 128,-1,59
 410 212 410 212 410 181 c 0,10,11
EndSplineSet
EndChar

StartChar: Ydieresis
Encoding: 376 376 198
Width: 567
GlyphClass: 2
Flags: W
LayerCount: 2
Fore
SplineSet
318 1024 m 0,0,1
 381 1024 381 1024 381 968 c 0,2,3
 381 961 381 961 380 952 c 0,4,5
 370 880 370 880 298 880 c 0,6,7
 235 880 235 880 235 936 c 0,8,9
 235 943 235 943 236 952 c 0,10,11
 246 1024 246 1024 318 1024 c 0,0,1
552 1024 m 0,12,13
 615 1024 615 1024 615 968 c 0,14,15
 615 961 615 961 614 952 c 0,16,17
 604 880 604 880 532 880 c 0,18,19
 469 880 469 880 469 936 c 0,20,21
 469 943 469 943 470 952 c 0,22,23
 480 1024 480 1024 552 1024 c 0,12,13
309 -16 m 0,24,25
 238 -16 238 -16 238 17 c 0,26,27
 238 19 238 19 238 22 c 2,28,-1
 284 349 l 1,29,-1
 119 732 l 2,30,31
 117 738 117 738 117 743 c 0,32,33
 117 768 117 768 184.5 768 c 128,-1,34
 252 768 252 768 262 731 c 1,35,-1
 366 492 l 1,36,-1
 519 734 l 1,37,38
 529 754 529 754 544 761 c 128,-1,39
 559 768 559 768 589 768 c 0,40,41
 654 768 654 768 654 745 c 0,42,43
 654 739 654 739 649 731 c 2,44,-1
 401 349 l 1,45,-1
 354 21 l 2,46,47
 351 -3 351 -3 344 -9.5 c 128,-1,48
 337 -16 337 -16 309 -16 c 0,24,25
EndSplineSet
EndChar

StartChar: Zcaron
Encoding: 381 381 199
Width: 503
GlyphClass: 2
Flags: W
LayerCount: 2
Fore
SplineSet
230 992 m 1,0,-1
 273 1024 l 1,1,-1
 387 943 l 1,2,-1
 523 1024 l 1,3,-1
 558 992 l 1,4,-1
 537 938 l 1,5,-1
 423 848 l 1,6,-1
 371 828 l 1,7,-1
 325 848 l 1,8,-1
 235 938 l 1,9,-1
 230 992 l 1,0,-1
117 668 m 0,10,11
 117 752 117 752 164 752 c 2,12,-1
 566 752 l 1,13,-1
 580 736 l 1,14,-1
 568 648 l 1,15,-1
 217 121 l 1,16,-1
 454 121 l 1,17,18
 486 120 486 120 496.5 112.5 c 128,-1,19
 507 105 507 105 504 84.5 c 128,-1,20
 501 64 501 64 495.5 47 c 128,-1,21
 490 30 490 30 476 15 c 128,-1,22
 462 0 462 0 442 0 c 2,23,-1
 52 0 l 1,24,-1
 38 16 l 1,25,-1
 53 122 l 1,26,-1
 408 632 l 1,27,-1
 152 632 l 1,28,29
 126 633 126 633 121.5 642.5 c 128,-1,30
 117 652 117 652 117 668 c 0,10,11
EndSplineSet
EndChar

StartChar: zcaron
Encoding: 382 382 200
Width: 414
GlyphClass: 2
Flags: W
LayerCount: 2
Fore
SplineSet
104 390 m 2,0,1
 93 390 93 390 93 406.5 c 128,-1,2
 93 423 93 423 97 443 c 0,3,4
 105 496 105 496 119 496 c 2,5,-1
 415 496 l 1,6,-1
 429 480 l 1,7,-1
 416 390 l 1,8,-1
 203 112 l 1,9,-1
 393 112 l 2,10,11
 405 112 405 112 405 89 c 0,12,13
 405 82 405 82 404 72 c 0,14,15
 393 2 393 2 378 0 c 1,16,-1
 58 0 l 1,17,-1
 44 16 l 1,18,-1
 55 96 l 1,19,-1
 290 390 l 1,20,-1
 104 390 l 2,0,1
145 729 m 1,21,-1
 188 761 l 1,22,-1
 302 679 l 1,23,-1
 438 761 l 1,24,-1
 473 729 l 1,25,-1
 452 675 l 1,26,-1
 338 585 l 1,27,-1
 286 565 l 1,28,-1
 240 585 l 1,29,-1
 150 675 l 1,30,-1
 145 729 l 1,21,-1
EndSplineSet
EndChar

StartChar: florin
Encoding: 402 402 201
Width: 567
GlyphClass: 2
Flags: W
LayerCount: 2
Fore
SplineSet
583 654 m 1,0,1
 557 667 557 667 515.5 667 c 128,-1,2
 474 667 474 667 457 629.5 c 128,-1,3
 440 592 440 592 426 496 c 1,4,-1
 522 496 l 1,5,-1
 511 416 l 1,6,-1
 423 416 l 1,7,-1
 355 -70 l 2,8,9
 339 -180 339 -180 312 -235.5 c 128,-1,10
 285 -291 285 -291 238.5 -312.5 c 128,-1,11
 192 -334 192 -334 108 -334 c 0,12,13
 65 -334 65 -334 30 -324 c 128,-1,14
 -5 -314 -5 -314 -13 -305 c 128,-1,15
 -21 -296 -21 -296 -21 -271.5 c 128,-1,16
 -21 -247 -21 -247 -19 -224 c 1,17,-1
 67 -224 l 1,18,19
 94 -233 94 -233 129 -233 c 128,-1,20
 164 -233 164 -233 180.5 -199 c 128,-1,21
 197 -165 197 -165 210 -75 c 2,22,-1
 279 416 l 1,23,-1
 199 416 l 1,24,-1
 208 480 l 1,25,-1
 290 496 l 1,26,27
 313 657 313 657 364.5 712.5 c 128,-1,28
 416 768 416 768 538 768 c 0,29,30
 574 768 574 768 604 759.5 c 128,-1,31
 634 751 634 751 647 742 c 2,32,-1
 659 734 l 1,33,-1
 623 654 l 1,34,-1
 583 654 l 1,0,1
EndSplineSet
EndChar

StartChar: circumflex
Encoding: 710 710 202
Width: 379
GlyphClass: 2
Flags: W
LayerCount: 2
Fore
SplineSet
145 572 m 1,0,-1
 110 604 l 1,1,-1
 131 658 l 1,2,-1
 246 748 l 1,3,-1
 297 768 l 1,4,-1
 344 748 l 1,5,-1
 433 658 l 1,6,-1
 438 604 l 1,7,-1
 395 572 l 1,8,-1
 281 653 l 1,9,-1
 145 572 l 1,0,-1
EndSplineSet
EndChar

StartChar: caron
Encoding: 711 711 203
Width: 377
GlyphClass: 2
Flags: W
LayerCount: 2
Fore
SplineSet
127 729 m 1,0,-1
 170 761 l 1,1,-1
 284 679 l 1,2,-1
 420 761 l 1,3,-1
 455 729 l 1,4,-1
 434 675 l 1,5,-1
 320 585 l 1,6,-1
 268 565 l 1,7,-1
 222 585 l 1,8,-1
 132 675 l 1,9,-1
 127 729 l 1,0,-1
EndSplineSet
EndChar

StartChar: breve
Encoding: 728 728 204
Width: 305
GlyphClass: 2
Flags: W
LayerCount: 2
Fore
SplineSet
238 599 m 0,0,1
 237 599 237 599 236 599 c 0,2,3
 131 599 131 599 131 689 c 0,4,5
 131 703 131 703 133 718 c 1,6,-1
 208 720 l 1,7,8
 207 714 207 714 207 705.5 c 128,-1,9
 207 697 207 697 214.5 686 c 128,-1,10
 222 675 222 675 245 674 c 1,11,12
 292 674 292 674 296 721 c 1,13,-1
 373 719 l 1,14,15
 349 599 349 599 238 599 c 0,0,1
EndSplineSet
EndChar

StartChar: dotaccent
Encoding: 729 729 205
Width: 214
GlyphClass: 2
Flags: W
LayerCount: 2
Fore
SplineSet
213 768 m 0,0,1
 276 768 276 768 276 712 c 0,2,3
 276 705 276 705 275 696 c 0,4,5
 265 624 265 624 193 624 c 0,6,7
 130 624 130 624 130 680 c 0,8,9
 130 687 130 687 131 696 c 0,10,11
 141 768 141 768 213 768 c 0,0,1
EndSplineSet
EndChar

StartChar: ring
Encoding: 730 730 206
Width: 262
GlyphClass: 2
Flags: W
LayerCount: 2
Fore
SplineSet
236 752 m 0,0,1
 321 752 321 752 321 678 c 0,2,3
 321 667 321 667 319 656 c 0,4,5
 305 560 305 560 209 560 c 0,6,7
 125 560 125 560 125 633 c 0,8,9
 125 644 125 644 127 656 c 0,10,11
 140 752 140 752 236 752 c 0,0,1
228 691 m 0,12,13
 187 691 187 691 187 648 c 0,14,15
 187 621 187 621 218 621 c 0,16,17
 258 621 258 621 258 663 c 0,18,19
 258 691 258 691 228 691 c 0,12,13
EndSplineSet
EndChar

StartChar: ogonek
Encoding: 731 731 207
Width: 224
GlyphClass: 2
Flags: W
LayerCount: 2
Fore
SplineSet
122 -122 m 2,0,1
 71 -122 71 -122 71 -177 c 0,2,3
 71 -211 71 -211 110 -211 c 1,4,-1
 99 -286 l 1,5,6
 -5 -286 -5 -286 -5 -194 c 0,7,8
 -5 -181 -5 -181 -3 -166 c 0,9,10
 12 -48 12 -48 133 -46 c 1,11,-1
 140 0 l 1,12,-1
 198 0 l 1,13,-1
 180 -122 l 1,14,-1
 122 -122 l 2,0,1
EndSplineSet
EndChar

StartChar: tilde
Encoding: 732 732 208
Width: 441
GlyphClass: 2
Flags: W
LayerCount: 2
Fore
SplineSet
480 628 m 1,0,1
 473 628 473 628 434.5 628 c 128,-1,2
 396 628 396 628 321.5 618 c 128,-1,3
 247 608 247 608 197 608 c 128,-1,4
 147 608 147 608 136.5 616.5 c 128,-1,5
 126 625 126 625 126 638.5 c 128,-1,6
 126 652 126 652 127 660 c 1,7,-1
 159 711 l 1,8,9
 234 711 234 711 301 720 c 128,-1,10
 368 729 368 729 421 729 c 128,-1,11
 474 729 474 729 488.5 719.5 c 128,-1,12
 503 710 503 710 503 688 c 0,13,14
 503 681 503 681 502 673 c 1,15,-1
 480 628 l 1,0,1
EndSplineSet
EndChar

StartChar: hungarumlaut
Encoding: 733 733 209
Width: 514
GlyphClass: 2
Flags: W
LayerCount: 2
Fore
SplineSet
179 550 m 1,0,-1
 112 582 l 1,1,-1
 133 636 l 1,2,-1
 235 741 l 1,3,-1
 286 761 l 1,4,-1
 331 675 l 1,5,-1
 179 550 l 1,0,-1
427 550 m 1,6,-1
 360 582 l 1,7,-1
 381 636 l 1,8,-1
 483 741 l 1,9,-1
 534 761 l 1,10,-1
 579 675 l 1,11,-1
 427 550 l 1,6,-1
EndSplineSet
EndChar

StartChar: endash
Encoding: 8211 8211 210
Width: 556
GlyphClass: 2
Flags: W
LayerCount: 2
Fore
SplineSet
554 308 m 1,0,-1
 104 308 l 1,1,-1
 90 324 l 1,2,-1
 105 432 l 1,3,-1
 555 432 l 1,4,-1
 569 416 l 1,5,-1
 554 308 l 1,0,-1
EndSplineSet
EndChar

StartChar: emdash
Encoding: 8212 8212 211
Width: 745
GlyphClass: 2
Flags: W
LayerCount: 2
Fore
SplineSet
743 308 m 1,0,-1
 104 308 l 1,1,-1
 90 324 l 1,2,-1
 105 432 l 1,3,-1
 744 432 l 1,4,-1
 758 416 l 1,5,-1
 743 308 l 1,0,-1
EndSplineSet
EndChar

StartChar: quoteleft
Encoding: 8216 8216 212
Width: 217
GlyphClass: 2
Flags: W
LayerCount: 2
Fore
SplineSet
227 768 m 1,0,-1
 276 759 l 1,1,-1
 284 706 l 1,2,-1
 242 572 l 1,3,-1
 204 530 l 1,4,-1
 88 560 l 1,5,-1
 227 768 l 1,0,-1
EndSplineSet
EndChar

StartChar: quoteright
Encoding: 8217 8217 213
Width: 216
GlyphClass: 2
Flags: W
LayerCount: 2
Fore
SplineSet
171 530 m 1,0,-1
 122 539 l 1,1,-1
 115 592 l 1,2,-1
 157 726 l 1,3,-1
 194 768 l 1,4,-1
 310 738 l 1,5,-1
 171 530 l 1,0,-1
EndSplineSet
EndChar

StartChar: quotesinglbase
Encoding: 8218 8218 214
Width: 197
GlyphClass: 2
Flags: W
LayerCount: 2
Fore
SplineSet
57 3 m 1,0,1
 46 15 46 15 46 31.5 c 128,-1,2
 46 48 46 48 47 56 c 0,3,4
 57 128 57 128 129 128 c 0,5,6
 192 128 192 128 192 72 c 0,7,8
 192 65 192 65 191 56 c 0,9,10
 187 18 187 18 165 0 c 1,11,-1
 47 -128 l 1,12,-1
 23 -111 l 1,13,-1
 33 -42 l 1,14,-1
 57 3 l 1,0,1
EndSplineSet
EndChar

StartChar: quotedblleft
Encoding: 8220 8220 215
Width: 450
GlyphClass: 2
Flags: W
LayerCount: 2
Fore
SplineSet
243 768 m 1,0,-1
 292 759 l 1,1,-1
 300 706 l 1,2,-1
 258 572 l 1,3,-1
 220 530 l 1,4,-1
 104 560 l 1,5,-1
 243 768 l 1,0,-1
453 768 m 1,6,-1
 502 759 l 1,7,-1
 510 706 l 1,8,-1
 468 572 l 1,9,-1
 430 530 l 1,10,-1
 314 560 l 1,11,-1
 453 768 l 1,6,-1
EndSplineSet
EndChar

StartChar: quotedblright
Encoding: 8221 8221 216
Width: 450
GlyphClass: 2
Flags: W
LayerCount: 2
Fore
SplineSet
178 530 m 1,0,-1
 129 539 l 1,1,-1
 122 592 l 1,2,-1
 164 726 l 1,3,-1
 201 768 l 1,4,-1
 317 738 l 1,5,-1
 178 530 l 1,0,-1
388 530 m 1,6,-1
 339 539 l 1,7,-1
 332 592 l 1,8,-1
 374 726 l 1,9,-1
 411 768 l 1,10,-1
 527 738 l 1,11,-1
 388 530 l 1,6,-1
EndSplineSet
EndChar

StartChar: quotedblbase
Encoding: 8222 8222 217
Width: 458
GlyphClass: 2
Flags: W
LayerCount: 2
Fore
SplineSet
61 3 m 1,0,1
 50 15 50 15 50 31.5 c 128,-1,2
 50 48 50 48 51 56 c 0,3,4
 61 128 61 128 133 128 c 0,5,6
 196 128 196 128 196 72 c 0,7,8
 196 65 196 65 195 56 c 0,9,10
 191 18 191 18 169 0 c 1,11,-1
 51 -128 l 1,12,-1
 27 -111 l 1,13,-1
 37 -42 l 1,14,-1
 61 3 l 1,0,1
301 3 m 1,15,16
 290 15 290 15 290 31.5 c 128,-1,17
 290 48 290 48 291 56 c 0,18,19
 301 128 301 128 373 128 c 0,20,21
 436 128 436 128 436 72 c 0,22,23
 436 65 436 65 435 56 c 0,24,25
 431 18 431 18 409 0 c 1,26,-1
 291 -128 l 1,27,-1
 267 -111 l 1,28,-1
 277 -42 l 1,29,-1
 301 3 l 1,15,16
EndSplineSet
EndChar

StartChar: dagger
Encoding: 8224 8224 218
Width: 375
GlyphClass: 2
Flags: W
LayerCount: 2
Fore
SplineSet
435 512 m 1,0,-1
 327 512 l 1,1,-1
 235 -146 l 1,2,-1
 111 -146 l 1,3,-1
 97 -130 l 1,4,-1
 192 512 l 1,5,-1
 99 512 l 1,6,-1
 86 528 l 1,7,-1
 101 636 l 1,8,-1
 211 636 l 1,9,-1
 251 905 l 1,10,-1
 351 905 l 1,11,-1
 364 889 l 1,12,-1
 345 636 l 1,13,-1
 437 636 l 1,14,-1
 451 620 l 1,15,-1
 435 512 l 1,0,-1
EndSplineSet
EndChar

StartChar: daggerdbl
Encoding: 8225 8225 219
Width: 381
GlyphClass: 2
Flags: W
LayerCount: 2
Fore
SplineSet
382 127 m 1,0,-1
 276 127 l 1,1,-1
 238 -146 l 1,2,-1
 114 -146 l 1,3,-1
 100 -130 l 1,4,-1
 138 127 l 1,5,-1
 48 127 l 1,6,-1
 35 143 l 1,7,-1
 50 251 l 1,8,-1
 157 251 l 1,9,-1
 195 512 l 1,10,-1
 102 512 l 1,11,-1
 89 528 l 1,12,-1
 104 636 l 1,13,-1
 214 636 l 1,14,-1
 254 905 l 1,15,-1
 354 905 l 1,16,-1
 367 889 l 1,17,-1
 348 636 l 1,18,-1
 440 636 l 1,19,-1
 454 620 l 1,20,-1
 438 512 l 1,21,-1
 330 512 l 1,22,-1
 294 251 l 1,23,-1
 384 251 l 1,24,-1
 398 235 l 1,25,-1
 382 127 l 1,0,-1
EndSplineSet
EndChar

StartChar: bullet
Encoding: 8226 8226 220
Width: 262
GlyphClass: 2
Flags: W
LayerCount: 2
Fore
SplineSet
185 391 m 0,0,1
 270 391 270 391 270 317 c 0,2,3
 270 306 270 306 268 295 c 0,4,5
 255 199 255 199 158 199 c 0,6,7
 74 199 74 199 74 273 c 0,8,9
 74 283 74 283 76 295 c 0,10,11
 89 391 89 391 185 391 c 0,0,1
EndSplineSet
EndChar

StartChar: ellipsis
Encoding: 8230 8230 221
Width: 710
GlyphClass: 2
Flags: W
LayerCount: 2
Fore
SplineSet
131 128 m 0,0,1
 194 128 194 128 194 72 c 0,2,3
 194 65 194 65 193 56 c 0,4,5
 184 -16 184 -16 111 -16 c 0,6,7
 48 -16 48 -16 48 41 c 0,8,9
 48 48 48 48 49 56 c 0,10,11
 59 128 59 128 131 128 c 0,0,1
371 128 m 0,12,13
 434 128 434 128 434 72 c 0,14,15
 434 65 434 65 433 56 c 0,16,17
 424 -16 424 -16 351 -16 c 0,18,19
 288 -16 288 -16 288 41 c 0,20,21
 288 48 288 48 289 56 c 0,22,23
 299 128 299 128 371 128 c 0,12,13
611 128 m 0,24,25
 674 128 674 128 674 72 c 0,26,27
 674 65 674 65 673 56 c 0,28,29
 664 -16 664 -16 591 -16 c 0,30,31
 528 -16 528 -16 528 41 c 0,32,33
 528 48 528 48 529 56 c 0,34,35
 539 128 539 128 611 128 c 0,24,25
EndSplineSet
EndChar

StartChar: perthousand
Encoding: 8240 8240 222
Width: 975
GlyphClass: 2
Flags: W
LayerCount: 2
Fore
SplineSet
186 16 m 1,0,-1
 514 720 l 1,1,-1
 603 720 l 1,2,-1
 588 613 l 1,3,-1
 310 0 l 1,4,-1
 200 0 l 1,5,-1
 186 16 l 1,0,-1
150.5 656.5 m 128,-1,7
 184 690 184 690 246.5 690 c 128,-1,8
 309 690 309 690 333 656 c 0,9,10
 349 634 349 634 349 600 c 128,-1,11
 349 566 349 566 345 538 c 0,12,13
 333 453 333 453 300 419.5 c 128,-1,14
 267 386 267 386 204 386 c 128,-1,15
 141 386 141 386 117 420 c 0,16,17
 101 442 101 442 101 476 c 128,-1,18
 101 510 101 510 105 538 c 0,19,6
 117 623 117 623 150.5 656.5 c 128,-1,7
186 513 m 0,20,21
 186 469 186 469 215 469 c 0,22,23
 251 469 251 469 263 543 c 0,24,25
 266 565 266 565 266 577.5 c 128,-1,26
 266 590 266 590 264 596 c 0,27,28
 259 607 259 607 239 607 c 128,-1,29
 219 607 219 607 206 587 c 128,-1,30
 193 567 193 567 189.5 545.5 c 128,-1,31
 186 524 186 524 186 513 c 0,20,21
506.5 286.5 m 128,-1,33
 540 320 540 320 602.5 320 c 128,-1,34
 665 320 665 320 689 286 c 0,35,36
 705 264 705 264 705 230 c 128,-1,37
 705 196 705 196 701 168 c 0,38,39
 689 83 689 83 656 49.5 c 128,-1,40
 623 16 623 16 560 16 c 128,-1,41
 497 16 497 16 473 50 c 0,42,43
 457 72 457 72 457 106 c 128,-1,44
 457 140 457 140 461 168 c 0,45,32
 473 253 473 253 506.5 286.5 c 128,-1,33
542 143 m 0,46,47
 542 99 542 99 571 99 c 0,48,49
 607 99 607 99 619 173 c 0,50,51
 622 195 622 195 622 207.5 c 128,-1,52
 622 220 622 220 620 226 c 0,53,54
 615 237 615 237 595 237 c 128,-1,55
 575 237 575 237 562 217 c 128,-1,56
 549 197 549 197 545.5 175.5 c 128,-1,57
 542 154 542 154 542 143 c 0,46,47
787.5 286.5 m 128,-1,59
 821 320 821 320 883.5 320 c 128,-1,60
 946 320 946 320 970 286 c 0,61,62
 986 264 986 264 986 230 c 128,-1,63
 986 196 986 196 982 168 c 0,64,65
 970 83 970 83 937 49.5 c 128,-1,66
 904 16 904 16 841 16 c 128,-1,67
 778 16 778 16 754 50 c 0,68,69
 738 72 738 72 738 106 c 128,-1,70
 738 140 738 140 742 168 c 0,71,58
 754 253 754 253 787.5 286.5 c 128,-1,59
823 143 m 0,72,73
 823 99 823 99 852 99 c 0,74,75
 888 99 888 99 900 173 c 0,76,77
 903 195 903 195 903 207.5 c 128,-1,78
 903 220 903 220 901 226 c 0,79,80
 896 237 896 237 876 237 c 128,-1,81
 856 237 856 237 843 217 c 128,-1,82
 830 197 830 197 826.5 175.5 c 128,-1,83
 823 154 823 154 823 143 c 0,72,73
EndSplineSet
EndChar

StartChar: guilsinglleft
Encoding: 8249 8249 223
Width: 335
GlyphClass: 2
Flags: W
LayerCount: 2
Fore
SplineSet
328 195 m 1,0,-1
 290 156 l 1,1,-1
 238 169 l 1,2,-1
 76 335 l 1,3,-1
 62 384 l 1,4,-1
 89 433 l 1,5,-1
 283 599 l 1,6,-1
 339 612 l 1,7,-1
 365 573 l 1,8,-1
 177 384 l 1,9,-1
 328 195 l 1,0,-1
EndSplineSet
EndChar

StartChar: guilsinglright
Encoding: 8250 8250 224
Width: 335
GlyphClass: 2
Flags: W
LayerCount: 2
Fore
SplineSet
87 156 m 1,0,-1
 61 195 l 1,1,-1
 264 384 l 1,2,-1
 130 573 l 1,3,-1
 168 612 l 1,4,-1
 220 599 l 1,5,-1
 366 433 l 1,6,-1
 379 384 l 1,7,-1
 353 335 l 1,8,-1
 143 169 l 1,9,-1
 87 156 l 1,0,-1
EndSplineSet
EndChar

StartChar: fraction
Encoding: 8260 8260 225
Width: 499
GlyphClass: 2
Flags: W
LayerCount: 2
Fore
SplineSet
-11 -130 m 1,0,-1
 479 876 l 1,1,-1
 599 876 l 1,2,-1
 612 860 l 1,3,-1
 128 -146 l 1,4,-1
 2 -146 l 1,5,-1
 -11 -130 l 1,0,-1
EndSplineSet
EndChar

StartChar: Euro
Encoding: 8364 8364 226
Width: 554
GlyphClass: 2
Flags: W
LayerCount: 2
Fore
SplineSet
268.5 717.5 m 128,-1,1
 333 768 333 768 451 768 c 128,-1,2
 569 768 569 768 615 734 c 0,3,4
 622 728 622 728 622 719 c 128,-1,5
 622 710 622 710 608 681 c 128,-1,6
 594 652 594 652 584.5 640.5 c 128,-1,7
 575 629 575 629 565.5 629 c 128,-1,8
 556 629 556 629 551 630 c 0,9,10
 478 645 478 645 420 645 c 0,11,12
 386 645 386 645 364 618.5 c 128,-1,13
 342 592 342 592 328 534 c 1,14,-1
 510 534 l 1,15,-1
 523 518 l 1,16,-1
 508 410 l 1,17,-1
 96 410 l 1,18,-1
 82 426 l 1,19,-1
 98 534 l 1,20,-1
 170 534 l 1,21,0
 204 667 204 667 268.5 717.5 c 128,-1,1
281 196 m 1,22,23
 281 144 281 144 297.5 126 c 128,-1,24
 314 108 314 108 355 108 c 128,-1,25
 396 108 396 108 499 118 c 0,26,27
 526 120 526 120 526 96 c 0,28,29
 526 93 526 93 522 66 c 128,-1,30
 518 39 518 39 510 20 c 128,-1,31
 502 1 502 1 479 -3 c 0,32,33
 388 -16 388 -16 345 -16 c 0,34,35
 229 -16 229 -16 178 32 c 128,-1,36
 127 80 127 80 125 196 c 1,37,-1
 66 196 l 1,38,-1
 52 212 l 1,39,-1
 67 320 l 1,40,-1
 479 320 l 1,41,-1
 493 304 l 1,42,-1
 478 196 l 1,43,-1
 281 196 l 1,22,23
EndSplineSet
EndChar

StartChar: trademark
Encoding: 8482 8482 227
Width: 699
GlyphClass: 2
Flags: W
LayerCount: 2
Fore
SplineSet
129 683 m 1,0,-1
 139 752 l 1,1,-1
 392 752 l 1,2,-1
 406 736 l 1,3,-1
 396 667 l 1,4,-1
 312 667 l 1,5,-1
 271 368 l 1,6,-1
 186 368 l 1,7,-1
 172 384 l 1,8,-1
 212 667 l 1,9,-1
 143 667 l 1,10,-1
 129 683 l 1,0,-1
551 527 m 1,11,-1
 530 586 l 1,12,-1
 499 368 l 1,13,-1
 414 368 l 1,14,-1
 400 384 l 1,15,-1
 452 752 l 1,16,-1
 544 752 l 1,17,-1
 558 736 l 1,18,-1
 588 621 l 1,19,-1
 659 752 l 1,20,-1
 732 752 l 1,21,-1
 746 736 l 1,22,-1
 734 572 l 1,23,-1
 705 368 l 1,24,-1
 621 368 l 1,25,-1
 607 384 l 1,26,-1
 637 592 l 1,27,-1
 595 527 l 1,28,-1
 551 527 l 1,11,-1
EndSplineSet
EndChar

StartChar: minus
Encoding: 8722 8722 228
Width: 556
GlyphClass: 2
Flags: W
LayerCount: 2
Fore
SplineSet
554 308 m 1,0,-1
 104 308 l 1,1,-1
 90 324 l 1,2,-1
 105 432 l 1,3,-1
 555 432 l 1,4,-1
 569 416 l 1,5,-1
 554 308 l 1,0,-1
EndSplineSet
EndChar

StartChar: fi
Encoding: 64257 64257 229
Width: 520
GlyphClass: 3
Flags: W
LayerCount: 2
Fore
SplineSet
77 416 m 2,0,1
 64 416 64 416 64 424 c 2,2,-1
 64 434 l 1,3,4
 70 476 70 476 86 480 c 2,5,-1
 168 496 l 1,6,7
 191 658 191 658 241 713 c 128,-1,8
 291 768 291 768 413 768 c 0,9,10
 481 768 481 768 558 744 c 0,11,12
 583 736 583 736 586 734 c 1,13,-1
 587 734 l 1,14,15
 593 730 593 730 593 719.5 c 128,-1,16
 593 709 593 709 583.5 684.5 c 128,-1,17
 574 660 574 660 564.5 647 c 128,-1,18
 555 634 555 634 546 639 c 0,19,20
 494 667 494 667 387 667 c 0,21,22
 349 667 349 667 332 629.5 c 128,-1,23
 315 592 315 592 301 496 c 1,24,-1
 444 496 l 2,25,26
 560 496 560 496 555 457 c 2,27,-1
 491 0 l 2,28,29
 490 -6 490 -6 488 -8 c 0,30,31
 482 -16 482 -16 455 -16 c 128,-1,32
 428 -16 428 -16 406 -14 c 0,33,34
 353 -9 353 -9 355 0 c 2,35,-1
 413 416 l 1,36,-1
 298 416 l 1,37,-1
 208 -224 l 2,38,39
 207 -230 207 -230 206 -232 c 0,40,41
 201 -240 201 -240 167 -240 c 128,-1,42
 133 -240 133 -240 99.5 -235 c 128,-1,43
 66 -230 66 -230 67 -224 c 2,44,-1
 157 416 l 1,45,-1
 77 416 l 2,0,1
EndSplineSet
Substitution2: "'smcp' Lowercase to Small Capitals in Latin lookup 1 subtable" fi_smcp
Ligature2: "'liga' Standard Ligatures in Latin lookup 0 subtable" f i
EndChar

